<svg version="1.1" id="Layer_1" xmlns="http://www.w3.org/2000/svg" xmlns:xlink="http://www.w3.org/1999/xlink" x="0px" y="0px"
	 width="100%" viewBox="0 0 1024 1024" enable-background="new 0 0 1024 1024" xml:space="preserve">
<path fill="#000000" opacity="1.000000" stroke="none" 
	d="
M388.663940,711.999878 
	C388.666473,612.006470 388.738678,512.512939 388.639282,413.019623 
	C388.602600,376.329651 404.793945,347.823273 432.199371,324.802185 
	C437.297913,320.519287 442.761261,316.672638 447.899139,312.434204 
	C455.426605,306.224457 457.052979,297.726501 456.762756,288.546692 
	C456.699341,286.540588 455.788574,285.779999 453.844696,285.245728 
	C449.071533,283.933807 446.648926,280.369507 447.195953,276.142548 
	C447.768738,271.716614 450.390778,269.873352 456.359283,269.873352 
	C481.690887,269.873383 507.022522,269.926544 532.354126,269.914246 
	C546.679871,269.907288 561.005615,269.799652 575.331360,269.769165 
	C577.155945,269.765289 579.041565,269.696259 580.793030,270.107849 
	C584.355164,270.944977 586.894592,273.233398 587.046143,276.979309 
	C587.200928,280.805634 585.190857,284.156250 581.455627,284.902618 
	C577.584595,285.676178 577.374146,287.762024 577.189331,290.867218 
	C576.376709,304.521088 584.394470,312.822845 594.528748,319.779694 
	C612.237671,331.936279 625.939331,347.527588 635.141968,366.943878 
	C641.484192,380.325256 645.209229,394.388977 645.352539,409.309937 
	C646.625000,541.793579 645.865173,674.280151 645.905701,806.765381 
	C645.913147,831.138855 637.814575,852.434021 620.245178,869.740051 
	C621.457031,871.823364 623.312500,871.039673 624.798645,871.063904 
	C638.957886,871.294800 653.118408,871.451477 667.278992,871.589478 
	C674.159790,871.656494 678.133179,874.302917 678.269897,879.025330 
	C678.410767,883.888672 674.056335,887.127075 667.186157,887.129272 
	C587.858154,887.154419 508.530060,887.236755 429.202209,887.130981 
	C405.045685,887.098816 380.878876,887.727539 356.729675,886.444946 
	C352.889313,886.241028 349.844482,884.994934 348.243774,881.413269 
	C346.097229,876.610474 349.927094,871.759155 356.032379,871.662170 
	C372.190735,871.405640 388.351379,871.295227 404.510254,871.067200 
	C407.470337,871.025452 410.480774,871.487122 414.360229,870.274414 
	C410.117493,865.986389 406.529114,861.751709 403.248016,857.271423 
	C393.470825,843.920898 388.632385,829.033142 388.654175,812.492126 
	C388.698059,779.161438 388.666168,745.830688 388.663940,711.999878 
M619.650574,480.499969 
	C619.645325,458.845367 619.896545,437.186859 619.568115,415.537170 
	C619.181885,390.077332 609.995422,368.187714 591.678162,350.284729 
	C585.201538,343.954498 577.409485,339.371033 570.249695,333.947906 
	C561.862854,327.595428 556.007446,319.640045 554.271790,308.944641 
	C553.381409,303.458496 553.798889,297.982056 553.660156,292.501678 
	C553.505798,286.406952 553.262817,286.090820 547.071228,286.093384 
	C529.084229,286.100830 511.097229,286.147766 493.110229,286.137726 
	C480.335846,286.130585 480.335876,286.100555 480.320496,299.102875 
	C480.319885,299.602661 480.291473,300.104156 480.322021,300.602020 
	C481.273865,316.126648 474.038330,327.327179 461.835327,336.032623 
	C456.689392,339.703644 451.564575,343.461121 446.810547,347.614655 
	C426.285553,365.547058 415.101318,387.881622 415.203888,415.496826 
	C415.307861,443.485077 415.238892,471.473938 415.315430,499.462311 
	C415.320526,501.320404 414.533691,503.463257 416.303741,505.013275 
	C416.748108,504.970612 417.103455,505.010101 417.398834,504.895325 
	C418.638275,504.413574 419.851685,503.865295 421.088959,503.377686 
	C436.817322,497.179016 452.932098,495.026886 469.442474,499.551605 
	C484.282532,503.618561 497.502075,510.881073 508.998962,521.152039 
	C513.221069,524.923889 517.317505,528.838318 521.419556,532.742126 
	C529.745300,540.665344 538.222778,548.440674 546.302917,556.608093 
	C564.860046,575.365662 590.146484,578.853882 614.375610,567.230164 
	C618.121521,565.433105 619.800781,563.366211 619.763916,558.964966 
	C619.547729,533.144836 619.659668,507.321930 619.650574,480.499969 
M420.489105,576.055237 
	C416.151306,577.804260 414.892700,581.051270 415.132751,585.589722 
	C415.466675,591.903320 415.225037,598.247192 415.238556,604.578064 
	C415.255646,612.579712 415.726227,612.966980 423.026978,609.849365 
	C436.108795,604.263245 449.524933,601.056274 463.855896,603.350403 
	C481.846283,606.230286 497.056885,614.799927 510.888824,626.210571 
	C520.903137,634.471863 530.192322,643.676208 541.371887,650.433044 
	C566.094055,665.375122 591.055847,665.326782 616.180664,651.308350 
	C618.880554,649.802002 619.774902,647.805481 619.708435,644.817566 
	C619.552917,637.824219 619.659241,630.824951 619.661133,623.828125 
	C619.663147,616.433044 619.268860,616.004883 612.428894,618.957581 
	C601.660217,623.606262 590.480408,625.539978 578.843384,624.717041 
	C560.581421,623.425781 544.890442,615.807739 530.775757,604.596558 
	C523.602539,598.898987 516.691162,592.872253 509.528168,587.161438 
	C482.395844,565.529968 453.380829,558.057190 420.489105,576.055237 
M460.183807,701.298096 
	C445.523499,699.996704 432.222443,704.223022 419.633850,711.302917 
	C417.914001,712.270264 415.548950,713.086853 415.508942,715.301147 
	C415.330200,725.192688 415.431274,735.089294 415.431274,744.813171 
	C417.589844,745.344604 418.761261,744.594177 419.952301,744.088745 
	C429.192688,740.167786 438.653442,736.994324 448.787506,736.734436 
	C469.476044,736.203857 487.039429,744.205994 502.658051,757.097107 
	C511.643311,764.513245 520.218140,772.437866 529.353455,779.658264 
	C542.128906,789.755859 556.463440,796.566650 572.995605,797.608398 
	C589.333740,798.637878 603.492920,792.146545 617.189026,784.255737 
	C619.186646,783.104797 619.672424,781.362366 619.655701,779.201355 
	C619.604248,772.541687 619.713562,765.880859 619.656921,759.221252 
	C619.614868,754.280945 618.014465,753.188965 613.448303,755.445190 
	C609.691284,757.301758 605.822693,758.470764 601.787415,759.532471 
	C579.272766,765.455811 558.622925,761.020447 539.334290,748.725769 
	C528.769409,741.991699 519.458618,733.613770 509.973724,725.513611 
	C495.677429,713.304565 480.320160,703.482422 460.183807,701.298096 
M429.836548,794.500000 
	C429.822052,785.851257 429.856628,777.201843 429.750580,768.554260 
	C429.730072,766.881836 430.286591,764.574280 427.686676,764.117981 
	C423.754700,763.427917 415.273773,770.695740 415.265717,774.747314 
	C415.241577,786.889282 415.332733,799.031555 415.287048,811.173340 
	C415.227325,827.028381 422.054504,839.746765 433.406982,850.185303 
	C438.645966,855.002441 445.041199,857.868042 453.341858,858.748413 
	C452.079956,857.418640 451.676025,856.919495 451.200195,856.502380 
	C439.189667,845.971497 431.926605,832.823792 430.282623,816.928833 
	C429.550079,809.846130 429.948059,802.646545 429.836548,794.500000 
M419.359375,688.712646 
	C420.282684,688.334106 421.208313,687.961060 422.128967,687.576172 
	C430.000671,684.284973 430.019379,684.284302 430.030823,675.973145 
	C430.048676,662.991577 430.063293,650.009888 430.014893,637.028503 
	C430.006439,634.762634 430.410675,632.388123 428.968719,630.027405 
	C424.409668,630.703796 420.651062,633.054016 417.029968,635.662842 
	C415.735565,636.595398 415.248749,638.012939 415.250732,639.605774 
	C415.270142,655.249939 415.284515,670.894104 415.294952,686.538269 
	C415.296539,688.921997 416.170410,690.059998 419.359375,688.712646 
M416.701660,559.603638 
	C419.255280,560.249268 421.035156,558.251038 423.221863,557.713806 
	C429.520020,556.166748 431.074860,551.713928 430.502533,546.061829 
	C429.880951,539.923035 430.322479,533.799377 430.394714,527.669922 
	C430.421753,525.378723 431.044128,523.025208 428.914062,520.673828 
	C423.909851,522.764343 416.576355,524.151367 415.767670,529.543274 
	C414.318573,539.205200 414.307892,549.305786 416.701660,559.603638 
z"/>
<path fill="#000000" opacity="1.000000" stroke="none" 
	d="
M578.560669,189.266830 
	C584.004944,193.745041 585.871460,199.532166 586.098633,205.873642 
	C586.349121,212.860794 586.140686,219.863190 586.257935,226.856827 
	C586.325439,230.885040 584.496765,232.536575 580.506470,232.521469 
	C549.386536,232.403641 518.265991,232.300644 487.146179,232.374725 
	C482.677765,232.385345 480.692780,230.974548 480.889343,226.369537 
	C481.151825,220.219803 480.932190,214.048416 481.238037,207.902161 
	C481.365723,205.335526 482.210663,202.655609 479.000580,201.636246 
	C475.763397,200.608292 472.721832,201.216934 470.514282,204.143921 
	C469.225891,205.852203 469.174316,207.852936 469.176147,209.867020 
	C469.181580,215.862885 469.129242,221.859406 469.205200,227.854340 
	C469.244507,230.956802 468.028259,232.469315 464.771271,232.353607 
	C460.945404,232.217667 457.110504,232.282303 453.280487,232.333664 
	C450.020752,232.377350 448.201630,230.864334 448.182159,227.588989 
	C448.128754,218.604279 447.278992,209.550034 448.840179,200.663818 
	C450.151581,193.199249 454.770966,187.938278 462.299957,186.179977 
	C465.848511,185.351273 466.771362,183.788681 466.720795,180.408035 
	C466.579651,170.967514 465.793060,161.470322 470.951050,152.707169 
	C477.306213,141.910095 486.387604,135.899384 498.962250,135.710785 
	C510.951477,135.530975 522.945618,135.633270 534.937378,135.674698 
	C551.994934,135.733627 566.732544,150.146133 567.246521,167.289322 
	C567.386230,171.949127 567.407104,176.618668 567.277466,181.278015 
	C567.201416,184.009460 567.879150,185.632248 570.926025,186.054688 
	C573.547302,186.418137 576.073120,187.416336 578.560669,189.266830 
M525.421265,157.266876 
	C517.942688,157.273010 510.463837,157.237000 502.985718,157.296585 
	C494.709686,157.362549 489.744476,162.187714 489.366547,170.565765 
	C489.216858,173.883286 489.533966,177.230225 489.255432,180.531448 
	C488.904968,184.685181 490.555176,186.066406 494.658386,185.990051 
	C506.786652,185.764297 518.920715,185.852097 531.052490,185.807922 
	C544.817261,185.757797 544.718567,185.753403 544.721008,171.787949 
	C544.721924,166.468048 542.554932,162.574783 538.387268,159.526489 
	C534.726990,156.849335 530.522766,157.303528 525.421265,157.266876 
z"/>
<path fill="#000000" opacity="1.000000" stroke="none" 
	d="
M493.236389,243.103241 
	C520.673279,243.068558 547.633606,243.037384 574.593933,243.049973 
	C576.576538,243.050903 578.598206,243.177353 580.533569,243.576370 
	C584.929565,244.482697 587.748474,248.036911 587.108704,252.136490 
	C586.445679,256.385223 583.875183,259.168060 579.406311,259.250366 
	C570.587830,259.412842 561.764465,259.322540 552.943115,259.311676 
	C521.005920,259.272339 489.068726,259.193054 457.131622,259.212891 
	C452.972626,259.215485 449.568512,258.374329 447.787598,254.148697 
	C445.532166,248.797379 448.522461,243.912720 454.342773,243.646332 
	C467.142181,243.060532 479.965790,244.159470 493.236389,243.103241 
z"/>
<path fill="#000000" opacity="1.000000" stroke="none" 
	d="
M703.195190,871.664185 
	C706.491028,871.667603 709.319031,871.669678 712.147095,871.675659 
	C716.476685,871.684814 719.045898,873.717834 719.466003,878.132935 
	C719.893127,882.621521 717.896362,885.534607 713.531128,886.598206 
	C709.769226,887.514954 705.903076,887.184570 702.103516,886.882507 
	C696.337952,886.424133 693.214111,883.406555 693.251831,878.739014 
	C693.288025,874.258118 696.528076,871.839172 703.195190,871.664185 
z"/>
<path fill="#000000" opacity="1.000000" stroke="none" 
	d="
M315.641052,883.276611 
	C313.270538,875.717712 316.572662,870.364502 322.987854,870.926331 
	C326.713196,871.252563 329.594238,873.200439 331.071930,876.705383 
	C332.221466,879.431885 331.400848,881.978394 329.390869,884.019714 
	C326.740814,886.711121 323.614044,887.729431 319.871216,886.374573 
	C318.250366,885.787781 316.897400,884.949890 315.641052,883.276611 
z"/>
</svg>