<svg version="1.1" id="Layer_1" xmlns="http://www.w3.org/2000/svg" xmlns:xlink="http://www.w3.org/1999/xlink" x="0px" y="0px"
	 width="100%" viewBox="0 0 576 704" enable-background="new 0 0 576 704" xml:space="preserve">
<path fill="#000000" opacity="1.000000" stroke="none" 
	d="
M427.746796,396.316742 
	C445.606628,431.008881 459.327759,466.793243 466.887054,504.815033 
	C469.162750,516.261169 470.601379,527.807190 471.076630,539.434875 
	C471.435242,548.207214 469.124390,556.304626 462.324188,562.486694 
	C458.250305,566.190247 453.525421,568.400635 447.877472,568.352112 
	C442.378021,568.304871 436.877716,568.372437 431.377838,568.362244 
	C421.810059,568.344543 415.675476,564.318604 412.076660,555.490479 
	C411.407166,553.848145 410.546722,552.826538 409.005035,551.886536 
	C395.163910,543.447449 395.444305,524.134033 409.451202,515.926331 
	C409.881897,515.673889 410.310028,515.333984 410.779602,515.243286 
	C419.625671,513.535828 421.193085,508.285278 419.881439,499.883881 
	C417.908630,487.247253 416.735291,474.482605 413.954681,461.963226 
	C413.198486,458.558533 412.505188,455.134796 410.660400,451.502319 
	C409.501129,453.894806 409.338531,456.055786 409.335541,458.264435 
	C409.328552,463.430969 409.327057,468.597687 409.279205,473.763947 
	C409.210571,481.171600 407.272736,483.325958 399.753174,484.454071 
	C388.708862,486.110992 379.086060,496.319366 377.423462,508.406708 
	C376.766846,513.180786 376.318604,517.979309 376.329132,522.838440 
	C376.411835,561.004333 376.369354,599.170410 376.399628,637.336487 
	C376.408630,648.675964 376.458618,648.673401 387.846497,648.671997 
	C400.179657,648.670410 412.512817,648.667542 424.845978,648.684204 
	C426.342041,648.686279 427.875854,648.620850 429.324951,648.916321 
	C431.437683,649.347229 432.981934,650.643616 433.162354,652.937988 
	C433.361481,655.470276 431.868958,657.101868 429.638763,657.766296 
	C428.086823,658.228699 426.344910,658.148499 424.687805,658.149231 
	C330.689575,658.188843 236.691330,658.212769 142.693085,658.224915 
	C140.865448,658.225159 138.983368,658.311035 137.223541,657.920532 
	C134.889587,657.402588 133.406052,655.709473 133.487946,653.248962 
	C133.569824,650.788879 135.170288,649.282349 137.530243,648.848633 
	C138.987366,648.580811 140.518890,648.679871 142.017044,648.679138 
	C163.350082,648.668335 184.684036,648.564758 206.015396,648.753113 
	C210.316391,648.791138 211.781693,647.649963 211.763458,643.158508 
	C211.590881,600.659790 211.784576,558.159241 211.531281,515.661316 
	C211.445862,501.327637 204.345108,488.823883 190.622849,484.900055 
	C185.529770,483.443726 183.669540,479.583557 183.662109,474.595947 
	C183.644440,462.763153 183.663223,450.930267 183.609436,439.097687 
	C183.602173,437.501892 184.141861,435.762756 182.739838,434.144684 
	C180.514572,434.615265 180.434906,436.667633 179.928009,438.241882 
	C173.787109,457.313660 170.030441,476.903290 167.339432,496.720154 
	C167.115829,498.366791 166.969482,500.025940 166.689713,501.662567 
	C165.258789,510.033630 165.649078,510.769440 173.411865,513.998657 
	C183.654266,518.259338 189.636353,529.453796 187.442734,539.959839 
	C186.367264,545.110657 183.301514,548.692322 178.826584,550.950073 
	C176.300293,552.224792 174.709503,553.519897 173.763412,556.444946 
	C171.429413,563.660950 164.565887,568.243469 156.959854,568.358276 
	C152.294281,568.428711 147.601288,568.062866 142.965012,568.439453 
	C128.189941,569.639465 115.352188,557.177551 115.930679,540.456177 
	C116.565392,522.109558 119.411934,504.036194 124.188232,486.307434 
	C136.947693,438.946533 157.552368,395.080383 183.620926,353.680298 
	C186.725082,348.750488 190.158340,344.027222 193.463318,339.224915 
	C194.607361,337.562592 195.581055,335.892151 195.741394,333.781189 
	C196.106598,328.973267 194.847214,327.314484 189.953293,327.265717 
	C176.954620,327.136047 163.954407,327.155975 150.954773,327.134827 
	C143.288269,327.122345 135.621689,327.154907 127.955147,327.149872 
	C90.284172,327.125153 61.353806,298.672241 61.123085,260.885529 
	C60.907394,225.560303 61.248756,190.231995 61.248016,154.905045 
	C61.247627,136.240723 61.009174,117.576538 60.934471,98.912064 
	C60.828758,72.500801 75.529739,50.623909 99.922791,40.919819 
	C107.619873,37.857758 115.632843,36.704006 123.909126,37.382030 
	C126.064545,37.558613 128.236801,37.585686 130.401352,37.586521 
	C188.733749,37.609024 247.068085,37.904648 305.397766,37.512691 
	C335.224182,37.312267 365.051025,37.212898 394.877533,37.038399 
	C408.913544,36.956284 422.420563,38.834770 434.512207,46.767658 
	C442.763397,52.180946 449.038696,59.218140 454.192871,67.652214 
	C456.805328,71.927139 457.769501,76.738731 459.724426,81.155296 
	C462.746429,80.127426 461.291382,77.819687 462.072540,75.434135 
	C463.769409,78.603546 466.579956,80.416862 466.316376,83.661324 
	C466.024994,87.247307 460.922150,87.860809 460.692810,92.014664 
	C468.541595,93.888916 476.341949,95.055870 484.366058,95.759445 
	C491.689545,96.401588 499.090820,97.505119 506.398254,98.802979 
	C511.394836,99.690414 512.469177,98.329948 512.259583,93.484505 
	C511.550812,77.098618 501.552612,67.301918 488.668976,59.507870 
	C484.213287,56.812378 479.529175,54.494507 474.233795,51.615005 
	C478.057739,49.787033 480.956421,50.689545 483.735504,51.295319 
	C507.645447,56.507164 521.632751,73.806107 521.838623,100.513077 
	C522.271606,156.675217 522.451782,212.846741 521.902161,269.006256 
	C521.570312,302.915955 496.090179,327.055908 462.248657,327.210663 
	C441.582642,327.305176 420.915771,327.238251 400.250122,327.373566 
	C397.616333,327.390778 394.056396,325.921661 392.629974,329.312225 
	C391.236542,332.624390 391.799469,336.120300 393.919159,339.305542 
	C398.349731,345.963470 402.594360,352.744843 406.991211,359.425568 
	C414.699951,371.138550 421.058563,383.606323 427.746796,396.316742 
M115.784668,303.085510 
	C117.926804,303.306244 120.071556,303.741333 122.210686,303.715271 
	C149.857864,303.378296 177.510330,303.378326 205.155411,303.279816 
	C267.281281,303.058441 329.425079,301.938049 391.534149,303.810486 
	C423.214905,304.765564 441.212616,281.711304 441.463654,258.617249 
	C442.048431,204.813446 441.818604,150.997955 441.531281,97.189270 
	C441.448029,81.592682 435.321655,68.716614 420.950836,60.823456 
	C414.390381,57.220146 407.432739,55.336315 399.940186,55.336914 
	C306.813446,55.344360 213.686737,55.336205 120.560013,55.356007 
	C118.572937,55.356426 116.553574,55.463593 114.603844,55.819710 
	C92.847366,59.793530 79.398834,76.541954 79.357735,100.098801 
	C79.264725,153.409058 79.269165,206.719604 79.330498,260.029938 
	C79.354301,280.717896 94.612015,298.875305 115.784668,303.085510 
M293.500000,491.027191 
	C287.167236,491.074982 280.832886,491.237793 274.502045,491.148834 
	C256.245117,490.892242 247.505310,505.773956 247.420807,519.032471 
	C247.156342,560.528931 247.320953,602.028076 247.188690,643.525757 
	C247.176376,647.387756 248.302475,648.764404 252.297546,648.744263 
	C280.128906,648.603699 307.961456,648.618652 335.793091,648.726501 
	C339.410400,648.740540 340.806946,647.667419 340.796356,643.900513 
	C340.677734,601.736328 340.822296,559.570862 340.585449,517.407593 
	C340.502380,502.616272 329.337769,491.741272 314.496033,491.207062 
	C307.837128,490.967407 301.165741,491.075684 293.500000,491.027191 
M280.702423,424.143341 
	C255.680023,423.844025 230.655472,424.894440 205.308350,423.633606 
	C204.896973,419.470093 200.824020,420.727112 198.145508,419.347412 
	C197.748917,420.053040 197.424789,420.443359 197.293747,420.890289 
	C194.286118,431.146851 195.804596,441.688690 195.447021,452.103363 
	C195.168228,460.223206 197.225235,462.014160 205.418152,462.021210 
	C236.550751,462.048004 267.683350,462.088898 298.815948,462.094727 
	C316.130188,462.097961 333.444458,462.026947 350.758698,462.024261 
	C355.139557,462.023590 358.901428,462.821411 358.396637,468.610229 
	C358.172791,471.177307 359.223907,472.780609 362.063965,472.773315 
	C364.980865,472.765808 365.854248,470.978027 365.618469,468.506104 
	C365.243652,464.577393 367.111328,462.641937 370.801971,461.979401 
	C373.373322,461.517761 375.307404,459.802460 375.406769,457.343872 
	C375.823120,447.038513 376.028748,436.709198 375.198181,426.419922 
	C375.015808,424.160583 373.408569,421.620483 370.477051,422.401245 
	C360.723236,424.998901 350.790680,424.640259 340.901917,424.353516 
	C326.552948,423.937439 312.205261,424.736877 297.850922,424.005890 
	C292.327271,423.724579 286.696442,423.075806 280.702423,424.143341 
M427.408875,473.165771 
	C429.797485,490.068359 432.485992,506.918213 432.848511,524.064697 
	C432.981079,530.332092 438.800568,532.926514 444.687683,530.092834 
	C446.928101,529.014343 449.062531,527.713867 451.232452,526.491821 
	C452.065460,526.022766 452.562866,524.900391 453.765259,525.159241 
	C457.678711,526.001526 457.956848,523.611328 457.578552,520.787476 
	C455.941010,508.564178 454.524689,496.318329 451.156616,484.375824 
	C449.737091,479.342529 448.510376,474.451263 443.999481,471.200714 
	C443.910919,471.842804 443.822327,472.484894 443.733765,473.126984 
	C441.603668,471.270874 438.344879,473.472137 436.104279,470.389618 
	C434.340393,467.962891 431.550446,464.851959 426.740509,467.257965 
	C429.914734,468.748108 428.423950,470.644470 427.408875,473.165771 
M156.390610,476.492828 
	C154.302246,472.997101 151.066025,470.828522 147.466721,469.294342 
	C144.715714,468.121857 141.507767,469.059235 140.871811,471.679138 
	C140.071930,474.974396 137.526260,477.086456 136.725693,480.362213 
	C135.191452,486.639801 133.330566,492.847443 132.357758,499.244415 
	C131.143448,507.229584 130.052917,515.238220 129.153076,523.264099 
	C128.825592,526.184998 129.414917,529.528503 133.244705,529.356689 
	C138.049225,529.141296 142.897293,528.385254 147.569153,527.227417 
	C150.976959,526.382751 153.795807,524.158020 153.536758,519.986389 
	C153.094742,512.868591 154.449188,505.822662 155.961273,499.081055 
	C157.709427,491.287018 154.594910,483.164520 158.334213,475.718445 
	C158.353287,475.680481 157.884796,475.397614 157.582993,475.186462 
	C157.308075,475.588470 157.035080,475.987701 156.390610,476.492828 
M345.670410,474.893799 
	C343.244324,473.732086 341.851196,474.714050 341.566101,477.158844 
	C341.387390,478.691193 342.514496,479.665344 344.008392,479.540466 
	C346.735168,479.312500 347.107819,477.640533 345.670410,474.893799 
M152.394196,463.906982 
	C151.115570,463.759979 150.138840,462.338684 148.660187,463.028320 
	C147.820312,463.419983 147.293045,464.042328 147.509857,464.988861 
	C147.830032,466.386597 149.001862,467.141602 150.022415,467.979492 
	C150.179047,468.108063 150.532028,467.997406 150.805573,467.997406 
	C150.594131,466.748047 148.630783,466.231934 149.462692,464.588226 
	C152.030655,465.855591 152.030655,465.855591 154.747635,465.767609 
	C154.066910,465.245514 153.425018,464.753204 152.394196,463.906982 
z"/>
<path fill="#000000" opacity="1.000000" stroke="none" 
	d="
M466.018890,658.240540 
	C462.372955,658.213806 459.207581,658.352600 456.072113,658.107910 
	C453.432556,657.901794 450.984406,656.734436 450.947815,653.694763 
	C450.910187,650.567017 453.014923,648.808777 456.067810,648.759644 
	C463.533600,648.639526 471.003693,648.642700 478.469696,648.753723 
	C481.333435,648.796326 483.179108,650.412415 483.228302,653.411133 
	C483.279327,656.519653 481.203491,657.902893 478.455261,658.062378 
	C474.484253,658.292786 470.494263,658.196655 466.018890,658.240540 
z"/>
<path fill="#000000" opacity="1.000000" stroke="none" 
	d="
M109.947754,656.722595 
	C109.295067,657.325745 108.937767,657.706177 108.499771,657.925049 
	C105.353165,659.497314 102.611008,658.879578 100.618484,656.031067 
	C99.229057,654.044861 99.432037,651.842224 101.130302,650.074951 
	C103.295380,647.822021 106.044746,647.923889 108.498894,649.266541 
	C111.452148,650.882263 112.144066,653.439880 109.947754,656.722595 
z"/>
<path fill="#000000" opacity="1.000000" stroke="none" 
	d="
M59.828552,649.129578 
	C61.900585,650.706238 63.349262,652.256165 62.497375,654.740967 
	C61.577145,657.425171 59.625946,658.963074 56.837303,658.250061 
	C53.435467,657.380066 52.898735,654.119629 53.365032,651.496277 
	C53.925201,648.344788 56.565258,647.659424 59.828552,649.129578 
z"/>
<path fill="#000000" opacity="1.000000" stroke="none" 
	d="
M529.062805,656.779907 
	C526.280334,659.165588 523.684082,659.379700 521.394409,656.853394 
	C519.629883,654.906555 519.638000,652.596008 521.245911,650.511719 
	C522.913025,648.350769 525.253845,648.139771 527.466125,649.338928 
	C530.455505,650.959290 530.949585,653.508423 529.062805,656.779907 
z"/>
<path fill="#000000" opacity="1.000000" stroke="none" 
	d="
M505.125854,654.741455 
	C504.468475,656.402039 503.631744,657.500305 502.337494,657.919495 
	C499.250153,658.919556 496.604156,658.248413 495.573853,654.917603 
	C494.660370,651.964478 495.828796,649.433411 498.962524,648.880066 
	C502.927887,648.179993 505.344360,649.978271 505.125854,654.741455 
z"/>
<path fill="#000000" opacity="1.000000" stroke="none" 
	d="
M336.485657,133.302399 
	C373.733429,116.406090 411.884460,138.848450 419.672546,174.286682 
	C423.974518,193.862274 420.794800,212.088013 407.497955,227.611191 
	C404.408478,231.217941 403.059784,236.073746 398.145752,238.567505 
	C392.432983,241.466629 386.654755,244.061310 380.672699,246.267410 
	C368.406372,250.791077 356.259125,250.317566 343.685669,246.808655 
	C339.030609,245.509537 335.764587,242.451294 331.714325,240.856476 
	C330.225037,241.506027 332.511566,242.253998 331.082794,242.975800 
	C328.408661,242.338593 325.802094,241.631699 325.365967,237.774323 
	C325.142303,235.795837 323.148529,234.566498 321.784729,233.105255 
	C309.343964,219.775620 302.029694,204.153625 302.989899,185.741013 
	C304.210632,162.332840 315.588074,144.865692 336.485657,133.302399 
M373.202484,140.835373 
	C370.336121,140.456696 368.049988,141.490829 367.535522,144.368591 
	C366.994659,147.394058 369.684479,148.098648 371.872009,148.921280 
	C372.806061,149.272537 373.786713,149.503799 374.710602,149.877625 
	C385.219543,154.129654 393.390991,160.679993 396.695740,172.094147 
	C397.103027,173.500839 397.802429,174.916626 398.704041,176.062592 
	C399.810822,177.469330 401.180939,179.048416 403.312775,178.047699 
	C405.162079,177.179642 405.884735,175.461212 405.670532,173.476074 
	C405.529633,172.170105 405.214722,170.861832 404.810364,169.608597 
	C399.869019,154.292831 388.810394,145.580780 373.202484,140.835373 
z"/>
<path fill="#000000" opacity="1.000000" stroke="none" 
	d="
M115.448776,142.412354 
	C152.758621,110.673912 202.804245,134.109848 210.849609,175.515930 
	C215.095337,197.366989 209.352982,216.335815 194.170197,232.456924 
	C191.612183,235.173050 189.540939,237.905579 188.323730,241.525131 
	C186.479614,247.009018 183.552246,247.382034 178.245560,245.613281 
	C175.536972,244.710480 171.674210,245.995193 168.760757,247.269150 
	C163.897842,249.395584 158.108170,250.625397 153.761337,250.252594 
	C140.512939,249.116348 127.067337,246.276367 116.882957,236.632584 
	C102.938416,223.428207 94.209152,207.401993 94.838699,187.659729 
	C95.401497,170.010254 101.553398,154.553680 115.448776,142.412354 
M195.088684,178.230270 
	C198.754257,176.459213 198.160721,173.502579 197.127518,170.537033 
	C192.143753,156.232605 182.607620,146.552811 168.024170,142.026871 
	C165.653687,141.291229 163.408615,140.120956 160.809814,140.267471 
	C158.552582,140.394745 156.904556,141.341812 156.503067,143.637619 
	C156.129807,145.771957 157.483658,147.089401 159.260117,147.891739 
	C160.303040,148.362808 161.476700,148.551849 162.599060,148.838394 
	C175.422287,152.112091 184.643616,159.292648 188.616730,172.406006 
	C189.470459,175.223801 190.637924,178.201309 195.088684,178.230270 
z"/>
<path fill="#000000" opacity="1.000000" stroke="none" 
	d="
M285.795410,237.688354 
	C293.913116,237.889175 298.204773,241.163895 298.208832,246.800385 
	C298.213074,252.676804 293.028229,257.098389 285.893738,257.114868 
	C267.245941,257.157959 248.597961,257.121674 229.950104,257.143890 
	C227.587265,257.146729 225.281631,256.909515 223.130905,255.906052 
	C219.144058,254.045883 216.363419,249.135895 217.085327,245.356415 
	C217.906891,241.055222 221.468338,238.091782 226.384262,237.742737 
	C228.207077,237.613327 230.045593,237.697464 231.876953,237.696991 
	C249.692398,237.692444 267.507843,237.690613 285.795410,237.688354 
z"/>
<path fill="#000000" opacity="1.000000" stroke="none" 
	d="
M366.318542,90.434669 
	C366.337616,95.880501 366.348938,100.871124 366.347107,105.861748 
	C366.346344,107.961746 366.191162,109.991112 363.382599,110.130203 
	C360.471680,110.274361 359.588928,108.493462 359.698853,105.998154 
	C359.893494,101.578529 357.177979,101.732658 354.263458,102.154755 
	C352.970032,103.595482 353.397125,105.168915 353.339783,106.618103 
	C353.257019,108.710136 352.604095,110.153038 350.230438,110.293884 
	C348.045227,110.423553 346.666931,109.507286 346.367981,107.333145 
	C345.549255,101.379578 345.678497,95.389175 345.997864,89.415138 
	C346.097870,87.544388 347.461761,86.503174 349.444153,86.550987 
	C351.892883,86.610054 352.977264,87.996017 353.221497,90.315300 
	C353.401184,92.021561 352.827057,94.210678 355.566864,94.521233 
	C358.836121,94.891800 358.886841,92.659927 359.008331,90.377022 
	C359.126312,88.160378 360.055573,86.414253 362.530914,86.337006 
	C364.888336,86.263443 366.253265,87.515076 366.318542,90.434669 
z"/>
<path fill="#000000" opacity="1.000000" stroke="none" 
	d="
M163.519531,88.254562 
	C166.005066,90.471664 166.957794,93.082970 166.244354,95.725342 
	C165.208893,99.560295 163.906708,103.171638 165.703262,107.172447 
	C166.336929,108.583618 165.006287,109.612602 163.609360,110.005661 
	C161.884598,110.490959 160.181122,110.283165 159.183487,108.680588 
	C158.343811,107.331764 157.885208,105.745743 157.199402,104.126579 
	C155.613586,105.247231 156.113419,106.976692 155.404160,108.212303 
	C154.370621,110.012840 152.793457,110.029015 151.098129,109.798996 
	C149.559235,109.590218 148.749374,108.645889 148.745361,107.101479 
	C148.730316,101.299721 148.713425,95.497665 148.762375,89.696266 
	C148.776932,87.969261 149.747467,86.808350 151.515533,86.809341 
	C155.437912,86.811539 159.484207,85.779037 163.519531,88.254562 
z"/>
<path fill="#000000" opacity="1.000000" stroke="none" 
	d="
M373.365875,108.262215 
	C372.788025,102.101143 372.425323,96.305763 372.204163,90.504997 
	C372.098846,87.742577 373.503632,86.085419 376.381592,86.038475 
	C379.704376,85.984283 383.036255,85.895386 386.349548,86.081596 
	C388.175568,86.184212 389.444702,87.343414 389.358215,89.383492 
	C389.270233,91.459351 387.922272,92.222549 386.030090,92.310547 
	C384.124756,92.399162 382.219513,92.490265 380.206726,92.585350 
	C380.734192,95.520309 382.578369,94.847649 383.867218,94.923912 
	C386.187775,95.061226 387.779114,95.785004 387.675049,98.422752 
	C387.576477,100.920555 385.826111,101.201813 383.844635,101.309631 
	C382.616119,101.376472 381.146027,100.854195 379.954163,102.833847 
	C382.406830,103.011635 384.600342,103.085007 386.769531,103.354286 
	C388.586731,103.579872 389.980530,104.587959 389.981903,106.555023 
	C389.983093,108.265045 388.688049,109.413673 387.161072,109.621376 
	C382.608948,110.240555 377.965088,111.342506 373.365875,108.262215 
z"/>
<path fill="#000000" opacity="1.000000" stroke="none" 
	d="
M135.253723,106.954506 
	C134.229828,110.070267 132.058533,109.479950 130.208389,108.970238 
	C128.387421,108.468575 127.824608,106.778412 127.826530,105.004883 
	C127.831558,100.355118 127.808418,95.703079 127.947601,91.056465 
	C128.047882,87.708992 129.755905,85.784195 133.300018,85.973053 
	C136.113831,86.123009 138.926239,86.315704 141.734680,86.545372 
	C143.786377,86.713158 145.234787,87.584320 145.193619,89.927063 
	C145.149200,92.453041 143.288773,92.721046 141.411163,92.930191 
	C140.116455,93.074402 138.815979,93.166962 137.452332,93.288460 
	C137.612854,95.360756 139.161606,94.666260 140.055969,94.887810 
	C141.939438,95.354385 142.251175,96.638329 142.258774,98.259399 
	C142.267197,100.055359 141.498215,101.249344 139.639725,101.110535 
	C135.449554,100.797546 135.106308,103.401489 135.253723,106.954506 
z"/>
<path fill="#000000" opacity="1.000000" stroke="none" 
	d="
M356.321106,446.030762 
	C359.543335,443.979828 362.093872,444.535400 363.826172,447.388702 
	C365.244629,449.725128 365.064148,452.200165 362.801514,454.074829 
	C360.764954,455.762207 358.418274,455.870514 356.475281,454.122711 
	C353.883545,451.791290 353.671844,449.035614 356.321106,446.030762 
z"/>
</svg>