<svg version="1.1" id="Layer_1" xmlns="http://www.w3.org/2000/svg" xmlns:xlink="http://www.w3.org/1999/xlink" x="0px" y="0px"
	 width="100%" viewBox="0 0 1024 1024" enable-background="new 0 0 1024 1024" xml:space="preserve">
<path fill="#000000" opacity="1.000000" stroke="none" 
	d="
M717.636841,636.251526 
	C715.943237,616.347656 712.452332,597.345947 704.144470,578.442017 
	C702.810913,589.974060 703.846313,600.542175 703.600525,611.083374 
	C703.183716,628.957153 704.732239,646.979553 699.138977,664.439636 
	C687.855774,699.661438 664.639832,721.766357 628.085388,729.172241 
	C623.052673,730.191895 617.902710,730.772034 612.777161,731.141296 
	C609.735596,731.360474 608.234802,732.159424 608.247375,735.504028 
	C608.345764,761.664246 608.355713,787.825012 608.315918,813.985413 
	C608.311584,816.838196 609.604431,817.579956 612.218994,817.861145 
	C626.881592,819.438416 638.072754,826.161987 644.004150,840.172180 
	C645.241272,843.094421 647.491638,842.750427 649.807556,842.756531 
	C668.461243,842.805603 687.114990,842.873535 705.768677,842.897522 
	C708.146057,842.900574 710.526367,842.954041 712.387024,844.580200 
	C714.508240,846.433899 716.877747,848.376160 715.742981,851.731873 
	C714.592163,855.135193 712.085388,856.692505 708.481262,856.660828 
	C700.167419,856.587769 691.852783,856.528137 683.538818,856.560181 
	C657.177063,856.661926 630.815491,856.904114 604.453857,856.907349 
	C582.616333,856.910034 560.770203,856.211975 538.944031,856.642883 
	C520.497314,857.007080 502.068726,856.281921 483.617798,856.691956 
	C466.078064,857.081726 448.501099,856.971985 430.932281,856.529175 
	C413.034851,856.078064 395.109772,856.859192 377.201447,856.667542 
	C358.917877,856.471985 340.633331,857.377197 322.350769,856.469727 
	C318.376160,856.272400 314.362030,856.884583 310.386047,856.698181 
	C305.030365,856.447144 301.809692,853.792419 301.763519,850.142700 
	C301.710846,845.978027 305.269043,843.057617 310.815186,843.006897 
	C330.297760,842.828613 349.781219,842.649475 369.263947,842.683655 
	C372.418060,842.689209 373.812958,841.773376 375.151367,838.837463 
	C381.063812,825.867798 391.517883,818.983887 405.610748,817.923401 
	C409.514709,817.629639 410.728333,816.335449 410.709320,812.510864 
	C410.584961,787.515198 410.586639,762.518250 410.705048,737.522522 
	C410.725311,733.246033 409.654968,731.296326 404.849976,731.156555 
	C357.740082,729.786011 326.384003,698.291748 317.759949,655.419373 
	C314.147980,637.463318 316.177155,619.214905 315.781494,601.096069 
	C315.614349,593.441711 315.753632,585.780579 315.307190,578.002319 
	C311.009033,587.399292 307.711456,597.123047 305.380096,607.161438 
	C301.170044,625.289429 301.415375,643.819580 300.608826,662.251465 
	C300.491089,664.942078 301.765808,666.920776 303.528015,668.873840 
	C307.237366,672.984924 310.179932,677.565674 311.503601,683.088074 
	C314.438690,695.333618 308.888000,701.625244 296.704224,699.568054 
	C295.952606,702.096069 296.351807,704.799561 295.376587,707.347778 
	C292.320648,715.333435 283.913696,719.412781 275.858521,716.488953 
	C266.283783,713.013367 261.479462,705.286743 259.123535,696.101624 
	C255.425339,681.683472 254.380875,667.035889 255.377335,652.065857 
	C256.521271,634.880249 259.084137,618.047852 263.590820,601.452942 
	C271.606934,571.935303 284.355713,544.602112 301.240143,519.151672 
	C302.897034,516.654175 304.247589,513.850952 306.304840,511.739655 
	C314.606384,503.220123 315.597595,492.863617 315.342285,481.648010 
	C314.922211,463.195770 315.416565,444.723755 315.446686,426.259949 
	C315.484436,403.124237 315.318573,379.984985 315.277283,356.854858 
	C315.238678,335.219238 314.316681,313.489563 315.916748,291.927185 
	C318.155914,261.752411 334.492584,240.644257 361.557373,227.675034 
	C368.361450,224.414597 368.264587,224.625946 366.412415,217.397568 
	C360.654480,194.926620 362.710510,173.391647 375.561981,153.704086 
	C384.318420,140.289886 400.831146,136.743729 412.305237,147.480743 
	C439.762970,173.174850 474.034393,180.439117 509.134003,185.586472 
	C539.039490,189.972137 569.159851,192.873886 599.123962,196.889267 
	C608.981140,198.210190 618.784363,200.555573 627.637451,205.528473 
	C633.464478,208.801605 638.130432,213.278732 640.269836,219.769714 
	C641.249512,222.742081 643.633301,223.177109 645.952209,223.979126 
	C661.311829,229.291214 675.121216,237.005753 685.741089,249.654861 
	C699.096558,265.562164 704.569275,283.762543 703.886719,304.613922 
	C703.442017,318.200378 704.050415,331.895203 704.059753,345.539032 
	C704.072571,364.332306 703.628296,383.125702 703.617615,401.919189 
	C703.604492,424.838928 703.845642,447.758820 703.960754,470.678711 
	C704.001648,478.823029 704.334656,486.987793 703.852905,495.102753 
	C703.644897,498.607544 704.575439,501.162476 706.423462,503.827789 
	C718.198914,520.810974 729.643799,538.002930 738.524841,556.739746 
	C750.657715,582.336975 758.752258,609.151184 762.301819,637.269836 
	C764.731323,656.515137 764.968933,675.748352 760.254089,694.738403 
	C758.680115,701.078125 756.153870,707.056213 751.216736,711.697693 
	C746.112122,716.496765 740.028748,718.205078 733.242493,717.174438 
	C726.140137,716.095703 722.275391,709.853943 721.666138,698.683105 
	C717.285034,701.453857 712.894958,701.473572 709.206238,697.997192 
	C705.314636,694.329651 705.090149,689.476074 706.161133,684.521790 
	C707.426453,678.668701 709.969971,673.453613 714.617188,669.575134 
	C717.350525,667.293945 718.075073,664.601379 717.973572,661.211731 
	C717.729370,653.053406 717.739990,644.887573 717.636841,636.251526 
M335.853668,293.326752 
	C330.391174,304.913147 327.367371,317.058197 327.268097,329.916748 
	C326.882446,379.855225 327.564423,429.794769 326.560364,479.736145 
	C325.888641,513.148193 326.282501,546.582214 326.257874,580.006409 
	C326.252228,587.651672 326.362610,587.733765 334.182281,587.745056 
	C352.170319,587.770996 370.158478,587.682190 388.146606,587.688904 
	C415.802856,587.699280 443.459290,587.807678 471.115234,587.727417 
	C475.606720,587.714417 477.542328,589.390564 477.378357,593.900513 
	C477.202911,598.726440 477.304962,603.563721 477.340149,608.395630 
	C477.443848,622.638733 487.146301,635.221130 500.555786,638.542847 
	C515.642944,642.280151 528.924255,636.621277 536.508301,623.743713 
	C541.898499,614.591125 541.219666,604.554932 541.465149,594.672729 
	C541.633240,587.903564 541.398132,587.716003 548.306641,587.708435 
	C570.133789,587.684509 591.960938,587.687073 613.788086,587.684937 
	C637.612427,587.682556 661.436768,587.699097 685.261108,587.679565 
	C692.411804,587.673767 692.710266,587.330017 692.711914,579.939270 
	C692.712891,575.608032 692.670471,571.276855 692.663879,566.945618 
	C692.613098,533.678528 692.547668,500.411407 692.524597,467.144287 
	C692.508240,443.627319 692.696716,420.109222 692.527100,396.593536 
	C692.349609,371.980621 693.792358,347.331970 691.630676,322.760223 
	C688.617310,288.506775 662.814026,259.250183 629.405945,251.629959 
	C624.796997,250.578690 620.866821,250.939941 616.926575,254.095444 
	C612.266357,257.827576 607.248779,261.250916 601.995544,264.083710 
	C552.770020,290.628113 500.276642,302.804321 444.341675,299.177307 
	C435.547607,298.607056 426.829956,296.991913 418.655273,293.360535 
	C415.901489,292.137268 413.120880,290.844666 411.612885,288.037842 
	C410.174530,285.360687 409.281097,282.610138 410.406067,279.438690 
	C411.487976,276.388550 414.366486,275.493317 417.247131,273.898804 
	C405.816254,268.860809 395.391541,263.661713 387.301117,254.870178 
	C385.431427,252.838440 383.485535,253.568253 381.356445,254.234528 
	C360.849792,260.651672 346.147888,273.855560 335.853668,293.326752 
M530.531189,842.637878 
	C541.342773,842.617249 552.160828,842.374268 562.962830,842.685608 
	C567.273193,842.809875 568.594788,841.258789 568.517883,837.282104 
	C568.376343,829.969543 568.428345,822.652710 568.443848,815.337708 
	C568.500000,788.861694 568.543579,762.385498 568.679749,735.909851 
	C568.697510,732.460693 567.307617,731.121399 563.915527,731.224121 
	C554.956299,731.495544 546.004272,730.951660 537.030579,731.055298 
	C510.126984,731.365967 483.215485,731.141785 456.308899,730.909241 
	C451.463043,730.867432 450.071838,732.576233 450.102539,737.319336 
	C450.316833,770.454895 450.384705,803.592651 450.211853,836.728210 
	C450.185638,841.752930 451.975433,842.812866 456.552094,842.775696 
	C480.956116,842.577087 505.362305,842.648560 530.531189,842.637878 
z"/>
<path fill="#000000" opacity="1.000000" stroke="none" 
	d="
M270.052765,850.067505 
	C270.799988,847.313599 272.127716,845.381836 274.631592,844.895752 
	C278.355347,844.172852 281.667969,844.995605 283.291504,848.834778 
	C284.478973,851.642822 283.599152,854.463196 280.985474,855.673645 
	C277.754242,857.170044 274.143463,857.223267 271.533264,854.035278 
	C270.744568,853.071960 270.501190,851.662109 270.052765,850.067505 
z"/>
<path fill="#000000" opacity="1.000000" stroke="none" 
	d="
M739.271729,856.899353 
	C734.780151,855.813354 732.937866,853.049011 734.022766,849.102966 
	C734.972229,845.649536 737.952515,844.311829 741.439453,844.760925 
	C744.774597,845.190430 747.203308,847.320007 747.030884,850.617126 
	C746.812073,854.802917 743.923279,856.937805 739.271729,856.899353 
z"/>
<path fill="#000000" opacity="1.000000" stroke="none" 
	d="
M412.586212,484.710327 
	C393.036072,479.300781 378.634125,468.681549 372.383484,448.992615 
	C370.847870,444.155457 370.518860,439.196167 371.796143,434.222229 
	C372.735077,430.565826 374.254089,427.347748 378.048309,425.726349 
	C383.518494,423.388763 388.360687,426.341614 388.415253,432.269165 
	C388.431763,434.063049 387.922028,435.870300 387.580383,437.657471 
	C386.074402,445.534973 391.396240,452.030151 399.433624,452.830566 
	C409.121704,453.795319 416.889160,449.993622 424.188019,444.242035 
	C433.994537,436.514313 442.911652,427.640106 453.607300,421.063507 
	C463.304382,415.101013 473.921082,411.999298 485.307373,411.724731 
	C495.688293,411.474487 503.574158,415.854492 509.033600,425.238495 
	C510.961029,422.796021 512.524170,420.266724 514.604004,418.277740 
	C522.242859,410.972626 531.671631,410.746002 541.298645,412.242554 
	C559.559692,415.081329 573.640076,425.633179 587.029541,437.414734 
	C591.531128,441.375763 596.201782,445.123993 601.314392,448.317474 
	C607.053040,451.902039 613.206665,453.271271 619.915710,452.697845 
	C627.512573,452.048553 631.781677,447.581696 631.714722,439.980042 
	C631.700195,438.328552 631.424500,436.671143 631.171692,435.031464 
	C630.344055,429.662079 631.868896,426.331116 635.700562,425.262360 
	C639.676514,424.153351 644.251526,426.705505 645.936462,431.266357 
	C647.891113,436.557465 648.026428,442.039032 646.703796,447.494720 
	C642.122375,466.391907 629.248413,477.693085 611.507874,483.015686 
	C582.436951,491.737701 554.607117,488.671936 528.950745,471.369385 
	C522.005615,466.685608 516.595154,460.788025 512.837708,453.328857 
	C511.890045,451.447662 511.265869,449.321503 509.114410,447.906494 
	C508.486298,448.631622 507.784180,449.149323 507.474518,449.842346 
	C499.121307,468.536926 482.727417,477.095673 464.702057,483.198303 
	C447.729553,488.944489 430.359650,488.739349 412.586212,484.710327 
z"/>
<path fill="#000000" opacity="1.000000" stroke="none" 
	d="
M424.808136,414.713928 
	C409.155914,414.376770 397.478607,407.919434 390.143280,394.377716 
	C377.582397,371.189240 393.749847,340.969788 421.728119,339.519989 
	C441.246307,338.508575 456.755341,352.200134 460.315582,367.133850 
	C465.733551,389.860229 450.945770,411.313751 427.701660,414.357422 
	C426.875763,414.465515 426.050293,414.577148 424.808136,414.713928 
M431.985535,363.507263 
	C434.453278,365.476929 436.924866,367.441803 439.387512,369.417786 
	C441.280457,370.936646 443.350983,371.317139 445.335815,369.834717 
	C447.203705,368.439636 447.883148,366.443512 447.325043,364.078003 
	C446.298981,359.728790 443.362488,356.871002 439.857635,354.482941 
	C436.632446,352.285431 433.157623,350.852020 429.979462,354.272156 
	C426.897095,357.589203 429.348999,360.359650 431.985535,363.507263 
z"/>
<path fill="#000000" opacity="1.000000" stroke="none" 
	d="
M613.593384,409.811188 
	C589.463318,422.292480 562.514648,407.996094 558.338196,382.669678 
	C555.144348,363.301910 568.368164,341.800049 592.191650,339.854401 
	C614.792603,338.008636 631.098206,351.731384 632.890320,374.268829 
	C634.091309,389.372589 627.500061,401.729248 613.593384,409.811188 
M614.272156,356.204346 
	C613.304077,355.571106 612.376404,354.862518 611.360413,354.318726 
	C608.300110,352.680634 605.073242,351.384338 602.482239,354.863190 
	C600.030396,358.155182 601.424866,361.356049 603.970032,363.768188 
	C606.829590,366.478210 610.059326,368.830414 613.301025,371.090118 
	C614.862366,372.178467 616.864014,372.148743 618.392151,370.765533 
	C619.919189,369.383301 620.877563,367.670898 620.177429,365.454834 
	C619.111816,362.082428 617.587585,358.997375 614.272156,356.204346 
z"/>
<path fill="#000000" opacity="1.000000" stroke="none" 
	d="
M492.220123,608.064331 
	C493.685974,597.328491 499.695282,591.075806 508.562958,590.692200 
	C516.835754,590.334229 524.236389,596.078735 526.351746,604.500061 
	C528.391174,612.619263 524.619385,620.014709 516.438721,623.937134 
	C509.614929,627.208923 500.458130,624.838257 495.930817,618.581421 
	C493.750244,615.567932 492.336243,612.243103 492.220123,608.064331 
z"/>
<path fill="#000000" opacity="1.000000" stroke="none" 
	d="
M496.122986,491.026794 
	C493.322388,490.899506 490.946289,491.038635 488.696960,490.569763 
	C485.924377,489.991882 483.868713,488.305328 483.596222,485.193939 
	C483.330688,482.162262 484.777527,480.032227 487.446869,478.825836 
	C488.782043,478.222382 490.290497,477.778870 491.744873,477.697723 
	C503.539185,477.039673 515.341431,476.852570 527.140442,477.592621 
	C531.477295,477.864655 534.999268,481.010223 534.731995,484.639252 
	C534.394165,489.226349 531.130493,490.775726 527.083984,490.833923 
	C516.925110,490.980011 506.763947,490.970612 496.122986,491.026794 
z"/>
</svg>