<svg version="1.1" id="Layer_1" xmlns="http://www.w3.org/2000/svg" xmlns:xlink="http://www.w3.org/1999/xlink" x="0px" y="0px"
	 width="100%" viewBox="0 0 752 880" enable-background="new 0 0 752 880" xml:space="preserve">
<path fill="#000000" opacity="1.000000" stroke="none" 
	d="
M605.305542,561.856873 
	C609.492432,574.348083 613.454590,586.488892 615.818970,599.098083 
	C618.491272,613.349915 619.681458,627.700500 619.454773,642.202026 
	C619.283142,653.183044 619.420654,664.169250 619.466003,675.153015 
	C619.477051,677.831604 618.960510,680.136780 616.206970,681.307373 
	C614.288269,682.123047 614.416687,683.868591 614.209534,685.526672 
	C613.343872,692.455627 612.786926,699.450684 611.426880,706.284119 
	C609.270447,717.118713 604.570435,720.144592 593.870972,717.922852 
	C590.902039,717.306396 590.419128,719.282288 589.526245,720.899414 
	C587.027344,725.425659 583.913635,729.102234 578.619263,730.477478 
	C574.368835,731.581421 570.725037,730.813477 567.645386,727.636963 
	C564.663330,724.560974 564.915405,720.853210 566.214844,717.345703 
	C567.946167,712.672485 570.233643,708.206848 572.211548,703.621582 
	C572.512085,702.924927 572.431274,702.063782 572.521973,701.318542 
	C566.805054,699.776062 565.119690,700.700134 564.378906,705.906067 
	C563.972778,708.759949 563.341309,711.472961 561.670654,713.854492 
	C558.657471,718.149658 553.625366,720.186157 549.049622,718.996948 
	C544.242126,717.747375 541.120483,713.960388 540.663147,708.437866 
	C540.278687,703.794800 539.653870,699.091492 540.012939,694.483276 
	C540.832153,683.969360 534.819580,674.383362 537.142578,663.752014 
	C536.671509,663.746033 536.200500,663.740051 535.729492,663.734131 
	C535.144775,666.412109 534.585754,669.095947 533.970642,671.766968 
	C531.662598,681.789124 527.281128,690.927917 521.696289,699.470642 
	C519.938660,702.159119 519.261780,704.804871 519.380127,707.906616 
	C519.841492,720.002747 520.247803,732.082947 519.604736,744.209534 
	C519.166077,752.480896 518.410095,761.194641 520.455322,769.015137 
	C522.696045,777.583130 521.988892,785.994263 522.744507,794.452820 
	C523.044678,797.813293 522.802307,801.019714 519.858276,803.508240 
	C516.717102,806.163269 519.514465,810.312439 517.443909,813.935181 
	C509.736664,810.690369 501.682220,808.076233 493.231964,807.589050 
	C484.940308,807.111023 476.806305,808.260010 469.029663,811.740845 
	C469.927368,813.573181 470.998505,813.447327 472.212891,813.202637 
	C473.169586,813.009888 474.883698,812.711121 475.052368,813.054016 
	C477.455750,817.941406 484.120789,815.190857 486.677795,819.640869 
	C486.832428,819.909973 487.192841,820.257935 487.442688,820.246399 
	C495.439728,819.878906 502.517609,826.171875 510.252136,824.346558 
	C514.292297,823.393188 518.630859,824.593323 522.382080,822.259399 
	C524.266724,821.086975 525.933655,822.160950 527.218079,823.627930 
	C529.396790,826.116028 531.882996,828.413513 532.665039,831.840637 
	C533.562012,835.771240 536.006958,837.158447 539.988098,836.734558 
	C542.952881,836.418762 545.981201,836.664001 548.980225,836.718262 
	C550.968323,836.754211 552.840942,837.326538 552.778687,839.696594 
	C552.721252,841.885193 550.712280,842.177612 549.071777,842.213379 
	C542.909851,842.347595 536.744568,842.344727 530.580444,842.360901 
	C502.612091,842.434387 474.643738,842.559875 446.675415,842.547485 
	C409.218994,842.530823 371.762634,842.365417 334.306213,842.335144 
	C290.057648,842.299316 245.808990,842.341370 201.560379,842.340820 
	C199.394928,842.340759 197.228699,842.278442 195.064301,842.202759 
	C193.433334,842.145813 192.007156,841.653931 191.937317,839.722839 
	C191.860077,837.587463 193.286835,836.802429 195.156998,836.751587 
	C199.321060,836.638428 203.490845,836.473633 207.651871,836.580261 
	C212.487732,836.704346 215.697189,835.384277 217.186279,830.061951 
	C218.800110,824.293701 223.336700,820.271851 227.881775,816.535339 
	C231.843597,813.278198 233.274658,808.448669 230.613647,804.356079 
	C227.959503,800.273987 228.060699,795.977112 227.754547,791.463135 
	C226.817291,777.643921 231.788040,764.399414 230.931625,750.489624 
	C230.001953,735.390259 230.712555,720.188965 230.745468,705.032227 
	C230.750000,702.941284 230.132492,701.069397 229.027740,699.380188 
	C221.329758,687.609741 216.886658,674.639160 214.681107,660.828552 
	C214.552231,660.021484 214.344894,659.217590 214.071350,658.448792 
	C213.990891,658.222717 213.556442,658.122620 213.307404,657.978271 
	C212.454636,658.030396 212.007599,658.677063 212.048019,659.289917 
	C212.691498,669.048889 211.952423,678.672119 210.408630,688.351379 
	C209.501709,694.037598 210.328888,699.991211 210.264008,705.823303 
	C210.177475,713.599243 205.651764,718.940247 199.033356,719.235413 
	C192.487656,719.527283 187.823059,715.043091 186.680618,707.360168 
	C185.532608,699.639832 185.044266,699.276733 178.417999,701.456238 
	C179.362259,706.717651 181.813828,711.456909 183.967850,716.263245 
	C185.676758,720.076477 186.297165,723.609619 183.178177,726.891418 
	C179.846390,730.397095 175.742935,731.930298 170.952820,730.798645 
	C166.004959,729.629761 162.840118,726.245667 161.087402,721.666260 
	C159.782730,718.257446 158.174088,717.146240 154.379745,718.438110 
	C148.271255,720.517883 143.183731,717.403870 140.554840,710.445374 
	C138.063705,703.851562 137.372452,696.876587 136.669220,689.923889 
	C136.302063,686.294067 136.225128,682.659180 132.584045,680.290161 
	C130.814972,679.139099 130.659729,676.929749 130.664841,674.852112 
	C130.724167,650.713257 129.772949,626.507690 133.760834,602.566956 
	C137.379852,580.840759 143.827042,559.944214 152.642044,539.698853 
	C162.069702,518.046387 174.831726,498.476959 188.592850,479.474243 
	C194.063995,471.919128 200.315903,464.959045 206.895554,458.374725 
	C210.352509,454.915283 212.344330,451.424377 211.695190,446.506409 
	C211.479736,444.874115 211.981583,443.141022 211.727844,441.520996 
	C210.830902,435.794281 213.944305,432.452087 218.346970,429.768433 
	C219.609741,428.998688 221.121948,428.559814 221.929047,427.158325 
	C222.288666,425.965729 221.500275,425.270355 220.759369,424.616272 
	C204.856415,410.577301 191.944199,394.161011 181.899979,375.501831 
	C180.473953,372.852722 178.757736,372.117889 175.848785,372.588593 
	C152.755875,376.325165 131.713776,370.809998 114.454323,355.407196 
	C94.272186,337.396027 85.121750,308.502838 99.326439,282.026276 
	C106.230194,269.158112 117.856743,262.783508 131.523026,259.786987 
	C141.391571,257.623230 151.036728,259.133057 160.259644,263.278809 
	C161.141113,263.675049 162.130997,263.830139 163.050232,264.091431 
	C165.531036,261.660675 164.454254,258.572693 165.060226,255.914017 
	C180.404648,188.590057 221.415848,143.467209 284.655151,117.592468 
	C291.090179,114.959518 291.131470,115.194466 289.629120,108.249176 
	C289.139832,105.987389 288.775970,103.657448 288.721466,101.349998 
	C288.522522,92.934067 292.113037,90.214661 300.704407,92.078896 
	C309.768982,94.045799 318.188690,97.478462 325.554047,103.202553 
	C327.874481,105.005920 330.037903,106.665001 333.190796,105.109329 
	C336.361542,103.544838 335.613892,100.679688 335.653687,98.109184 
	C335.758026,91.371231 336.939148,84.916031 339.802551,78.740768 
	C341.338684,75.427887 343.469635,74.631371 346.572540,76.181038 
	C358.124146,81.950256 367.123169,90.820747 375.704041,100.208092 
	C377.108582,101.744629 376.503784,103.653984 377.129517,105.855339 
	C382.615814,105.445145 387.544861,108.860634 393.477631,108.068420 
	C394.772705,107.895477 398.669952,106.922028 400.891998,110.209885 
	C401.591644,111.245148 406.186981,114.237488 409.863495,112.164185 
	C410.526733,111.790161 412.255127,112.065002 412.631287,112.621704 
	C415.207214,116.434174 419.919189,115.476448 423.189941,117.600113 
	C425.982574,119.413322 428.562256,121.191956 432.335297,120.682823 
	C437.599182,119.972511 441.960449,123.237335 446.591217,125.069450 
	C449.227234,126.112366 451.832764,125.528732 454.431122,125.873520 
	C455.861023,126.063240 457.462585,125.332458 458.641876,126.733772 
	C463.992950,133.092331 472.481537,134.911621 478.428070,140.417175 
	C481.741333,143.484726 485.028656,146.651306 490.034119,146.526337 
	C490.762878,152.716965 498.356964,150.142136 500.654846,155.099655 
	C502.840302,159.814697 508.719940,161.074295 512.723450,164.215012 
	C516.009949,166.793289 518.683350,171.046600 523.349609,170.542999 
	C524.716553,172.800797 522.667175,172.813370 522.246277,173.571960 
	C525.896667,177.595490 529.564087,181.429214 532.954895,185.493698 
	C534.069031,186.829147 535.294006,187.819901 536.732239,188.637512 
	C537.596558,189.128845 539.021423,189.227295 539.381348,189.922958 
	C544.166443,199.172180 555.135986,202.268539 560.317078,211.080521 
	C560.483093,211.362869 560.685120,211.680725 560.954468,211.837494 
	C575.832520,220.494766 578.192627,236.084015 582.287476,250.636017 
	C583.764099,255.883698 584.524902,261.332825 585.651489,266.883209 
	C589.066223,267.251892 592.071411,266.864899 595.133850,265.968964 
	C606.399780,262.673218 617.962097,263.874908 628.676575,267.001617 
	C643.276733,271.262268 651.844421,282.389709 655.460815,297.252106 
	C660.440308,317.716675 654.167664,334.934662 640.588806,350.148834 
	C622.775574,370.107239 599.815186,375.264893 574.381897,372.973663 
	C571.415405,372.706390 569.656677,373.200195 568.342163,375.829193 
	C559.428162,393.657562 546.565247,408.373505 532.055115,421.796967 
	C527.599182,425.919220 527.659607,425.984558 532.405457,429.832520 
	C538.363403,434.663269 538.117065,438.884125 531.870544,443.370148 
	C517.402588,453.760498 500.622589,458.829285 484.024445,464.296082 
	C461.795990,471.617310 438.808197,475.309265 415.697266,478.430969 
	C407.675964,479.514465 399.715637,481.049133 391.768494,482.905823 
	C396.014008,484.858337 400.391388,483.845184 404.607727,483.521729 
	C426.342560,481.854279 447.888397,478.780334 469.101257,473.684387 
	C483.325653,470.267242 497.460449,466.493286 511.026703,460.901764 
	C513.991699,459.679718 516.570496,458.828461 518.765686,462.391418 
	C520.377563,465.007568 523.414001,464.433075 526.099487,464.365753 
	C528.409119,468.197998 530.562683,472.105255 535.221680,473.527344 
	C536.326111,473.864502 537.297729,474.441956 537.097290,476.024841 
	C536.790955,478.444427 538.756042,479.202332 540.463928,479.427185 
	C546.842712,480.266907 546.855347,480.170959 547.824768,486.122620 
	C551.033691,485.637085 552.458374,487.329498 553.544861,490.399658 
	C555.638245,496.314758 559.574585,500.824677 565.860352,502.696808 
	C569.047607,503.646118 568.460754,507.355865 570.876343,509.240875 
	C572.246643,510.310181 573.482971,510.255585 575.125244,510.707916 
	C574.003357,514.534363 575.282166,517.230286 578.638000,518.920959 
	C578.927490,519.066772 579.189270,519.309998 579.401306,519.560913 
	C582.896667,523.697388 586.752258,527.589355 589.792297,532.038147 
	C596.069031,541.223816 602.192322,550.559875 605.305542,561.856873 
M272.423096,151.992691 
	C270.761261,152.760330 269.071106,153.472626 267.442963,154.306122 
	C262.842529,156.661194 257.415985,158.578949 254.865112,163.000504 
	C252.263031,167.510803 246.294403,167.754822 244.548080,172.744110 
	C244.346786,173.319214 242.907089,174.073242 242.481735,173.861237 
	C238.880951,172.066391 237.369385,175.077728 235.472107,176.857285 
	C224.059387,187.561966 214.809204,199.990372 207.900452,213.956940 
	C191.272263,247.572037 185.623047,283.206360 190.327042,320.312592 
	C195.773804,363.277985 219.080048,395.045197 254.932037,417.608429 
	C286.357300,437.385681 321.702759,445.686096 358.436310,447.495697 
	C393.452271,449.220734 428.045074,445.729675 461.201508,433.579041 
	C515.393250,413.719696 551.667786,378.101135 560.286804,318.756958 
	C562.747864,301.811462 562.148376,284.831573 560.112549,267.959442 
	C557.408386,245.548431 549.677734,224.719498 538.369629,205.213730 
	C518.643738,171.187759 490.219818,149.935760 450.470642,145.127563 
	C421.985992,141.681931 397.741150,149.396729 379.114594,171.909988 
	C376.129272,175.518234 374.485748,175.337311 371.539978,171.850693 
	C363.031921,161.780472 352.796204,153.730362 340.319366,149.223129 
	C317.671509,141.041656 295.210022,142.502060 272.423096,151.992691 
M396.620483,715.396423 
	C381.498199,715.402039 366.375916,715.389343 351.253693,715.421326 
	C344.330902,715.435974 344.070679,715.485718 344.336151,722.412170 
	C345.040771,740.796753 342.854095,759.177673 345.919678,777.632629 
	C347.330994,786.128967 346.746552,795.230957 344.561005,804.262085 
	C342.619415,812.285278 344.240265,821.148438 344.094879,829.637512 
	C344.018280,834.111023 345.896423,835.875427 350.377441,835.850769 
	C366.194427,835.763794 382.012695,835.947876 397.830383,835.932861 
	C406.219513,835.924866 406.917877,835.181885 406.598755,826.770935 
	C406.230011,817.052917 406.759949,807.460022 404.328613,797.649231 
	C402.021362,788.339233 404.724274,778.322815 405.488251,768.600281 
	C406.645813,753.869507 405.842194,738.980652 405.778351,724.159302 
	C405.743347,716.037842 405.619568,715.999023 396.620483,715.396423 
M388.017487,656.079834 
	C390.241669,658.534973 393.010254,659.272461 396.183960,658.594116 
	C397.996704,658.206604 399.799713,657.996887 401.632629,658.389343 
	C418.358459,661.970276 419.532013,655.752258 418.738892,643.108765 
	C418.477875,638.947754 419.097168,634.683411 417.785889,631.024658 
	C409.987274,634.362671 408.070770,640.885498 408.725311,649.499023 
	C403.681183,645.645691 399.455536,645.348816 395.070282,645.380981 
	C382.572906,645.472656 370.074158,645.448853 357.576385,645.386536 
	C351.576752,645.356628 349.734650,643.603455 349.690582,637.674438 
	C349.596436,625.010376 349.723602,612.344604 349.614197,599.680786 
	C349.578156,595.509460 351.217560,593.759460 355.493805,593.533203 
	C364.422302,593.060791 373.523560,593.331848 381.758820,588.725525 
	C383.801178,587.583130 386.376709,587.542175 388.635101,587.987488 
	C394.497437,589.143433 400.165588,588.853882 405.837677,586.961426 
	C408.217834,586.167236 409.920013,587.032959 410.751923,589.716614 
	C412.735687,596.116211 413.680145,602.576782 413.371033,609.306702 
	C413.205872,612.902283 412.013794,614.429443 408.321228,614.291443 
	C402.330994,614.067505 396.314850,613.880249 390.339691,614.214722 
	C387.711761,614.361755 382.890137,612.639832 382.897522,616.600037 
	C382.904633,620.364685 387.812103,619.534180 390.729370,619.735474 
	C396.204865,620.113342 401.719910,619.877808 407.208221,620.125793 
	C410.027100,620.253235 412.748077,620.580627 413.268402,624.548035 
	C413.545227,626.658875 415.619476,627.951416 418.350372,628.134888 
	C418.792908,621.426025 419.497437,614.991760 419.543640,608.552673 
	C419.574493,604.254456 421.461639,603.318420 425.114471,604.024231 
	C426.384460,604.269592 427.649384,604.541138 429.270905,604.873230 
	C427.517670,609.352417 431.097412,613.707092 428.851990,617.801086 
	C426.683716,621.754456 427.181976,625.829102 427.293335,629.968811 
	C427.405914,634.155334 429.708984,635.933838 433.661102,635.989746 
	C436.659607,636.032166 439.664429,635.917725 442.656647,636.067993 
	C473.092957,637.596313 503.549011,635.824097 533.988464,636.647400 
	C537.651489,636.746460 539.749939,635.137695 539.668945,631.357361 
	C539.490906,623.046936 539.734070,614.744751 539.281128,606.414551 
	C538.979248,600.862793 536.707886,600.335876 532.303406,600.347534 
	C497.975739,600.438721 463.647675,600.396545 429.319763,600.379272 
	C419.233124,600.374146 419.233093,600.350220 419.024841,590.402527 
	C418.867493,582.885071 415.509064,579.401184 407.973145,579.374878 
	C388.143127,579.305481 368.312408,579.294495 348.482544,579.386169 
	C339.855835,579.426086 336.041077,582.985168 335.996338,591.437256 
	C335.890503,611.420044 336.000641,631.404846 336.158661,651.387756 
	C336.204773,657.218262 339.058685,659.666260 345.002502,659.655334 
	C349.162506,659.647644 353.348633,659.980469 357.477417,659.627319 
	C367.113220,658.803101 377.669800,661.474304 385.071045,652.244568 
	C386.258972,653.631958 385.943695,655.361511 388.017487,656.079834 
M293.529694,600.339539 
	C288.308533,600.601929 282.948730,599.597961 277.105072,602.156982 
	C281.895294,608.056702 286.977631,613.184082 290.960754,619.177124 
	C294.416840,624.377014 300.007416,627.140198 304.885315,630.788513 
	C309.279755,634.075195 312.837372,636.906799 318.874146,636.336548 
	C325.164551,635.742310 326.289307,635.597107 326.873596,629.185547 
	C327.445740,622.907166 327.736176,616.603394 328.286682,610.322693 
	C328.815704,604.287842 325.599976,600.538147 319.465546,600.465942 
	C311.151062,600.368042 302.835297,600.377625 293.529694,600.339539 
M452.167999,775.396179 
	C449.424316,775.629944 446.448273,774.810791 443.897247,777.356079 
	C445.256561,780.039978 444.317444,782.585571 443.171936,785.262634 
	C439.167511,794.620483 442.947296,800.187927 452.971039,799.953735 
	C454.635223,799.914795 456.330780,799.743042 457.961151,799.980652 
	C467.212036,801.328857 473.876373,796.767822 479.944794,790.644043 
	C481.925049,788.645630 483.370270,786.470398 482.924286,783.577332 
	C482.295319,779.496826 484.495850,778.874634 487.867462,778.896362 
	C496.864044,778.954407 505.863007,778.851501 514.858398,778.677551 
	C516.444763,778.646790 518.632751,779.590088 519.497314,776.952209 
	C519.124756,776.604004 518.793640,776.015747 518.432068,775.996460 
	C496.634796,774.829346 474.817383,775.761353 452.167999,775.396179 
M381.983643,536.300598 
	C383.416077,520.016113 382.342010,503.699036 382.581085,487.398926 
	C382.591919,486.661316 382.245667,485.653168 381.705566,485.214813 
	C377.520081,481.817963 367.974548,485.238251 367.746918,490.494324 
	C367.099182,505.448883 367.080597,520.419861 367.928223,535.380127 
	C368.152740,539.343140 370.813263,540.949097 374.077515,541.484619 
	C377.594208,542.061462 380.722687,541.148621 381.983643,536.300598 
M177.560516,678.538696 
	C183.385132,678.822388 189.856277,680.248535 190.405518,671.230835 
	C190.422394,670.954041 190.848816,670.725708 190.968994,670.428223 
	C192.690033,666.168335 190.422180,661.768372 191.334976,657.410461 
	C191.487946,656.680054 189.983963,654.662659 188.376541,654.379456 
	C179.249527,652.771545 170.170792,653.364380 160.581360,654.371521 
	C162.221252,657.427246 165.284744,656.089111 166.754959,658.500488 
	C163.117279,664.585571 166.852600,670.805237 166.934906,677.110718 
	C170.138138,678.604675 173.404053,678.895264 177.560516,678.538696 
M600.488159,653.297241 
	C589.705383,653.470581 578.889404,653.022644 566.981689,653.753052 
	C570.250549,657.578796 574.485168,655.815247 576.418396,659.341248 
	C571.703674,663.451111 576.894409,669.934021 572.847351,674.518066 
	C572.252991,675.191223 573.630493,676.345642 574.471680,676.711609 
	C580.192383,679.200684 586.249695,678.947021 592.054626,677.659180 
	C596.052063,676.772339 593.757629,672.509644 594.619202,669.865234 
	C594.670654,669.707153 594.662109,669.511169 594.754578,669.387451 
	C598.745789,664.048950 596.755676,660.909790 591.014648,659.099976 
	C590.878296,659.057007 590.901184,658.508911 590.746399,657.568115 
	C598.267700,655.909973 606.305603,657.024475 613.642090,654.116028 
	C609.609009,652.556580 605.504395,653.635071 600.488159,653.297241 
M294.500031,776.116333 
	C287.008575,776.116333 279.517120,776.116333 272.025665,776.116333 
	C272.000580,776.997559 271.975494,777.878723 271.950409,778.759949 
	C280.388977,778.759949 288.827545,778.759949 298.300232,778.759949 
	C295.889801,781.951965 293.618530,781.764099 291.935760,782.746338 
	C289.437775,784.204407 289.950714,786.779907 290.834045,788.482849 
	C291.935455,790.606201 293.118774,793.704895 296.626251,792.759277 
	C300.803314,791.633179 302.968933,787.349243 302.456635,781.259521 
	C313.883301,776.177612 326.688934,781.071838 338.349518,777.561951 
	C338.316467,777.073486 338.283417,776.585022 338.250366,776.096558 
	C324.000244,776.096558 309.750092,776.096558 294.500031,776.116333 
M263.580627,808.335022 
	C260.940582,808.642029 258.062134,807.677795 254.797974,810.091675 
	C261.420807,811.194641 267.339020,811.981323 272.447815,814.868042 
	C276.305298,817.047668 280.845551,816.255798 284.629852,818.710815 
	C288.747711,821.382141 293.479248,820.885925 298.179993,819.694641 
	C288.785614,810.254456 276.767731,808.904663 263.580627,808.335022 
M533.032837,556.734802 
	C534.662231,556.510559 534.805542,556.488831 534.625305,555.300110 
	C533.574280,548.367920 531.897278,541.592468 528.879272,535.235229 
	C528.178223,533.758606 527.523376,531.965576 524.948914,531.036072 
	C526.566528,540.168152 530.253418,547.989990 533.032837,556.734802 
z"/>
<path fill="#000000" opacity="1.000000" stroke="none" 
	d="
M405.284912,104.818794 
	C397.422424,104.141266 389.998383,103.542892 382.714142,102.955795 
	C381.796417,101.793587 382.299927,100.766815 382.781281,100.003929 
	C389.569519,89.245399 397.866577,80.186356 410.136475,75.480927 
	C413.190613,74.309677 415.591980,74.797058 416.821045,77.659042 
	C420.657562,86.592537 422.934540,95.871201 422.069977,106.460121 
	C416.454559,105.923485 411.088928,105.410721 405.284912,104.818794 
z"/>
<path fill="#000000" opacity="1.000000" stroke="none" 
	d="
M123.325386,831.893494 
	C121.125366,839.846069 119.183006,840.820496 111.942528,841.483337 
	C104.775536,842.139404 100.195312,840.170166 98.126060,832.958740 
	C97.359772,830.288208 95.552429,827.933167 94.430267,825.343140 
	C93.269844,822.664795 92.505913,819.796143 95.411240,817.685791 
	C98.190109,815.667358 100.803253,816.933838 103.203972,818.645752 
	C105.710899,820.433411 107.296967,822.947754 108.609222,825.693787 
	C109.450203,827.453674 109.761253,829.565857 111.598518,830.731201 
	C120.250389,826.606934 121.023636,826.657288 123.325386,831.893494 
z"/>
<path fill="#000000" opacity="1.000000" stroke="none" 
	d="
M186.088928,834.117065 
	C189.518921,840.665771 188.458893,842.359680 181.366013,842.325195 
	C171.875092,842.279053 162.383698,842.275574 152.893585,842.163086 
	C151.189041,842.142944 148.711548,842.557434 148.770981,839.833618 
	C148.822083,837.491760 151.083969,837.030640 152.876678,837.124268 
	C156.775620,837.327759 159.083221,835.735413 161.426758,832.516357 
	C166.738007,825.220703 178.922150,826.086670 186.088928,834.117065 
z"/>
<path fill="#000000" opacity="1.000000" stroke="none" 
	d="
M579.116455,842.019165 
	C572.899414,842.071045 567.106628,842.197571 561.315735,842.139404 
	C556.502747,842.091064 555.560486,840.370972 557.476013,835.880920 
	C559.842590,830.333679 564.305725,828.066101 569.989380,827.634399 
	C575.742493,827.197388 580.614014,828.796814 583.211548,834.339233 
	C584.220215,836.491516 586.078674,837.380432 588.117004,838.941650 
	C586.086853,842.661804 582.446533,841.425476 579.116455,842.019165 
z"/>
<path fill="#000000" opacity="1.000000" stroke="none" 
	d="
M657.633179,817.648682 
	C662.141541,819.319763 661.807007,822.449402 660.278992,825.506958 
	C658.131104,829.804932 655.327271,833.729736 653.878296,838.434814 
	C653.016174,841.234375 643.470581,842.580200 641.296875,840.522766 
	C640.472900,839.742981 640.373779,838.763489 640.663757,837.766174 
	C642.389160,831.832520 644.514465,826.061768 648.388062,821.143860 
	C650.617615,818.313232 653.686401,817.245300 657.633179,817.648682 
z"/>
<path fill="#000000" opacity="1.000000" stroke="none" 
	d="
M441.826294,104.688904 
	C446.957550,103.075516 451.764526,101.721062 456.801270,101.805527 
	C461.428375,101.883133 462.988220,104.051514 462.346069,109.093193 
	C461.638824,114.645996 460.530334,115.571777 455.549042,114.421143 
	C448.502228,112.793396 441.481018,111.055069 434.190094,109.301781 
	C435.730072,105.392097 439.176849,106.108383 441.826294,104.688904 
z"/>
<path fill="#000000" opacity="1.000000" stroke="none" 
	d="
M85.199837,828.791260 
	C91.086380,829.151123 95.485489,832.860718 96.617386,837.884460 
	C96.906197,839.166260 96.941689,840.510437 95.644104,840.826172 
	C92.559288,841.576660 89.248512,841.959534 86.412689,840.304871 
	C83.556984,838.638611 82.045525,835.735962 81.836899,832.412354 
	C81.718605,830.527832 83.066673,829.431335 85.199837,828.791260 
z"/>
<path fill="#000000" opacity="1.000000" stroke="none" 
	d="
M637.034546,834.016235 
	C638.035156,836.448547 639.868286,838.951965 637.194946,840.576843 
	C634.715454,842.083923 631.637390,841.899353 629.288147,839.786865 
	C627.160522,837.873718 625.140015,835.517029 626.289673,832.428894 
	C627.227173,829.910583 629.569519,829.230957 632.114624,830.125305 
	C634.036377,830.800598 635.547302,832.130920 637.034546,834.016235 
z"/>
<path fill="#000000" opacity="1.000000" stroke="none" 
	d="
M656.785950,841.080078 
	C653.513000,836.525940 658.069519,835.288940 660.030762,833.260254 
	C661.943604,831.281555 664.774658,830.786682 667.305176,832.550110 
	C668.813171,833.601074 669.052307,835.289795 668.437561,837.026306 
	C667.694397,839.125732 666.766174,841.111694 664.131409,841.200012 
	C661.816711,841.277649 659.496765,841.198730 656.785950,841.080078 
z"/>
<path fill="#000000" opacity="1.000000" stroke="none" 
	d="
M603.813354,835.846436 
	C606.149780,836.610413 607.934814,837.449280 607.724304,840.326538 
	C605.050110,841.997009 602.147461,841.511047 599.301331,840.735107 
	C598.457520,840.505066 598.307434,839.428162 598.633362,838.582703 
	C599.473267,836.403809 601.214417,835.686584 603.813354,835.846436 
z"/>
<path fill="#000000" opacity="1.000000" stroke="none" 
	d="
M328.984863,267.829071 
	C327.297516,286.997131 318.771545,301.403290 301.343262,309.139709 
	C273.932526,321.307343 242.536835,303.628662 237.677673,273.225372 
	C232.593430,241.413712 259.392639,218.666763 284.361786,219.923508 
	C310.970856,221.262817 328.437836,240.297195 328.984863,267.829071 
z"/>
<path fill="#000000" opacity="1.000000" stroke="none" 
	d="
M426.175873,248.450897 
	C433.120575,232.470749 445.078857,223.441040 461.724762,220.491165 
	C489.751617,215.524399 514.943665,238.782562 514.646362,268.202942 
	C514.413147,291.267273 493.498566,315.110962 463.024933,312.424072 
	C439.631165,310.361359 419.981659,286.103699 422.834717,261.354675 
	C423.324585,257.105408 424.926788,252.984344 426.175873,248.450897 
z"/>
<path fill="#000000" opacity="1.000000" stroke="none" 
	d="
M359.032257,376.080811 
	C338.233154,375.641632 318.057495,373.843994 298.046204,370.330627 
	C296.414001,370.044067 294.760956,369.731903 293.205841,369.182037 
	C290.470795,368.214935 287.451416,366.905212 288.247223,363.386566 
	C289.067780,359.758270 292.192444,359.411133 295.468323,359.929657 
	C301.692261,360.914886 307.922729,361.869263 314.167145,362.713226 
	C337.277435,365.836761 360.501648,367.143646 383.810150,366.627655 
	C407.258850,366.108551 430.567902,363.850006 453.747009,360.306519 
	C457.060455,359.799927 460.221741,359.977448 460.975708,363.546173 
	C461.688690,366.920746 458.694916,368.569489 455.837677,369.204651 
	C445.610962,371.478058 435.269928,373.279236 424.838531,374.124725 
	C403.110535,375.885895 381.333038,376.630890 359.032257,376.080811 
z"/>
<path fill="#000000" opacity="1.000000" stroke="none" 
	d="
M343.670227,300.032593 
	C344.330231,296.662476 344.492065,293.567291 345.950043,290.841614 
	C348.270996,291.772491 347.853882,293.190582 347.775299,294.483490 
	C347.068268,306.117767 351.643127,314.021484 362.527771,318.187378 
	C373.954376,322.560669 390.590881,321.653229 399.416931,309.919952 
	C402.501221,305.819702 405.111511,301.755981 402.402893,296.233887 
	C401.448486,294.288116 401.180084,291.688019 403.742310,289.736694 
	C406.291687,292.376587 406.287201,295.870453 406.698730,298.943481 
	C408.524200,312.574829 407.474792,325.420532 394.641388,334.033295 
	C382.945953,341.882355 370.659027,342.768433 358.384430,335.775360 
	C346.767792,329.157166 342.438629,318.449036 343.146912,305.433105 
	C343.237152,303.774902 343.481415,302.125061 343.670227,300.032593 
z"/>
<path fill="#000000" opacity="1.000000" stroke="none" 
	d="
M453.065399,619.369141 
	C453.505829,624.217407 450.353333,625.603882 446.968079,625.941528 
	C444.087555,626.228821 441.290985,625.032776 440.562775,621.678650 
	C439.881317,618.539734 441.089020,616.040100 444.130554,614.886597 
	C448.342926,613.288940 451.095856,615.303284 453.065399,619.369141 
z"/>
<path fill="#000000" opacity="1.000000" stroke="none" 
	d="
M477.764038,615.250488 
	C478.781250,614.971436 479.427521,614.790649 480.081573,614.755615 
	C484.382690,614.525269 486.455383,617.101685 487.248474,620.856506 
	C487.985657,624.346924 484.622406,624.783447 482.690247,625.729370 
	C479.865112,627.112488 476.891357,625.975342 475.299316,623.431946 
	C473.392731,620.386108 474.004608,617.385376 477.764038,615.250488 
z"/>
<path fill="#000000" opacity="1.000000" stroke="none" 
	d="
M315.781799,624.871521 
	C315.159576,625.239441 314.869659,625.405884 314.558716,625.508545 
	C311.288879,626.587585 308.526367,625.780029 307.102661,622.638794 
	C306.116333,620.462646 306.343018,617.881348 308.627136,616.443970 
	C311.428925,614.680969 314.474213,614.973389 316.795135,617.296387 
	C319.277100,619.780640 318.400299,622.380798 315.781799,624.871521 
z"/>
</svg>