<svg version="1.1" id="Layer_1" xmlns="http://www.w3.org/2000/svg" xmlns:xlink="http://www.w3.org/1999/xlink" x="0px" y="0px"
	 width="100%" viewBox="0 0 1024 1024" enable-background="new 0 0 1024 1024" xml:space="preserve">
<path fill="#000000" opacity="1.000000" stroke="none" 
	d="
M368.038269,198.770477 
	C374.973511,196.563141 381.678009,195.666107 388.572235,195.671494 
	C476.232880,195.739899 563.894409,195.973450 651.553711,195.637878 
	C676.643311,195.541855 704.404541,219.557022 704.358337,248.374756 
	C704.071350,427.195374 704.117737,606.016846 704.366516,784.837646 
	C704.398682,807.943115 697.430481,826.869629 677.104431,840.670593 
	C686.945740,841.373474 695.975525,842.124268 705.018555,842.642273 
	C724.131653,843.737061 743.175537,845.336304 761.868103,849.746338 
	C764.128906,850.279785 766.369507,850.966614 768.541016,851.789551 
	C770.308105,852.459229 771.858765,853.615417 771.740173,855.785095 
	C771.631958,857.765015 770.000671,858.550537 768.405212,859.087280 
	C760.773438,861.654846 752.800476,862.340820 744.873047,863.324219 
	C721.251709,866.254150 697.470703,867.207153 673.761047,868.996155 
	C656.011719,870.335449 638.191589,870.762207 620.399048,871.499023 
	C572.791138,873.470459 525.148743,873.828796 477.526489,873.000854 
	C444.086670,872.419434 410.629944,871.763000 377.217712,869.577759 
	C351.485229,867.894714 325.758026,866.166809 300.054382,864.116028 
	C292.440308,863.508545 284.873260,862.241394 277.310944,861.102112 
	C275.201080,860.784180 273.110504,860.010803 271.148346,859.137878 
	C269.405365,858.362488 267.025513,857.753418 267.152893,855.256165 
	C267.275970,852.843689 269.544464,852.298401 271.393768,851.572266 
	C283.014496,847.009216 295.332336,846.039917 307.559265,844.738464 
	C322.455200,843.152710 337.386078,841.941406 352.371948,841.519165 
	C354.144012,841.469177 356.007568,841.323120 357.610596,840.254395 
	C357.596008,838.550842 356.121429,838.119812 355.149170,837.350708 
	C340.386658,825.672729 332.649506,810.644165 332.654144,791.620605 
	C332.698059,611.132751 332.783508,430.644806 332.555969,250.157227 
	C332.524628,225.296143 348.256073,205.521866 368.038269,198.770477 
M421.499756,245.354752 
	C414.167938,245.348251 406.835999,245.317017 399.504303,245.342331 
	C392.331818,245.367081 392.316620,245.392380 392.315216,252.507935 
	C392.302551,316.997040 392.295349,381.486115 392.287506,445.975220 
	C392.286682,452.774048 392.404816,452.937408 399.297791,452.943115 
	C478.950409,453.008911 558.603027,453.063446 638.255676,453.104462 
	C644.773560,453.107788 644.955383,452.882263 644.953247,446.330566 
	C644.932495,381.841492 644.909119,317.352417 644.878479,252.863358 
	C644.874939,245.374069 644.852051,245.361603 637.463623,245.361221 
	C565.809021,245.357544 494.154419,245.358383 421.499756,245.354752 
M408.505249,819.681580 
	C484.830139,819.679688 561.155029,819.674561 637.479919,819.679810 
	C648.149414,819.680603 657.508057,816.615479 664.515015,808.124084 
	C670.219727,801.210754 671.807251,793.084106 671.800293,784.317200 
	C671.723999,688.161255 671.737000,592.005249 671.727539,495.849213 
	C671.726685,487.375153 671.732483,487.354492 663.116272,487.353271 
	C615.454895,487.346619 567.793518,487.354858 520.132141,487.350250 
	C470.471222,487.345428 420.810272,487.329865 371.149353,487.324280 
	C364.334381,487.323517 364.317688,487.337524 364.300720,493.849304 
	C364.282074,501.015137 364.300262,508.181061 364.298950,515.346924 
	C364.282288,606.003418 364.258545,696.659912 364.253784,787.316406 
	C364.252899,803.882629 374.842865,816.129700 391.075897,818.925537 
	C396.570526,819.871887 402.031860,819.465698 408.505249,819.681580 
z"/>
<path fill="#000000" opacity="1.000000" stroke="none" 
	d="
M485.765350,515.557068 
	C537.826538,502.014435 594.365173,522.602844 625.693054,565.687378 
	C637.916443,582.497986 647.772034,600.287109 651.583130,620.797729 
	C660.112366,666.701904 650.300415,708.274048 619.772034,743.964233 
	C594.510681,773.496948 561.509338,786.954590 522.932495,788.431396 
	C491.799957,789.623169 463.459442,781.900635 438.342621,763.618652 
	C413.122467,745.261475 395.804474,720.661072 387.560272,690.732849 
	C374.242584,642.386658 382.668640,597.937500 415.797699,559.422180 
	C434.384491,537.813477 457.713593,523.149719 485.765350,515.557068 
M571.832764,684.328064 
	C582.140381,666.218567 584.500427,646.903381 577.185425,627.597168 
	C568.744141,605.318359 552.441101,591.274109 528.078674,588.139587 
	C504.977997,585.167419 484.943787,591.580261 470.058624,609.781982 
	C457.847778,624.713562 452.944641,642.255798 456.209961,661.675232 
	C460.150208,685.108582 473.105530,701.844177 494.958252,710.559204 
	C522.130798,721.395630 554.450806,713.078369 571.832764,684.328064 
M412.921265,645.553528 
	C411.512421,646.290039 410.483948,647.883240 408.201202,647.486328 
	C407.195496,644.012329 407.949097,640.360413 407.653046,636.796631 
	C407.515076,635.135803 408.351105,632.557983 405.488922,632.686340 
	C402.881653,632.803284 403.380798,635.260925 403.367859,636.996277 
	C403.299652,646.151367 403.271851,655.307129 403.310272,664.462341 
	C403.316620,665.977051 402.682098,668.302979 405.194031,668.298645 
	C407.315277,668.294983 407.417603,666.173035 407.624695,664.529236 
	C408.072144,660.978149 407.102203,657.305603 408.408722,653.365479 
	C411.476044,654.228088 413.368958,656.366943 415.579254,658.005981 
	C417.760223,659.623352 419.475616,662.107544 422.598145,662.254883 
	C424.895844,659.532654 422.485626,655.806274 424.854584,653.109436 
	C430.336945,655.433105 433.515808,660.951050 439.691559,663.073730 
	C439.933044,654.595093 440.458466,646.632751 439.378845,638.270752 
	C432.520874,639.569275 430.389801,646.721741 424.620239,648.356934 
	C424.285645,647.696899 424.032898,647.413208 424.007019,647.110229 
	C423.894043,645.787292 423.863861,644.457458 423.772858,643.132324 
	C423.489380,639.005493 422.305450,638.352295 418.892029,640.675659 
	C416.976074,641.979797 415.288727,643.619812 412.921265,645.553528 
M632.533020,667.537476 
	C633.761780,655.720032 633.310852,643.939026 631.688538,632.052979 
	C626.966553,636.624268 630.746216,643.272400 627.645081,648.612366 
	C623.887573,646.930115 621.705017,643.657776 618.824646,641.283142 
	C617.817261,640.452637 616.910522,639.200867 615.397034,639.758057 
	C613.786011,640.351135 613.490295,641.866943 613.220703,643.398193 
	C612.898376,645.228882 613.938416,647.480591 611.542114,648.895203 
	C606.399719,646.627563 603.929382,640.694824 597.560242,638.397400 
	C595.582153,646.617798 596.160217,654.341736 596.883301,662.885925 
	C603.284424,659.744690 606.272705,653.828003 612.060730,652.103699 
	C614.447205,655.213440 611.981384,658.908752 614.614319,661.737305 
	C619.742615,660.192383 622.440125,654.671875 627.831116,653.251587 
	C629.659729,657.088074 628.563354,660.977844 628.972168,664.703796 
	C629.171021,666.515625 628.650452,669.135742 632.533020,667.537476 
M506.923523,742.622742 
	C505.420288,741.883850 503.409058,740.685669 503.318451,743.584839 
	C503.087952,750.961304 503.241821,758.349854 503.241821,766.669617 
	C507.623749,764.294250 510.563843,761.872375 513.174072,759.191589 
	C516.437866,755.839600 519.068665,755.300171 522.703735,758.925171 
	C525.756592,761.969421 528.952026,765.190613 533.381470,766.799988 
	C533.381470,757.744141 533.381470,749.069275 533.381470,740.326294 
	C531.155151,740.555664 530.027039,741.877380 528.725952,742.844238 
	C518.061584,750.769104 518.069214,750.779358 506.923523,742.622742 
M503.994995,560.266357 
	C504.138336,562.866821 503.585907,565.817993 507.793610,565.760254 
	C512.118958,565.700928 511.822021,562.745239 511.821045,559.874268 
	C511.818176,551.416504 511.725708,542.957520 511.847137,534.501587 
	C511.894409,531.210693 510.517822,530.129944 507.365021,530.247314 
	C503.204498,530.402100 503.658783,533.566284 503.640625,535.991333 
	C503.582397,543.773376 503.840607,551.557861 503.994995,560.266357 
M525.038330,548.498352 
	C525.082214,552.830505 525.129822,557.162598 525.168579,561.494812 
	C525.190979,564.002258 526.484863,565.064880 528.945618,565.029541 
	C531.363281,564.994751 532.666260,564.036804 532.657166,561.455566 
	C532.624817,552.290039 532.624634,543.124146 532.684326,533.958801 
	C532.700562,531.465149 531.738220,530.343750 529.150452,530.309631 
	C526.480591,530.274536 525.062439,531.164001 525.085815,534.002502 
	C525.122803,538.501282 525.051819,543.000854 525.038330,548.498352 
z"/>
<path fill="#000000" opacity="1.000000" stroke="none" 
	d="
M518.855530,621.837646 
	C539.592224,623.198059 549.258057,640.424316 548.018005,653.849670 
	C546.464417,670.670166 531.078735,683.204651 515.322144,681.126282 
	C498.610718,678.921997 487.674408,666.082214 488.497681,649.632996 
	C489.313202,633.339478 501.160919,622.324402 518.855530,621.837646 
z"/>
</svg>