<?xml version="1.0" encoding="UTF-8"?>
<svg id="Layer_1" data-name="Layer 1" xmlns="http://www.w3.org/2000/svg" viewBox="0 0 646.06 77.24">
  <defs>
    <style>
      .cls-1 {
        fill: #fbfaf5;
      }

      .cls-1, .cls-2, .cls-3, .cls-4, .cls-5, .cls-6, .cls-7, .cls-8 {
        stroke-width: 0px;
      }

      .cls-2 {
        fill: #fafaf4;
      }

      .cls-3 {
        fill: #eaeae8;
      }

      .cls-4 {
        fill: #e7e7e7;
      }

      .cls-5 {
        fill: #030403;
      }

      .cls-6 {
        fill: #030303;
      }

      .cls-7 {
        fill: #040404;
      }

      .cls-8 {
        fill: #040403;
      }
    </style>
  </defs>
  <path class="cls-6" d="m425.47,44.43c0-.66,0-1.15,0-1.74h-20.34c0,.65,0,1.24,0,1.82-.02,8.64-.04,17.27-.06,25.91,0,2.86-1.12,5.05-3.81,6.25-3.53,1.57-7.41-.71-7.81-4.56-.05-.49-.06-.99-.06-1.49.01-21.43.08-42.85,0-64.28-.01-3.62,2.35-6.3,5.76-6.25,3.61.05,5.95,2.52,5.96,6.33.02,6.7.02,13.4.03,20.1,0,.54,0,1.08,0,1.72h20.27c0-.57,0-1.15,0-1.72,0-6.92-.01-13.84.03-20.76.02-3.04,1.87-5.19,4.64-5.57,2.89-.39,5.64,1.3,6.43,4.06.23.78.24,1.64.24,2.46.02,6.81,0,13.62,0,20.43,0,.32.05.64.08,1.04h10.15c0-.63,0-1.22,0-1.81,0-6.7-.01-13.4,0-20.1,0-3.71,2.26-6.18,5.65-6.25,3.28-.07,6.02,2.65,6.03,6.18.03,21.65.03,43.29,0,64.94,0,3.38-2.8,6.13-5.98,6.07-3.14-.06-5.69-2.74-5.7-6.16-.03-8.86,0-17.72.01-26.57,0-.54,0-1.09,0-1.72h-10.21c0,.59,0,1.12,0,1.65-.02,8.86-.04,17.72-.06,26.57,0,3.65-2.33,6.19-5.69,6.2-3.05.01-5.59-2.58-5.61-6-.05-8.86,0-17.72,0-26.74Z"/>
  <path class="cls-6" d="m81.78,10.43c2.87,1.25,4.25,3.24,4.18,5.89-.08,2.76-1.58,4.73-4.44,5.76-1.51.54-3.01,1.1-4.56,1.53-1.04.29-1.32.83-1.31,1.89.04,10.46.02,20.92.04,31.38,0,4.89,2.3,7.66,6.31,7.7,4.14.04,7.42-3.2,7.5-7.66.12-7.08.1-14.17.13-21.25.04-9.63.05-19.26.11-28.89.02-3.5,1.91-5.56,5.13-5.68,3.36-.12,6.16,2.24,6.27,5.51.12,3.76.03,7.52.02,11.29-.01,13.12.01,26.23-.05,39.35-.04,8.5-4.98,15.94-12.19,18.22-13.6,4.3-27.13-3.63-27.26-19.37-.07-8.74,0-17.49,0-26.23,0-.59,0-1.19,0-1.99-2.18.71-4.15,1.41-6.16,1.99-3.62,1.06-6.76-.48-7.88-3.81-1.08-3.2.52-6.3,4.04-7.59,2.9-1.06,5.84-2.03,8.8-2.92.93-.28,1.2-.68,1.18-1.61-.06-2.65-.04-5.31-.02-7.97.02-2.54,1.47-4.23,4-4.38,2.21-.13,4.43-.12,6.64,0,2.37.13,3.55,1.52,3.57,3.91.01,1.76,0,3.51,0,4.89,2.03,0,3.92,0,5.94.04Z"/>
  <path class="cls-8" d="m550.34,3.89c10.13-5.49,22.83-4.17,30.72,3.24,1.22,1.15,2.25,2.59,3.05,4.07,1.19,2.19.6,4.55-1.22,6.14-2.11,1.83-4.79,2.13-6.88.67-1-.69-1.89-1.53-2.83-2.3-7.23-5.92-17.76-3.95-21.93,4.3-1.01,1.99-1.49,4.43-1.54,6.68-.19,8.24.04,16.49-.15,24.74-.18,8.18,5.69,14.21,14.68,13.83,7.36-.31,13.02-5.72,14.02-13.25-3.37,0-6.73.03-10.09-.01-1.1-.01-2.23-.07-3.29-.32-3.28-.78-5.28-3.66-4.89-6.9.38-3.17,3.11-5.59,6.58-5.64,4.81-.08,9.63-.04,14.44-.05,3.43,0,6.87.17,10.29-.03,4.38-.26,7.42,3.54,7.53,6.24.15,3.48-2.66,6.37-6.59,6.84-.84,2.51-1.5,5.02-2.5,7.39-4.05,9.56-11.04,15.73-21.44,17.22-9.28,1.33-17.91-.35-24.65-7.58-4.09-4.38-6.18-9.65-6.21-15.66-.04-8.97.04-17.93-.04-26.9-.09-10.05,4.4-17.45,12.93-22.7Z"/>
  <path class="cls-6" d="m502.08,49.74c-.06,7.36-.07,14.56-.22,21.75-.08,3.67-3.3,6.17-6.93,5.6-2.56-.41-4.63-2.6-4.78-5.2-.1-1.88-.05-3.76-.05-5.64,0-19.98.02-39.96,0-59.95,0-2.32.57-4.29,2.77-5.42,2.38-1.23,4.69-.46,6.24,2.31,1.91,3.43,3.63,6.96,5.36,10.48,3.6,7.34,7.15,14.71,10.73,22.07.24.48.54.93,1.04,1.77.05-.87.1-1.32.1-1.78,0-9.74,0-19.48.01-29.22,0-3.94,2.07-6.28,5.61-6.38,3.39-.1,6.14,2.5,6.31,6.14.11,2.49.02,4.98.02,7.47-.03,18.87-.07,37.75-.11,56.62,0,.61.02,1.22-.03,1.83-.18,2.23-1.93,4.29-4.01,4.76-1.92.44-3.83-.34-4.97-2.47-1.69-3.16-3.19-6.43-4.71-9.68-3.77-8.05-7.51-16.12-11.26-24.18-.25-.53-.51-1.05-1.1-1.53,0,3.5,0,7,0,10.66Z"/>
  <path class="cls-6" d="m305.55,13.36c1.95,7.77-.54,13.93-6.36,18.94-2,1.73-4.05,3.41-6.23,5.23,1.67,2.27,3.34,4.51,5,6.77,1.93,2.63,3.87,5.25,5.75,7.92.64.9,1.3,1.24,2.45,1.18,4.51-.21,7.95,4.06,6.45,7.96-.32.84-.92,1.67-1.61,2.24-3.88,3.21-7.71,6.48-11.76,9.46-6.97,5.14-17.99,5.25-25.52.2-7.88-5.29-11.22-13.14-9.46-22.38.84-4.43,3.33-7.9,6.56-10.88,1.82-1.68,3.73-3.27,5.61-4.91-1.56-2.28-3.14-4.39-4.52-6.64-4.72-7.73-3.36-17.56,3.29-23.63,8.93-8.13,26.3-5.52,30.33,8.53m-16.61,38.98c-1.83-2.47-3.66-4.94-5.82-7.86-1.85,2.04-3.59,3.89-5.27,5.8-1.75,2-2.36,4.37-1.78,6.95.96,4.28,3.8,6.76,7.96,7.71,4.54,1.04,8.33-.43,11.63-3.78-2.23-2.93-4.4-5.78-6.72-8.82m1.1-40.05c-2.6-.85-4.93-.4-6.84,1.6-1.85,1.93-2.49,4.38-1.42,6.74,1.16,2.56,2.92,4.84,4.52,7.41,2.22-2.01,4.21-3.54,5.87-5.37,3.33-3.65,2.48-7.9-2.13-10.38Z"/>
  <path class="cls-8" d="m135.04,43.36c0-12.01.01-23.86.02-35.7,0-2.45.58-4.65,2.95-5.88,4.05-2.1,8.79.49,9.22,5.03.05.49.04,1,.04,1.49-.01,16.94,0,33.88-.05,50.82-.03,8.72-6.61,16.13-14.79,17.19-10.66,1.39-18.62-4.29-20.73-13.26-.31-1.33-.37-2.74-.37-4.11-.02-17.05,0-34.1,0-51.15,0-4.2,2.08-6.63,5.7-6.68,3.61-.05,6.26,2.69,6.28,6.68.03,10.18,0,20.37,0,30.55,0,6.2,0,12.4.02,18.6,0,.88-.02,1.79.14,2.65.54,2.93,3.26,4.99,6.12,4.71,3.16-.3,5.41-2.7,5.43-5.83.02-4.98.01-9.96.02-15.11Z"/>
  <path class="cls-5" d="m45.11,65.38c-4.14,7.59-10.68,11.12-18.96,11.68-7.46.51-14.4-1.15-20.52-5.62-1.19-.87-2.32-1.91-3.22-3.07-1.64-2.11-1.54-4.73,0-6.77,1.59-2.1,4.21-2.99,6.64-2.01,1.52.61,2.97,1.48,4.33,2.4,4.23,2.86,8.79,4.02,13.86,3.03,5.55-1.08,9.44-6.75,8.13-11.93-1-3.95-4.36-6.63-8.45-6.68-2.38-.03-4.76-.05-7.14,0-8.28.21-13.85-3.88-17.31-11.09C-1.9,26.2-.36,15.45,6.16,8.38,13.05.91,23.45-1.58,33.21,2.11c2.5.95,4.89,2.32,7.13,3.8,1.97,1.3,3.3,3.28,2.64,5.82-.71,2.71-2.69,4.43-5.26,5.33-1.76.61-3.22-.41-4.53-1.48-2.52-2.07-5.36-3.29-8.67-3.22-5.35.11-9.17,2.73-11.41,7.46-2.11,4.45-1.26,8.64,1.93,12.33,1.66,1.93,3.79,2.93,6.41,2.97,3.81.06,7.69-.16,11.42.47,8.25,1.38,14.45,9.36,14.77,18.31.15,4.02-.7,7.8-2.52,11.5Z"/>
  <path class="cls-6" d="m235.29,72.77c-1.36,3.08-3.91,4.47-6.82,3.84-2.87-.62-4.76-3.04-4.76-6.15,0-6.53,0-13.06,0-19.6,0-.54,0-1.08,0-1.59-6.14-.8-8.25-2.39-8.16-6.03.1-3.8,2.54-5.65,8.04-6v-11.48c-1.33-.09-2.69-.19-4.04-.29-3.17-.23-5.33-2.6-5.36-5.84-.03-3.02,2.4-5.62,5.48-5.8,1.27-.08,2.54-.01,4.02-.01,0-2.57,0-5.09,0-7.61,0-2.89,1.41-4.46,4.33-4.48,10.02-.06,20.04-.08,30.06-.04,2.81.01,5.16,2.6,5.08,5.34-.08,2.73-2.37,4.87-5.25,4.87-6.75.01-13.51.02-20.26.02-.54,0-1.09,0-1.74,0-.06.66-.11,1.18-.18,2,.68,0,1.25,0,1.83,0,7.03,0,14.06-.03,21.09,0,3.54.02,5.83,1.54,6.56,4.24,1.08,3.97-1.8,7.57-6.21,7.62-7.14.07-14.28.05-21.42.06-.59,0-1.19,0-1.85,0v11.41c1.98,0,3.91,0,5.83,0,3.58,0,6.33,2.48,6.42,5.78.09,3.44-2.51,6.08-6.2,6.19-1.99.06-3.98.01-6.2.01,0,.66,0,1.24,0,1.82,0,6.31,0,12.62-.02,18.93,0,.88-.15,1.76-.27,2.76Z"/>
  <path class="cls-5" d="m645.96,57.58c-2.02,11.75-10.81,19.27-22.81,19.56-6.13.14-12-.96-17.36-4.11-1.14-.67-2.24-1.44-3.21-2.33-2.33-2.15-2.75-4.64-1.34-6.99,1.56-2.6,4.66-3.81,7.46-2.71,1.79.7,3.45,1.75,5.2,2.56,4.39,2.03,8.91,2.55,13.52.8,3.21-1.22,5.34-3.57,6.24-6.85,1.63-5.91-2.23-10.87-8.46-11.01-2.21-.05-4.43-.08-6.64-.03-7.21.13-12.35-3.4-15.99-9.26-7.17-11.57-3.59-30.48,14.29-35.54,7.66-2.17,14.9-.75,21.62,3.42.65.4,1.24.93,1.8,1.46,2.68,2.59,2.9,4.94.76,7.57-2.48,3.03-5.37,3.69-8.27,1.59-4.31-3.11-8.85-4.11-13.92-2.21-7.84,2.94-10.06,13.96-3.74,19.21,1.35,1.12,3.31,1.74,5.08,2.06,1.99.35,4.09.19,6.13.1,10.75-.48,19.05,7.4,19.71,18.75.07,1.27-.03,2.54-.07,3.97Z"/>
  <path class="cls-6" d="m173.8,70.48c-.21,4.83-4.49,7.63-8.61,5.74-2.23-1.02-3.26-2.8-3.26-5.29.03-19.7.02-39.41.02-59.11,0-1.55-.01-3.1-.01-4.65,0-4.03,1.35-5.43,5.32-5.43,11.51-.02,23.02-.04,34.54-.05,1.27,0,2.55,0,3.82,0,3.65,0,6.31,2.3,6.39,5.54.07,3.13-2.65,5.61-6.34,5.62-9.96.03-19.92.02-29.89.02-.59,0-1.19,0-1.88,0v22.7c4.41,0,8.76,0,13.12,0,5.53,0,11.07-.02,16.6,0,3.95.01,6.63,1.75,7.83,4.98,1.51,4.09-1.49,8.49-5.85,8.5-9.91.03-19.81.02-29.72.03-.6,0-1.2,0-2.07,0,0,7.15,0,14.21,0,21.42Z"/>
  <path class="cls-6" d="m362.01,76.74c-4.75,1.15-7.88-1.22-7.89-6.02-.04-18.42,0-36.85,0-55.27,0-.59,0-1.19,0-1.89-4.45,0-8.75,0-13.05,0-1.38,0-2.77.03-4.15,0-3.52-.1-6.32-2.89-6.26-6.21.05-3.34,2.88-6.12,6.36-6.12,14.27-.03,28.55-.05,42.82-.04,3.35,0,6.29,2.95,6.35,6.24.05,3.33-2.79,6.13-6.31,6.15-4.58.02-9.16,0-13.9,0,0,.73,0,1.32,0,1.91,0,18.42-.02,36.85.01,55.27,0,2.89-1.21,4.85-3.98,6Z"/>
  <path class="cls-7" d="m468.72,53.72c-.03-15.94-.05-31.71-.07-47.48,0-3.43,1.88-5.7,5.05-6.15,2.83-.4,5.53,1.34,6.37,4.16.17.57.22,1.2.22,1.8.01,21.64.04,43.27-.06,64.91,0,1.46-.71,3.15-1.62,4.32-1.42,1.82-3.6,2.4-5.85,1.6-2.33-.83-3.73-2.63-3.95-5.08-.2-2.25-.11-4.53-.11-6.8,0-3.71.02-7.42.03-11.29Z"/>
  <path class="cls-7" d="m314.37,42.78c.46-2.56,1.93-4.31,3.76-5.77-2.06-5.59-1.01-9.66,3.04-11.88,4.13-2.27,9.57-1.17,12.26,2.48,2.77,3.76,2.32,7.89-1.42,11.64,2.26,2.12,4.53,4.21,6.75,6.36,2.63,2.54,1.86,6.09-1.56,7.37-1.52.57-2.94.39-4.18-.7-.75-.65-1.47-1.34-2.26-2.06-3.44,3.22-7.27,3.92-11.39,1.7-3.53-1.9-5.23-4.95-4.99-9.13m8.51,1.9c1.48,1.24,1.86,1.22,3.04-.18-.78-.7-1.57-1.41-2.75-2.46-.18,1.09-.3,1.75-.29,2.64m3.5-13.54c-.46.5-1.18.96-1.3,1.53-.07.35.75,1.23,1.2,1.26.48.02,1.39-.7,1.39-1.09-.01-.57-.67-1.12-1.29-1.7Z"/>
  <path class="cls-7" d="m314.37,42.78c.46-2.56,1.93-4.31,3.76-5.77-2.06-5.59-1.01-9.66,3.04-11.88,4.13-2.27,9.57-1.17,12.26,2.48,2.77,3.76,2.32,7.89-1.42,11.64,2.26,2.12,4.53,4.21,6.75,6.36,2.63,2.54,1.86,6.09-1.56,7.37-1.52.57-2.94.39-4.18-.7-.75-.65-1.47-1.34-2.26-2.06-3.44,3.22-7.27,3.92-11.39,1.7-3.53-1.9-5.23-4.95-4.99-9.13m8.51,1.9c1.48,1.24,1.86,1.22,3.04-.18-.78-.7-1.57-1.41-2.75-2.46-.18,1.09-.3,1.75-.29,2.64m3.5-13.54c-.46.5-1.18.96-1.3,1.53-.07.35.75,1.23,1.2,1.26.48.02,1.39-.7,1.39-1.09-.01-.57-.67-1.12-1.29-1.7Z"/>
  <path class="cls-1" d="m289.01,52.44c2.24,2.94,4.41,5.79,6.65,8.72-3.3,3.35-7.09,4.82-11.63,3.78-4.16-.95-7.01-3.43-7.96-7.71-.58-2.58.03-4.95,1.78-6.95,1.67-1.91,3.41-3.76,5.27-5.8,2.16,2.92,3.99,5.39,5.9,7.95Z"/>
  <path class="cls-2" d="m290.15,12.35c4.49,2.43,5.35,6.67,2.02,10.32-1.66,1.83-3.65,3.36-5.87,5.37-1.6-2.57-3.37-4.85-4.52-7.41-1.07-2.36-.43-4.81,1.42-6.74,1.91-2,4.24-2.45,6.96-1.54Z"/>
  <path class="cls-4" d="m322.82,44.58c.05-.78.17-1.44.35-2.53,1.18,1.06,1.96,1.76,2.75,2.46-1.18,1.4-1.56,1.41-3.1.06Z"/>
  <path class="cls-4" d="m322.82,44.58c.05-.78.17-1.44.35-2.53,1.18,1.06,1.96,1.76,2.75,2.46-1.18,1.4-1.56,1.41-3.1.06Z"/>
  <path class="cls-3" d="m326.49,31.16c.5.57,1.16,1.12,1.17,1.69,0,.39-.91,1.11-1.39,1.09-.45-.02-1.28-.91-1.2-1.26.12-.58.84-1.03,1.42-1.52Z"/>
  <path class="cls-3" d="m326.49,31.16c.5.57,1.16,1.12,1.17,1.69,0,.39-.91,1.11-1.39,1.09-.45-.02-1.28-.91-1.2-1.26.12-.58.84-1.03,1.42-1.52Z"/>
</svg>