<svg version="1.1" id="Layer_1" xmlns="http://www.w3.org/2000/svg" xmlns:xlink="http://www.w3.org/1999/xlink" x="0px" y="0px"
	 width="100%" viewBox="0 0 1024 1024" enable-background="new 0 0 1024 1024" xml:space="preserve">
<path fill="#000000" opacity="1.000000" stroke="none" 
	d="
M243.385651,223.352448 
	C248.238022,213.824432 249.776321,203.738403 251.708649,193.781723 
	C253.169815,186.252884 254.320374,178.654709 258.041290,171.795578 
	C265.048157,158.879105 279.389801,154.060104 292.676727,160.331711 
	C306.513824,166.863007 314.675385,178.132736 319.068115,192.505295 
	C322.255890,202.935486 323.438660,213.658035 324.221680,224.467346 
	C325.412170,240.902420 325.581299,257.676483 333.330566,272.722168 
	C349.005005,303.155090 371.777069,326.143127 406.570190,332.173096 
	C435.257965,337.144928 460.159943,327.376160 479.360748,304.955902 
	C485.915558,297.302002 487.650360,287.663208 488.661865,277.962128 
	C489.371307,271.157928 490.409943,264.416504 492.165771,257.812988 
	C497.444977,237.958298 516.113281,224.973907 536.613159,226.796600 
	C547.497803,227.764359 557.407776,236.624283 560.276306,247.618896 
	C568.844910,280.460480 577.293823,313.334778 587.022705,345.863037 
	C588.073303,349.375458 589.694641,351.533966 593.242310,352.851807 
	C604.697083,357.106964 609.407471,368.311096 603.917969,379.154144 
	C601.701782,383.531677 601.950439,386.489197 605.383728,389.646667 
	C613.363525,396.985382 617.864868,405.987793 618.051392,416.949982 
	C618.100098,419.812103 619.742737,421.134796 622.270996,421.704407 
	C632.196594,423.940704 639.988403,435.027679 636.428589,446.042114 
	C636.014954,447.321838 635.908630,448.791687 636.670227,449.940552 
	C640.670105,455.974243 642.581543,463.164185 650.705688,466.473419 
	C660.450195,470.442688 664.133362,479.428680 662.243042,489.942474 
	C661.604614,493.493530 662.148804,496.240265 664.345398,499.155823 
	C669.092224,505.456451 672.991211,512.300049 673.769287,520.355530 
	C674.128662,524.075928 675.867004,525.761658 679.346741,526.890503 
	C688.978577,530.014954 696.067810,535.782654 697.668213,546.523804 
	C697.790405,547.343933 698.108521,548.286133 697.846497,548.989319 
	C694.537170,557.870422 701.545166,563.052612 705.142456,569.428589 
	C706.109985,571.143433 708.001953,571.451172 709.849182,571.875061 
	C722.834839,574.855103 728.933716,581.662964 730.233337,594.897522 
	C730.595276,598.583313 733.174561,600.375549 735.497620,602.397522 
	C753.380493,617.962708 772.766235,631.524353 792.423279,644.700195 
	C820.327087,663.403748 850.294495,678.314026 880.708801,692.385620 
	C888.114685,695.812012 895.381958,699.565430 902.909424,702.696228 
	C921.109741,710.265991 929.490601,725.111694 936.152771,742.767700 
	C942.361755,759.223022 938.136475,773.416504 931.919983,787.886169 
	C925.729858,802.294250 914.338867,811.942688 900.888245,819.285156 
	C892.553650,823.835022 883.978088,827.929932 874.965027,831.026978 
	C873.622070,831.488586 871.965759,831.569153 871.336548,833.302368 
	C872.602539,834.866821 874.362793,834.634705 875.940247,834.479004 
	C883.758362,833.707092 891.593994,834.078979 899.420227,834.028076 
	C904.502258,833.995056 909.758545,833.096313 914.177734,837.015381 
	C915.088623,837.823181 917.047668,837.578613 918.526062,837.594788 
	C925.358032,837.669678 932.190918,837.677734 939.023438,837.684082 
	C942.351501,837.687195 946.013367,837.896851 945.946045,842.188171 
	C945.879700,846.411621 942.402527,847.283875 938.733704,847.271301 
	C931.401306,847.246094 924.068726,847.283691 916.736206,847.296875 
	C915.569702,847.298950 914.395752,847.227844 913.238403,847.334167 
	C911.216675,847.520020 908.771118,847.786438 908.883118,850.365112 
	C908.978638,852.562622 911.239868,852.893738 913.138672,852.913391 
	C918.804260,852.972107 924.470581,852.952881 930.136230,853.007385 
	C931.797058,853.023376 933.490906,853.006042 935.109070,853.317871 
	C937.854431,853.847046 939.754578,855.420349 939.405273,858.476013 
	C939.083313,861.292480 937.014099,862.302856 934.423279,862.377136 
	C925.765381,862.625183 917.106506,863.037292 908.447937,863.039307 
	C680.973022,863.091919 453.498138,863.127258 226.023224,863.083374 
	C197.865799,863.077942 169.708466,862.611938 141.551147,862.353577 
	C140.552460,862.344421 139.547256,862.333801 138.557404,862.218262 
	C136.384338,861.964844 134.584152,861.006104 134.389145,858.649292 
	C134.185974,856.194092 135.610565,854.332764 137.920517,853.847168 
	C140.664322,853.270325 143.531769,853.085022 146.346817,853.075500 
	C165.011139,853.012451 183.676300,853.108093 202.339706,852.962830 
	C204.832977,852.943481 209.268402,854.407288 209.224274,850.461609 
	C209.180862,846.580261 204.756348,847.416870 201.916595,847.407227 
	C161.254700,847.269348 120.592552,847.202942 79.930527,847.097961 
	C77.939774,847.092773 75.891541,847.146973 73.974228,846.713196 
	C71.745132,846.208801 69.958588,844.758362 70.043701,842.213196 
	C70.120560,839.915100 71.833076,838.623901 73.881355,838.156494 
	C75.640182,837.755066 77.510262,837.734497 79.331635,837.729736 
	C106.325691,837.659363 133.319839,837.617676 160.313965,837.576233 
	C162.985977,837.572144 165.652679,837.547058 168.230072,836.715820 
	C169.260880,836.383301 170.045486,835.704590 170.004807,834.580078 
	C169.963654,833.442871 169.051178,832.757874 168.057297,832.592773 
	C166.590820,832.349121 165.077484,832.317993 163.584030,832.316956 
	C145.419312,832.304077 127.254601,832.316223 109.089890,832.311707 
	C107.591576,832.311340 106.078629,832.354004 104.598404,832.169067 
	C102.366913,831.890381 100.861076,830.654724 100.822197,828.276489 
	C100.784363,825.962402 102.163933,824.462219 104.314186,824.018127 
	C106.084183,823.652527 107.956139,823.703491 109.783028,823.701904 
	C140.113083,823.675903 170.443176,823.652527 200.773193,823.686584 
	C204.201172,823.690430 207.105331,823.509521 209.420990,820.152527 
	C211.856339,816.622009 216.174713,817.036438 220.003708,817.033386 
	C250.833679,817.008850 281.663696,817.021545 312.493683,817.014221 
	C391.985016,816.995361 471.476379,816.977478 550.967712,816.923340 
	C553.232056,816.921814 555.606750,817.462830 557.780212,816.239258 
	C558.193604,814.261292 556.515808,813.966125 555.479492,813.468201 
	C511.361053,792.272156 473.645447,761.815857 436.018585,731.182190 
	C402.736633,704.085815 367.084991,680.494873 329.686584,659.419373 
	C296.235443,640.568298 260.988678,625.544250 226.303070,609.290527 
	C186.718933,590.741272 147.847244,570.873596 115.050842,541.196411 
	C95.887054,523.855286 80.603508,503.619141 70.932533,479.528442 
	C62.541168,458.625183 61.167564,436.860321 64.198723,414.686096 
	C65.354515,406.231018 67.374130,398.056793 70.655312,390.150177 
	C72.957176,384.603424 76.689850,380.690796 82.078400,378.196991 
	C92.509071,373.369629 102.888710,368.430573 113.356689,363.686066 
	C117.252739,361.920227 119.701035,359.433014 120.744102,355.069885 
	C124.056778,341.213135 133.888626,333.175232 146.646393,328.958130 
	C155.384277,326.069824 160.600342,320.651703 165.074310,312.915070 
	C179.039627,288.765381 196.718918,267.650513 218.819336,250.393082 
	C228.440811,242.880035 237.638519,234.920975 243.385651,223.352448 
M634.400818,532.029968 
	C631.071106,526.262024 627.593079,520.573059 624.466125,514.697266 
	C622.518860,511.038208 620.345581,510.484314 616.890808,512.674561 
	C612.259888,515.610535 607.750183,518.792969 602.517456,520.684265 
	C595.563538,523.197693 588.088623,520.382629 584.663147,513.878418 
	C580.754456,506.456696 582.325439,499.649384 589.087952,495.115479 
	C593.097290,492.427460 597.124878,489.754700 601.265747,487.278290 
	C604.985168,485.053864 605.165833,482.325989 603.088074,478.917389 
	C599.533691,473.086212 596.127441,467.162994 592.489685,461.384979 
	C589.311096,456.336243 588.595520,456.318420 584.178223,460.143768 
	C580.657715,463.192474 577.392334,466.640320 573.524597,469.160309 
	C566.794250,473.545502 557.511475,470.966553 552.968628,463.975067 
	C548.493469,457.087708 549.960632,448.486816 556.514221,443.749115 
	C561.545471,440.111908 565.739380,435.608246 570.066284,431.214233 
	C572.504089,428.738556 572.556335,426.355682 570.856689,423.608917 
	C567.701294,418.509583 564.557922,413.402832 561.411255,408.298065 
	C559.453186,405.121460 557.152466,404.589294 553.962280,406.839355 
	C548.524536,410.674652 543.180786,414.673401 537.252686,417.769775 
	C529.868591,421.626709 521.527466,419.111420 517.138000,411.684204 
	C512.693420,404.163788 514.336304,397.316589 521.747375,392.343658 
	C527.695312,388.352478 533.606140,384.305756 539.565918,380.332428 
	C542.944153,378.080170 543.588074,375.218872 541.663818,371.733734 
	C539.169800,367.216705 536.677307,362.697723 534.102417,358.226685 
	C530.081177,351.244232 523.854858,347.446442 516.040039,346.187378 
	C504.051270,344.255768 492.502411,346.852264 481.092590,350.053375 
	C465.536926,354.417633 450.059174,358.955780 433.858582,360.490051 
	C388.021057,364.831116 350.494965,349.417542 321.586639,313.498413 
	C317.013519,307.816223 311.934143,302.841919 306.105988,298.460541 
	C303.290771,296.344177 300.648743,294.399414 296.717041,294.058350 
	C296.152008,296.578522 290.726746,297.443268 293.013885,300.387909 
	C296.558594,304.951660 297.020844,311.073120 301.608276,315.021057 
	C304.953003,317.899567 308.126801,321.242126 310.486908,324.944977 
	C315.686676,333.103180 323.915710,338.263672 330.345703,345.180847 
	C333.908386,349.013458 337.636719,353.976990 343.020508,356.247040 
	C347.014923,357.931305 349.533417,362.040131 353.466614,363.274475 
	C357.040466,364.396027 359.158264,369.681641 363.997925,367.095276 
	C364.078705,367.052094 364.422577,367.562958 364.677521,367.774445 
	C367.879639,370.430878 370.789276,373.244049 372.233337,377.365662 
	C373.031769,379.644562 373.970184,382.310974 375.715454,383.740753 
	C381.228607,388.257416 385.742584,393.584778 390.197998,399.072083 
	C392.243164,401.590942 395.002167,404.068634 398.514191,404.044189 
	C402.276184,404.018066 402.945190,406.045959 403.116791,408.994629 
	C403.208740,410.574799 402.450470,412.537323 404.366455,413.497986 
	C408.462952,415.551849 410.349762,419.288269 412.090485,423.178223 
	C413.386475,423.433594 413.429047,421.821472 414.416382,421.616974 
	C416.480865,425.241974 415.109406,430.542358 411.516998,431.764343 
	C414.411407,435.471161 416.660522,439.533783 421.205627,441.581604 
	C425.945007,443.716888 430.736450,445.513000 436.231201,446.599487 
	C436.160614,443.831329 434.891968,441.681488 436.677673,439.701874 
	C437.549713,442.714783 439.571289,443.009644 441.727844,441.653015 
	C446.713196,438.516907 450.932831,440.074646 454.670074,443.672546 
	C456.055695,445.006500 457.319611,445.408905 458.747009,445.053070 
	C459.988770,450.426239 464.905304,453.350128 466.873932,458.174225 
	C468.258606,461.567322 470.248901,464.726746 473.168030,467.505707 
	C475.460938,469.688629 476.471497,473.491058 478.643738,476.259247 
	C480.476624,478.594971 481.539093,480.993988 479.108459,483.868164 
	C477.427704,485.855682 477.975037,487.551544 480.543060,489.010529 
	C483.771027,490.844543 487.962189,493.169312 486.854523,497.439636 
	C485.691101,501.924957 486.680298,506.357178 487.502991,510.109619 
	C488.143799,513.032410 488.578339,520.078369 495.308136,518.222961 
	C496.780121,520.160706 494.981018,521.656616 495.365875,523.432922 
	C497.599182,522.945618 499.631531,522.919861 499.023621,526.068481 
	C498.842285,527.007812 499.221313,527.557007 499.604126,528.315491 
	C503.561523,536.155884 506.795563,544.490356 512.516724,551.208618 
	C514.905640,554.013916 518.466064,556.276794 522.349121,557.371765 
	C523.177063,559.274841 522.388855,562.160461 524.308472,563.153748 
	C528.289490,565.213562 529.057983,569.236206 530.843750,572.592712 
	C531.272400,573.398438 531.034485,573.867188 532.271240,574.319763 
	C536.074219,575.711426 539.475159,577.756897 536.645203,584.453613 
	C541.362976,579.076233 540.084106,588.779541 543.582947,584.767273 
	C545.214722,589.056091 541.412109,587.974182 539.554504,589.056213 
	C543.036621,588.828552 543.277588,593.685974 546.998291,593.031982 
	C547.734375,590.893188 547.729187,588.256165 549.584229,586.675537 
	C552.020569,587.023499 550.510681,590.026794 551.755310,590.244690 
	C557.371887,590.293762 561.514282,588.130432 566.026794,586.265808 
	C565.446350,580.693298 570.609497,578.137207 573.480103,574.794373 
	C575.545410,572.389282 580.794006,572.317566 584.240601,570.145630 
	C584.699402,569.856506 585.828186,570.431580 586.553284,570.793640 
	C602.354004,578.682434 616.082642,588.974670 626.270508,603.743103 
	C630.870422,610.411194 636.470337,616.381104 641.426025,622.814514 
	C646.563782,629.484314 651.470947,636.331787 656.960083,643.751831 
	C642.833313,646.296143 629.458862,643.410156 615.721130,643.461243 
	C616.977478,645.990723 618.481873,647.604858 620.042603,647.923035 
	C630.762329,650.108215 636.284241,660.553528 646.199951,664.065918 
	C649.640747,665.284607 649.205750,669.496338 645.524841,671.706421 
	C658.603882,677.604553 666.441833,688.971619 674.946045,698.506836 
	C685.942017,697.849976 690.722839,709.514038 700.436462,710.219543 
	C700.400208,706.945374 702.101440,706.224976 705.065369,707.186890 
	C707.810364,708.077881 710.173218,710.007812 713.460388,709.411621 
	C720.294067,708.172302 720.987427,708.713806 723.568909,715.469727 
	C725.375427,715.092834 726.554749,712.557495 728.974915,713.875916 
	C729.536316,715.332825 727.864319,717.589478 730.349731,718.520325 
	C736.326904,720.758850 742.167053,723.626648 748.338989,724.970764 
	C751.417053,725.641113 754.929443,726.225098 758.352417,725.802612 
	C767.292908,724.699219 775.911438,725.447449 783.683655,730.658447 
	C784.928589,731.493103 785.131104,732.119568 785.094727,733.755066 
	C785.035583,736.414551 787.048096,738.776672 789.909668,738.299927 
	C796.289124,737.237183 802.513367,739.556641 806.326050,743.123535 
	C812.074646,748.501587 817.294189,748.640808 823.947205,746.114868 
	C825.489868,751.132935 831.085510,749.091125 833.717163,752.598022 
	C836.278809,749.043640 838.692078,745.652405 841.230774,752.098267 
	C841.456177,752.670654 842.723572,752.759583 843.372681,753.250671 
	C846.357910,755.509277 849.817993,754.444946 853.001587,754.414490 
	C857.963257,754.367065 862.566345,756.631409 867.684937,755.785522 
	C881.258423,753.542358 894.845642,752.502991 908.640137,754.852356 
	C911.523560,755.343384 912.944397,756.299744 914.374817,758.678833 
	C916.539856,755.726135 918.072388,752.925354 920.904419,751.257690 
	C922.488220,750.325256 922.115845,748.739746 921.747009,747.213928 
	C918.478577,733.692078 911.517944,723.124146 898.329529,717.336914 
	C889.179382,713.321716 880.124268,709.090454 871.018860,704.972961 
	C842.906616,692.260681 815.489746,678.279053 789.658386,661.292664 
	C764.151855,644.519958 739.409241,626.775513 716.921326,606.040710 
	C714.959900,604.232239 712.939270,602.478333 709.826782,603.604675 
	C705.290955,605.245972 700.653137,606.606995 696.124329,608.266174 
	C687.527466,611.415771 679.050781,614.909302 670.384399,617.847839 
	C663.307495,620.247437 655.703308,616.275635 652.344604,609.007690 
	C648.975952,601.718140 650.916809,595.437988 657.984802,590.987976 
	C659.672485,589.925354 661.434692,588.954956 663.243530,588.116699 
	C666.576904,586.571899 667.076965,584.198608 665.344299,581.228638 
	C662.575928,576.483154 659.656799,571.825562 656.890564,567.078857 
	C654.966797,563.777710 652.386108,563.000000 648.884766,564.413879 
	C644.407593,566.221863 639.921936,568.036499 635.344666,569.562439 
	C628.953674,571.692993 620.415649,567.436646 617.595398,560.943054 
	C614.374023,553.525940 616.234985,547.499268 623.147217,543.494507 
	C626.169250,541.743713 629.371094,540.306274 632.452026,538.653320 
	C634.895752,537.342285 636.540649,535.639404 634.400818,532.029968 
M767.891724,818.812927 
	C742.136597,816.040283 717.063354,810.256226 692.444580,802.226501 
	C647.192932,787.467102 603.249512,769.783691 562.140808,745.503784 
	C521.525696,721.515320 488.662323,688.952393 458.735168,653.009399 
	C437.895905,627.981140 421.808990,599.620483 402.243378,573.653870 
	C376.468323,539.446350 344.614441,515.934875 302.031891,507.968048 
	C288.625824,505.459869 275.319031,502.381134 262.247620,498.466644 
	C244.946854,493.285583 228.721634,485.605591 213.149445,476.508636 
	C211.972748,475.821228 210.804260,474.741241 209.246292,475.814056 
	C212.067734,478.590729 214.316788,482.047821 217.502289,483.706787 
	C227.207169,488.761108 237.085938,493.589600 247.237839,497.654877 
	C267.879517,505.920715 289.811829,509.614960 311.325470,514.753357 
	C337.220551,520.938171 360.072784,532.382507 378.064728,552.531067 
	C392.399536,568.584045 405.493744,585.602051 417.868317,603.187927 
	C418.513336,604.104614 419.427765,605.604553 419.097839,606.308411 
	C417.037720,610.703430 420.239166,613.091858 422.346710,615.976746 
	C424.506989,618.933777 426.580505,621.956543 428.620483,624.998535 
	C452.686279,660.885620 480.050079,693.924011 513.736206,721.226074 
	C552.347473,752.519836 596.279907,774.255249 642.723145,791.202820 
	C657.424744,796.567627 672.326782,801.356934 687.410889,805.577698 
	C690.322205,806.392334 694.200378,806.335510 695.420227,811.023438 
	C689.142456,810.317383 683.357544,809.176941 677.681580,807.502380 
	C640.204163,796.445129 604.081116,782.167297 569.462463,763.869019 
	C520.992310,738.249329 481.398346,702.501953 447.625610,659.809387 
	C425.200195,631.461121 405.104645,601.318726 381.352753,573.987061 
	C365.509674,555.756104 347.604370,540.540955 324.592133,531.873413 
	C308.130646,525.673218 290.850922,522.813721 273.967194,518.363953 
	C254.281418,513.175720 235.066376,506.922363 217.138046,497.099274 
	C213.821716,495.282257 210.843948,492.619965 206.549545,491.984406 
	C207.341599,494.480316 208.749344,495.698608 210.504074,496.817963 
	C221.183746,503.630676 232.469757,509.258423 244.210617,513.939880 
	C262.072571,521.062073 280.909454,524.646057 299.604156,528.655701 
	C328.441010,534.840759 352.743469,548.601196 371.879639,571.186890 
	C373.076874,572.599915 375.110840,573.656189 374.627014,576.119263 
	C372.452240,576.771118 371.631958,574.925415 370.467987,573.952637 
	C364.697937,569.130676 358.497894,564.987366 352.005676,561.177612 
	C329.209412,547.800293 304.019562,541.594238 278.500153,536.427368 
	C244.230774,529.488831 211.992126,517.826965 183.345734,497.203308 
	C162.246307,482.013000 144.870941,463.145020 128.888458,442.897552 
	C126.893936,440.370697 123.658203,438.093292 123.288651,434.971802 
	C122.788811,430.749756 120.799255,428.158234 117.906952,425.419800 
	C114.140297,421.853516 114.391197,416.403992 117.542946,412.135803 
	C122.378471,405.587372 129.250824,402.745331 136.838318,401.104736 
	C141.847015,407.511658 147.118820,413.474670 153.391190,418.911041 
	C160.740875,425.281067 167.086578,432.809265 175.249969,438.418304 
	C178.329987,440.534515 181.585449,443.350250 183.311401,446.374023 
	C185.341232,449.930115 187.851456,451.997375 191.043625,454.151184 
	C197.802902,458.711761 205.732346,460.672394 212.728577,464.572266 
	C220.000946,468.626068 227.469818,472.250946 235.019089,475.711365 
	C258.491119,486.470428 283.384796,492.696350 308.538727,497.723297 
	C343.708649,504.751953 373.965240,519.961548 396.840088,548.246399 
	C412.531708,567.649231 428.344818,586.958496 443.746155,606.589966 
	C457.499481,624.120911 471.361206,641.533325 486.349121,658.041687 
	C501.242615,674.446045 516.946594,689.971863 533.700317,704.495850 
	C545.086731,714.366699 557.724243,722.333008 570.280212,730.479492 
	C571.238708,731.101318 572.327271,731.727295 573.470642,730.681213 
	C574.102295,728.776001 572.686462,727.941650 571.491211,727.100952 
	C568.506531,725.001404 565.368164,723.111023 562.458435,720.915527 
	C538.078674,702.520264 515.864136,681.741089 494.755493,659.706909 
	C478.412048,642.646912 463.580627,624.258423 448.552948,606.115051 
	C435.422668,590.262390 422.583130,574.076904 410.222595,557.563477 
	C384.089386,522.650024 349.682770,501.383026 306.698273,493.238098 
	C280.197174,488.216553 254.064590,481.438446 229.642166,469.350769 
	C207.476303,458.379913 186.414886,445.874512 168.665329,428.317932 
	C153.347931,413.166992 138.578690,397.599884 127.767883,378.762695 
	C125.750908,375.248230 123.561409,374.844360 120.029243,376.784576 
	C112.879601,380.711761 105.575951,384.379028 98.199005,387.863861 
	C94.158379,389.772705 92.871506,391.955109 94.659004,396.442871 
	C101.210510,412.891296 108.599152,428.908844 118.432678,443.665344 
	C149.431854,490.183655 189.681015,524.488281 244.204559,540.974304 
	C268.197906,548.229187 292.942841,551.843506 317.003876,558.573608 
	C342.324097,565.656067 364.392395,577.954468 382.291779,597.329773 
	C394.069214,610.078308 403.846893,624.451477 414.779297,637.880249 
	C423.441711,648.520691 429.325836,661.768616 442.422760,668.467346 
	C443.216095,668.873169 443.897186,670.428345 443.843719,671.405640 
	C443.543823,676.886169 446.609070,678.550720 451.426392,678.329956 
	C450.137543,684.491150 452.953186,687.425293 459.629059,687.080139 
	C458.540314,690.809570 458.396454,691.062378 460.477692,693.208496 
	C474.377197,707.541504 486.749725,723.565857 504.529510,733.639648 
	C507.391113,735.260986 508.706757,738.319458 511.672150,739.886414 
	C516.870544,742.633301 521.774109,745.941467 526.780273,749.048157 
	C534.809631,754.030884 542.808594,759.062683 550.850464,764.025208 
	C552.955200,765.324036 555.055603,767.154114 557.354431,767.525940 
	C569.089722,769.424133 578.670410,776.041260 588.330322,782.014709 
	C597.449402,787.653625 606.802307,792.124146 617.157166,794.666870 
	C619.111328,795.146729 621.459900,796.600281 621.445984,798.180237 
	C621.421387,800.976685 623.614807,801.072815 624.865601,801.763977 
	C627.241028,803.076416 630.017517,803.663025 632.858582,804.629761 
	C631.829529,801.261902 633.163147,801.624084 635.444336,801.963379 
	C651.984436,804.423828 667.031860,812.179138 683.379883,815.311096 
	C688.240540,816.242249 692.913147,817.417358 698.032166,817.340942 
	C704.346863,817.246704 710.753540,816.854187 717.086670,819.423889 
	C721.864746,821.362549 727.506104,822.323975 732.645447,821.976990 
	C742.600098,821.304932 752.270630,824.234741 762.132263,823.438049 
	C765.753845,823.145447 767.081726,826.889893 770.475769,827.297668 
	C784.066162,828.930298 797.526245,825.888855 811.096741,826.485291 
	C814.441406,826.632324 818.524841,823.321716 821.318726,823.328064 
	C828.975342,823.345459 836.337158,820.135925 844.033569,821.672729 
	C845.562195,821.977905 847.583435,822.097351 848.672974,820.606628 
	C850.945679,817.496826 854.797607,817.111328 857.572754,814.485291 
	C858.567505,818.392395 860.365234,819.341858 863.167786,816.867188 
	C864.917297,815.322327 866.719116,813.901001 869.154419,813.986328 
	C872.191589,814.092712 874.881409,810.624268 876.219543,810.901672 
	C883.280762,812.365662 888.207092,808.048706 893.809753,805.654358 
	C895.751770,804.824341 898.029785,803.936401 898.864014,801.661743 
	C897.426331,800.172668 896.109985,800.781372 894.811218,800.927551 
	C870.209839,803.696594 845.564392,803.646057 821.043152,800.601074 
	C773.270325,794.668823 727.641602,781.155945 683.784485,761.245605 
	C631.173523,737.361267 583.963806,705.377869 542.938721,664.998291 
	C496.880615,619.664917 455.008728,570.612183 422.940796,514.060852 
	C409.354309,490.101288 389.684509,474.957428 363.534821,466.950897 
	C344.385345,461.087708 324.911011,456.736176 305.456787,452.227081 
	C270.983490,444.236877 237.729721,433.341461 208.568924,412.483429 
	C184.812592,395.491089 164.016083,375.918518 153.161621,347.843201 
	C152.273438,345.545898 150.799347,344.416718 148.121094,345.008484 
	C141.866272,346.390503 136.493729,352.452057 136.185654,358.859039 
	C135.883545,365.142181 138.105698,370.769775 141.833435,375.560150 
	C144.085342,378.453949 147.216064,381.129456 151.592407,379.386597 
	C151.963821,378.172943 149.890762,377.281372 151.458054,376.163940 
	C154.633087,376.965302 157.441498,378.175812 159.866714,380.669037 
	C162.417999,383.291870 164.729568,386.077759 167.095459,388.845001 
	C175.169281,398.288452 184.616409,406.312683 194.211777,414.094116 
	C202.231567,420.597839 211.084152,426.079895 219.050034,432.643005 
	C224.656601,437.262238 230.303574,440.728851 237.557617,442.445435 
	C240.399918,443.118042 243.724167,443.390259 246.783691,444.921783 
	C251.773758,447.419739 256.401276,450.634338 261.630249,452.708740 
	C265.460114,454.228088 269.391052,453.739990 273.272980,454.207825 
	C279.283997,454.932281 284.955505,457.356171 290.837341,458.810760 
	C296.085632,460.108673 302.486023,459.555267 306.425079,464.375702 
	C309.082886,467.628235 311.576508,468.848267 314.762299,465.628632 
	C316.759369,466.913971 318.210388,468.473022 320.297058,468.653442 
	C328.927612,469.399567 337.096161,471.761047 345.260834,474.659790 
	C356.770142,478.745972 368.253754,481.699677 378.195007,490.150024 
	C389.601532,499.845947 401.811340,508.407959 407.734161,522.688721 
	C408.791473,525.237976 412.847290,526.452698 411.378571,529.560120 
	C409.811493,532.875671 411.239380,535.202393 412.388977,537.981812 
	C414.155579,542.252930 417.454163,545.369141 420.203918,548.847839 
	C424.792694,554.653076 426.876984,562.689209 435.011078,565.509338 
	C436.385742,565.986023 437.780975,568.247498 438.015594,569.852661 
	C439.096893,577.250305 443.634186,581.987854 449.439941,585.920471 
	C450.682892,586.762390 452.020813,587.615234 452.337067,589.197021 
	C453.431580,594.671265 457.950897,597.570251 461.423676,601.197571 
	C463.066040,602.912964 465.144836,602.959534 466.118469,600.146606 
	C468.890076,602.197144 470.427917,604.328003 471.064240,607.871033 
	C471.569824,610.686096 471.070404,613.940613 472.983673,616.561157 
	C480.629150,627.033142 489.345184,636.569458 498.228363,645.982178 
	C500.110352,647.976379 501.532867,647.294678 503.160950,645.907166 
	C504.423431,648.252441 502.810516,651.126465 504.849976,652.374268 
	C509.154175,655.007507 511.157227,659.442322 514.158142,663.101562 
	C522.409058,673.162476 532.519470,681.341736 542.135315,689.971619 
	C551.888916,698.725281 561.002869,708.293823 572.363403,715.182861 
	C574.969177,716.763062 577.262634,717.383362 580.979553,714.991028 
	C579.269775,719.627625 581.504944,721.159912 583.997681,722.883545 
	C587.645447,725.405945 592.571777,726.610962 594.835449,730.442444 
	C597.088684,734.256165 601.637390,732.295166 603.799622,735.305664 
	C607.560547,732.684143 609.539612,735.669006 611.586243,737.931213 
	C612.606812,739.059448 613.299866,739.338135 614.317322,738.148499 
	C616.198303,741.016785 620.063904,739.638123 622.563721,742.952820 
	C626.176819,747.743713 632.022522,750.929504 638.907166,750.841980 
	C639.159058,752.804810 640.605164,754.132568 642.235596,755.171631 
	C646.373413,757.808533 651.717468,758.690674 654.001221,763.998535 
	C654.620056,765.436584 656.872681,766.268738 658.424438,765.476379 
	C661.114929,764.102539 663.217468,765.661743 665.498596,766.268372 
	C673.731140,768.457581 679.938354,774.653381 688.729675,776.598938 
	C697.357422,778.508423 705.997437,782.006653 714.345459,785.711548 
	C719.614990,788.050232 726.087585,787.625427 731.437683,789.845093 
	C747.255615,796.407837 763.870483,799.927063 780.437073,803.621765 
	C786.781372,805.036682 793.321289,807.394836 799.406494,807.626831 
	C808.287720,807.965454 816.994141,809.088928 825.732666,809.689697 
	C825.963074,811.469666 826.148132,812.899048 826.442078,815.169800 
	C823.398682,812.458679 821.672485,815.946289 819.101135,815.691711 
	C808.127625,814.605286 797.145569,813.584106 786.152466,812.720032 
	C763.396118,810.931213 741.333252,805.422852 719.391846,799.688782 
	C682.395447,790.020203 646.866211,776.210571 612.356750,759.752930 
	C583.539856,746.010071 556.019043,730.247803 531.613037,709.403259 
	C503.648315,685.519104 478.668427,658.806213 455.427856,630.370239 
	C450.788177,624.693298 446.516998,618.592712 440.818329,613.570374 
	C437.928528,616.345886 439.551758,618.416809 440.980957,620.445190 
	C455.380646,640.881287 470.867981,660.378418 487.881409,678.780212 
	C516.508728,709.743591 549.734070,734.325317 586.916504,753.916382 
	C605.962341,763.951416 625.628296,772.507446 645.601746,780.470398 
	C667.427612,789.171814 689.539856,796.990723 712.202148,803.199524 
	C726.495789,807.115479 740.914917,810.720215 755.629211,812.444031 
	C768.694092,813.974731 781.399902,817.891968 794.659302,818.006958 
	C796.782959,818.025391 799.060181,818.224609 802.144897,820.188232 
	C790.022278,822.553711 779.438599,819.533508 767.891724,818.812927 
M652.662292,825.991760 
	C625.560486,819.298462 599.705078,809.257568 574.450439,797.440674 
	C523.216370,773.467590 479.490936,739.849243 443.554565,696.183411 
	C424.290924,672.776428 405.304352,649.141418 386.169189,625.628540 
	C384.436188,623.499084 382.784332,621.205872 379.083679,619.711182 
	C381.067535,624.217529 383.339844,627.412781 385.701019,630.529297 
	C396.261566,644.468262 406.836884,658.396301 417.459045,672.288330 
	C430.915283,689.886902 444.386749,707.478271 459.473541,723.743652 
	C484.026093,750.214172 512.072998,772.206604 543.638611,789.780457 
	C571.949951,805.542542 601.122559,819.248779 632.336914,828.277771 
	C657.702026,835.614746 683.571350,840.173279 709.935913,841.533691 
	C724.957947,842.308716 740.005859,842.094299 755.010071,839.953125 
	C720.758667,838.187927 686.786865,834.561340 652.662292,825.991760 
M97.400055,445.177948 
	C99.267502,448.701263 101.073441,452.258820 103.012611,455.742188 
	C113.672539,474.890991 127.880295,491.090546 144.334991,505.429657 
	C145.472809,506.421234 147.646896,507.465271 146.221344,509.383606 
	C144.873978,511.196655 143.128281,509.728546 141.804153,508.876556 
	C135.350830,504.724548 129.255875,500.094452 123.826546,494.649689 
	C106.463074,477.236847 95.119804,456.075775 85.902420,433.597992 
	C85.241631,431.986572 85.094185,430.012665 83.081505,429.344757 
	C81.864120,430.097015 82.137047,431.212921 82.356483,432.098206 
	C84.483101,440.677399 87.587791,448.899902 91.229630,456.954193 
	C91.925529,458.493286 93.897285,458.066254 94.189423,460.353333 
	C94.939087,466.222137 99.238983,470.590851 101.893211,475.674683 
	C102.442299,476.726410 103.359131,477.714447 104.693382,477.283661 
	C107.190018,476.477539 107.898544,478.226715 108.776970,479.851990 
	C111.243599,484.415710 114.336525,488.554260 116.590286,493.342224 
	C118.416687,497.222290 123.878838,498.853302 126.659744,502.830078 
	C128.007248,504.757080 129.651733,507.325348 133.183380,505.413147 
	C134.255249,504.832764 137.004242,506.592468 136.665619,508.055878 
	C135.874161,511.476105 138.435150,512.512695 140.193527,513.645691 
	C145.907837,517.327454 151.912201,520.555298 157.733841,524.075439 
	C162.990753,527.254028 168.199097,530.518982 173.329086,533.897400 
	C174.697708,534.798706 176.773132,535.594299 175.728409,538.928833 
	C157.441940,532.917542 141.299225,523.125305 125.288513,511.889557 
	C125.490021,514.485168 124.230270,516.429382 126.627403,517.911194 
	C132.537827,521.564758 138.232666,525.572754 144.195663,529.134399 
	C159.762741,538.432434 176.055405,546.383545 192.138107,554.726257 
	C195.082657,556.253723 198.480179,557.658936 200.046097,562.847229 
	C178.356842,556.746826 160.279266,545.000793 140.632767,535.934448 
	C140.294968,540.966614 144.068649,543.584595 146.526840,544.233215 
	C153.288315,546.017456 156.827209,552.102234 162.835236,554.758362 
	C166.679108,556.457764 169.542557,561.674500 173.460602,561.563721 
	C177.952728,561.436707 181.202728,563.672180 185.051025,564.338928 
	C191.273132,565.417053 195.664917,570.523438 202.267761,571.228333 
	C201.521088,573.455994 201.516464,575.151367 204.544296,575.881287 
	C206.569107,576.369324 209.361038,577.831543 209.918198,579.492310 
	C211.781357,585.046387 215.706787,585.865906 220.502243,585.202820 
	C222.243088,584.962036 223.662338,585.191040 224.360962,586.638123 
	C227.666336,593.484741 234.784393,593.653198 240.892426,596.954041 
	C240.255020,594.174194 238.586868,593.230286 237.374557,591.978333 
	C211.293762,565.044983 184.357452,538.961548 157.989838,512.309937 
	C132.376007,486.420349 109.299706,458.966919 92.541687,426.462921 
	C90.353508,422.218719 89.321968,417.251526 85.078514,412.837524 
	C87.711105,424.722198 92.491554,434.571136 97.400055,445.177948 
M228.421356,290.051575 
	C225.002670,285.748962 221.614868,281.421265 218.150497,277.155762 
	C216.712372,275.385010 215.166702,272.848297 212.525864,275.034912 
	C210.086975,277.054321 211.746262,279.325470 213.187973,281.181976 
	C215.842926,284.600739 218.684753,287.873779 221.366394,291.272491 
	C251.801910,329.846497 283.867676,367.069000 315.306641,404.812286 
	C325.179626,416.665039 336.553101,427.419983 343.573914,441.497101 
	C343.955475,442.262207 344.740479,442.661011 345.901978,442.224548 
	C347.556946,440.189362 346.462830,437.971313 345.855164,435.799774 
	C343.099945,425.953552 336.095673,418.803833 329.755676,411.393311 
	C295.648987,371.528015 262.111145,331.191315 228.421356,290.051575 
M571.503540,356.814606 
	C576.210144,356.027832 574.530518,352.922119 573.766724,350.309692 
	C567.235596,327.970886 560.301208,305.750580 554.430420,283.218628 
	C551.705566,272.760773 548.912537,262.301483 545.595703,252.021820 
	C541.256897,238.574799 524.519470,240.246674 517.178528,249.339905 
	C525.446106,245.870895 533.346680,242.910355 539.057861,250.021210 
	C544.010498,256.187561 546.643250,263.674225 538.423035,270.923462 
	C543.374817,271.897461 544.424988,274.889557 545.397095,278.198181 
	C552.613770,302.761688 559.941040,327.292755 567.225769,351.836304 
	C567.837524,353.897400 568.110046,356.177307 571.503540,356.814606 
M248.908951,243.354141 
	C243.641983,249.606796 237.846237,255.317200 231.515259,260.495880 
	C230.166336,261.599243 227.789627,262.734894 228.784622,264.730560 
	C230.367126,267.904633 231.910660,272.202057 235.812668,272.420685 
	C238.926605,272.595215 241.252640,269.815674 243.027664,266.558411 
	C246.248123,260.648682 248.329559,254.260757 252.281708,248.577560 
	C257.737946,240.731491 262.401672,231.945526 264.416107,222.570511 
	C266.963257,210.715973 270.079010,199.002930 272.598877,187.148529 
	C273.860413,181.213623 279.022125,177.648941 285.072052,178.117981 
	C286.312225,178.214142 287.695557,179.143158 288.582245,177.072739 
	C286.410400,173.878784 283.349731,172.826950 279.619781,173.795654 
	C274.092773,175.231033 270.796173,179.092270 269.375702,184.391388 
	C268.044037,189.359299 267.191071,194.457428 266.176910,199.508209 
	C263.083588,214.914108 259.513184,230.129532 248.908951,243.354141 
M426.936157,701.204163 
	C427.100739,701.221313 427.287537,701.294189 427.423553,701.239807 
	C427.555267,701.187134 427.747009,700.970093 427.720795,700.882629 
	C426.880890,698.076416 424.744873,696.121094 422.997253,693.945190 
	C413.200775,681.747864 403.314087,669.623108 393.477844,657.457703 
	C378.201752,638.564392 364.200897,618.659424 348.195007,600.347168 
	C346.701019,598.637878 345.504028,596.352051 342.664490,595.826477 
	C342.688141,598.640564 344.040710,600.359253 345.319611,602.075928 
	C363.912476,627.033569 382.621185,651.907776 402.126160,676.159973 
	C409.393036,685.195496 416.242371,694.777588 426.936157,701.204163 
M220.150940,323.646088 
	C223.742310,322.547607 228.033524,323.811951 231.509598,320.541260 
	C228.663712,318.531647 225.930267,319.100769 223.411087,319.393524 
	C212.180908,320.698547 200.918030,321.790955 189.802185,323.953430 
	C187.373657,324.425842 184.914459,324.983551 182.583511,323.579437 
	C184.100357,316.388702 189.037216,311.230164 195.659470,310.212830 
	C201.574646,309.304077 207.536819,308.704865 213.468658,307.898529 
	C214.841309,307.711914 216.584824,308.062256 217.363632,305.459930 
	C209.750015,302.357666 201.992081,307.540924 193.580948,305.546539 
	C197.786102,299.810242 199.593811,293.313171 206.775055,291.100891 
	C204.175735,287.371307 201.852432,286.471802 199.120773,290.106537 
	C197.520889,292.235382 195.933426,294.373688 194.357147,296.520081 
	C187.159836,306.320679 180.581497,316.526398 174.451462,327.023010 
	C173.711319,328.290344 172.583084,329.741425 174.167023,331.027344 
	C175.543320,332.144653 176.654846,330.880280 177.606857,330.008545 
	C179.869690,327.936493 182.748306,327.711487 185.530472,327.390778 
	C196.765900,326.095703 208.014465,324.914673 220.150940,323.646088 
M377.777863,660.712036 
	C375.037445,657.356812 372.246918,654.041138 369.564819,650.639954 
	C353.675476,630.490479 337.841461,610.297119 321.899170,590.189697 
	C319.978668,587.767395 318.352966,584.768250 314.629883,583.725647 
	C314.955963,586.659790 316.470490,588.458130 317.792236,590.331970 
	C335.179108,614.981934 353.936493,638.593445 372.484467,662.361450 
	C375.907745,666.748169 380.541016,669.706665 385.181000,672.528748 
	C385.452972,672.212158 385.724945,671.895508 385.996887,671.578857 
	C383.400452,668.144409 380.804047,664.709900 377.777863,660.712036 
M561.753601,385.988983 
	C570.346313,381.012421 578.542297,375.295441 588.060547,372.050079 
	C589.728821,371.481262 591.917236,370.989685 591.632629,368.579102 
	C591.349304,366.179596 589.304993,365.570648 587.237610,365.274902 
	C583.934143,364.802338 581.021606,365.837952 578.275879,367.588959 
	C564.133789,376.607605 549.794983,385.328674 536.171631,395.134125 
	C533.292786,397.206177 529.868469,398.782471 527.976990,402.441986 
	C531.688782,404.699402 534.844666,402.854126 537.504578,401.298981 
	C545.567627,396.584808 553.382629,391.446442 561.753601,385.988983 
M589.817322,435.335358 
	C594.293030,429.560089 598.730774,423.754852 603.258545,418.020660 
	C606.041077,414.496613 604.223083,411.389618 601.780884,409.257111 
	C598.897888,406.739655 597.662109,410.316956 596.054321,411.938416 
	C595.708374,412.287292 595.465332,412.740753 595.188477,413.155121 
	C586.403625,426.302948 576.936646,438.905609 565.774109,450.167480 
	C564.652649,451.298920 563.294800,452.477631 564.407227,455.855316 
	C574.493286,451.033813 582.494568,444.227020 589.817322,435.335358 
M544.150574,309.487152 
	C545.551453,318.515198 547.778381,327.426514 552.143799,335.390137 
	C556.540466,343.410828 554.997620,353.833954 562.273865,361.404419 
	C564.090332,356.667511 543.207703,284.042053 539.161438,278.603516 
	C536.417725,283.226074 539.114685,299.778107 544.150574,309.487152 
M290.856354,309.617889 
	C288.793915,307.085632 287.594757,303.750000 284.286957,302.036713 
	C283.222168,304.713226 284.949585,306.344727 285.860931,307.860626 
	C291.896912,317.900421 298.120087,327.835968 306.122375,336.491364 
	C309.367401,340.001251 313.229980,343.088409 315.828033,347.018127 
	C321.690186,355.884827 329.694000,362.156433 338.678406,367.302917 
	C347.416290,372.308167 351.501709,373.315796 357.688660,372.906921 
	C347.446381,367.785400 337.487671,362.694550 329.475983,354.788971 
	C315.504303,341.002380 302.128876,326.672150 290.856354,309.617889 
M346.475433,644.792603 
	C329.587524,623.132202 312.711456,601.462524 295.786896,579.830811 
	C294.566528,578.270996 293.471283,576.125244 290.592499,576.782532 
	C290.351654,580.204773 292.653809,582.167175 294.264313,584.318420 
	C308.823425,603.766235 323.464996,623.152344 338.091614,642.549622 
	C340.587860,645.860046 344.130463,647.278503 348.827332,648.591858 
	C347.845245,646.968079 347.348175,646.146240 346.475433,644.792603 
M639.116211,478.722198 
	C619.382263,487.518677 598.209534,500.549652 596.551636,505.085876 
	C598.776245,506.359772 600.787354,503.699219 602.672180,504.488281 
	C607.270813,506.413452 610.038147,503.469666 613.349243,501.263733 
	C619.505005,497.162537 625.542358,492.715271 632.952698,490.997253 
	C637.681824,489.900848 641.926392,487.827332 645.734070,484.873566 
	C646.835876,484.018860 648.629700,483.399750 648.153381,481.489410 
	C647.716064,479.735199 646.204285,478.873077 644.671326,478.156189 
	C643.000854,477.375061 641.415710,478.186920 639.116211,478.722198 
M293.379608,600.093323 
	C286.245239,591.081604 279.153656,582.035278 271.934143,573.092346 
	C270.740845,571.614197 269.680786,569.347656 267.011200,569.934692 
	C266.677429,571.947144 267.743134,573.134399 268.601501,574.299072 
	C281.248688,591.458740 293.908203,608.609558 306.646790,625.701355 
	C308.433105,628.098145 310.924957,629.508789 315.436157,629.028442 
	C307.848114,619.073181 300.831238,609.867310 293.379608,600.093323 
M266.150879,589.320984 
	C259.883942,581.361694 253.641037,573.383301 247.331116,565.458191 
	C245.958176,563.733887 244.610062,561.578003 241.877823,562.774170 
	C241.272446,564.432373 242.259796,565.273010 242.931473,566.155945 
	C254.995087,582.014954 267.087616,597.851929 279.156708,613.706787 
	C281.100769,616.260620 283.682648,617.151184 287.973846,617.255615 
	C280.427155,607.595764 273.509064,598.740540 266.150879,589.320984 
M656.501099,542.024231 
	C649.736084,543.821106 643.116272,546.066345 636.722839,548.899536 
	C634.472473,549.896729 630.069031,550.271606 631.079163,553.216064 
	C632.262634,556.665894 635.864197,554.139038 638.414062,553.415283 
	C652.702332,549.359619 666.452759,542.783020 681.902039,544.139832 
	C682.086487,544.156006 682.314392,543.677490 682.907837,542.969788 
	C680.493896,538.994751 676.666199,538.028015 672.430420,538.678528 
	C667.344299,539.459717 662.333496,540.731140 656.501099,542.024231 
M209.121719,373.592133 
	C227.804840,370.912659 246.659790,369.359589 266.328552,365.890350 
	C261.293030,362.473846 198.216614,370.157257 193.805359,374.092407 
	C198.919586,375.654938 203.574478,373.724579 209.121719,373.592133 
M235.492035,353.820251 
	C241.946991,352.590424 248.767624,353.077240 254.752182,349.358459 
	C230.457062,350.324432 206.553192,354.081177 182.625427,357.653320 
	C182.720367,358.473785 182.815292,359.294220 182.910217,360.114685 
	C200.213837,358.762451 217.401642,356.231812 235.492035,353.820251 
M680.968262,598.473877 
	C691.287170,593.750366 702.712036,592.200256 713.487549,587.888489 
	C711.298950,583.535889 707.984375,583.767639 705.024902,584.673340 
	C692.646057,588.461853 680.360168,592.555237 668.579529,597.989624 
	C666.887512,598.770203 664.825012,599.501404 665.078674,602.309326 
	C671.006531,604.327820 675.107483,599.299561 680.968262,598.473877 
M196.246201,342.705109 
	C209.624939,341.032013 223.007126,339.385620 236.378418,337.655060 
	C238.239197,337.414307 240.459305,337.469269 241.187119,335.000946 
	C237.204559,332.671814 177.270172,340.694397 174.280518,344.528259 
	C181.765411,345.290710 188.500244,342.991150 196.246201,342.705109 
M239.563385,385.930023 
	C252.030197,384.169617 264.654633,383.357147 276.921509,380.394226 
	C272.694397,377.480347 214.616516,384.482208 209.850296,388.646240 
	C220.330246,389.324127 229.455170,386.891327 239.563385,385.930023 
M289.735229,395.109894 
	C287.010559,391.377625 283.181732,393.376617 280.052063,393.711761 
	C264.871552,395.337311 249.738251,397.403900 234.589005,399.320465 
	C232.824188,399.543762 230.885468,399.437012 229.873505,401.721130 
	C231.247192,403.639893 233.080948,403.377167 235.132431,403.090393 
	C244.006134,401.849976 252.919296,400.883057 261.780304,399.562897 
	C270.948395,398.196991 280.300720,398.112061 289.735229,395.109894 
M271.437714,414.775299 
	C282.244324,413.086365 293.237518,412.485321 304.669464,409.968903 
	C300.274536,406.334259 260.977875,411.489746 257.096313,415.979462 
	C262.033173,416.524750 266.283875,415.393829 271.437714,414.775299 
M684.637085,568.165283 
	C684.949219,567.048706 685.345581,565.947876 685.556946,564.812561 
	C686.085632,561.972839 685.279968,559.875488 682.158325,559.239136 
	C679.206299,558.637268 677.867126,560.254395 677.249390,562.844421 
	C676.903870,564.293335 676.502136,565.731262 676.217834,567.192078 
	C675.561279,570.566101 673.994446,575.149353 678.424072,576.093811 
	C682.619690,576.988403 683.357422,572.182922 684.637085,568.165283 
M611.414856,433.641876 
	C607.130615,435.410370 602.572937,436.759735 599.365356,440.818451 
	C600.333801,441.432892 600.715820,441.866547 601.143860,441.918213 
	C607.937805,442.738342 614.025391,439.598907 620.350891,438.075256 
	C623.016479,437.433167 621.456726,434.758423 619.495911,433.723694 
	C617.189148,432.506439 614.658325,433.070282 611.414856,433.641876 
M284.049774,428.080078 
	C295.061401,429.013184 305.663666,426.423065 316.316498,424.295715 
	C316.503448,424.258423 316.596283,423.749634 316.751862,423.421051 
	C315.705780,421.481384 313.852783,422.059540 312.338318,422.233459 
	C303.612122,423.235626 294.899170,424.355072 286.186554,425.472351 
	C285.018005,425.622223 283.879486,425.987946 284.049774,428.080078 
M655.561218,527.052246 
	C661.521423,524.191284 662.557495,517.992188 657.844299,513.519409 
	C656.940002,512.661255 656.053345,512.085388 654.786865,512.772583 
	C652.852600,513.822266 649.630066,524.058594 650.640625,526.068970 
	C651.592529,527.962463 653.156799,527.928650 655.561218,527.052246 
M627.099670,462.108582 
	C625.463379,461.344360 624.501648,462.648407 624.976135,463.602844 
	C625.876587,465.414062 625.834717,468.348816 629.021484,468.508179 
	C630.206787,465.958710 628.658203,464.287994 627.099670,462.108582 
z"/>
<path fill="#000000" opacity="1.000000" stroke="none" 
	d="
M426.000000,879.331665 
	C340.527344,879.337280 255.554688,879.342590 170.582031,879.339722 
	C168.417648,879.339600 166.225708,879.446716 164.095993,879.149780 
	C161.558456,878.796082 159.693344,877.291382 159.661758,874.554504 
	C159.630051,871.808044 161.492554,870.330994 164.008011,869.877686 
	C165.628555,869.585632 167.327728,869.694397 168.991989,869.685364 
	C397.077667,868.451416 625.165161,869.086853 853.252014,869.026367 
	C855.741333,869.025696 858.274048,869.052673 860.708679,869.495117 
	C863.465515,869.996033 865.264954,871.912415 864.894409,874.802979 
	C864.548279,877.502258 862.852722,879.316833 859.825195,879.331543 
	C857.825989,879.341248 855.826782,879.372131 853.827576,879.372437 
	C812.674072,879.378906 771.520630,879.390564 730.367126,879.384949 
	C629.078064,879.371094 527.789062,879.348999 426.000000,879.331665 
z"/>
<path fill="#000000" opacity="1.000000" stroke="none" 
	d="
M643.046692,895.387573 
	C534.307312,895.381226 426.058136,895.373108 317.808960,895.360840 
	C316.644470,895.360657 315.472595,895.377563 314.317169,895.259399 
	C312.473206,895.070801 311.192596,894.087585 310.863281,892.208435 
	C310.496826,890.117004 311.520721,888.654358 313.327148,887.769043 
	C315.347290,886.778870 317.563568,887.016296 319.717957,887.016235 
	C431.807159,887.014893 543.896362,887.021851 655.985596,887.046082 
	C657.809692,887.046448 659.654541,887.138306 661.452759,887.421875 
	C663.821106,887.795349 665.606262,889.026550 665.324158,891.726379 
	C665.035767,894.485352 663.240112,895.766418 660.510620,895.719360 
	C654.852478,895.621704 649.194763,895.498413 643.046692,895.387573 
z"/>
<path fill="#000000" opacity="1.000000" stroke="none" 
	d="
M780.000000,887.037231 
	C790.487854,887.029785 800.475708,886.999512 810.463440,887.036011 
	C812.282104,887.042664 814.142700,887.130188 815.906616,887.525391 
	C817.970398,887.987793 819.720520,889.129150 819.350708,891.643250 
	C819.022766,893.872559 817.587280,895.175720 815.281982,895.327332 
	C813.955078,895.414612 812.621094,895.420898 811.290344,895.420410 
	C782.991455,895.409973 754.692627,895.395325 726.393738,895.372253 
	C725.064880,895.371155 723.712769,895.423523 722.412781,895.205017 
	C720.397827,894.866455 719.071838,893.569824 718.947754,891.516052 
	C718.835815,889.664307 720.007568,888.417053 721.655090,887.698669 
	C723.543884,886.875183 725.568176,887.021057 727.563171,887.021423 
	C744.875427,887.024902 762.187744,887.031616 780.000000,887.037231 
z"/>
<path fill="#000000" opacity="1.000000" stroke="none" 
	d="
M208.999786,887.023315 
	C215.493820,887.051270 221.491638,886.962097 227.480423,887.154053 
	C230.268188,887.243347 233.720581,887.357117 233.633469,891.341675 
	C233.549637,895.175537 230.425034,895.398193 227.422989,895.392090 
	C214.268356,895.365173 201.113678,895.365234 187.959015,895.358276 
	C185.204056,895.356812 182.005020,895.309021 182.007935,891.724670 
	C182.010696,888.319397 184.942276,887.086365 188.019638,887.041443 
	C194.845032,886.941895 201.672958,887.017212 208.999786,887.023315 
z"/>
<path fill="#000000" opacity="1.000000" stroke="none" 
	d="
M283.879272,887.098145 
	C286.521973,887.166931 288.698914,887.095398 290.840851,887.335754 
	C293.446686,887.628296 296.113434,888.489136 295.819641,891.708679 
	C295.567993,894.466553 293.168182,895.299866 290.621246,895.317261 
	C285.294739,895.353638 279.968048,895.363037 274.641418,895.366150 
	C268.315948,895.369812 261.990295,895.327515 255.665039,895.361328 
	C252.947815,895.375793 250.326218,894.879822 250.080826,891.727905 
	C249.807678,888.219543 252.649475,887.231140 255.435471,887.185364 
	C264.754303,887.032288 274.076874,887.108032 283.879272,887.098145 
z"/>
<path fill="#000000" opacity="1.000000" stroke="none" 
	d="
M887.183228,879.239197 
	C885.393677,879.164734 884.035034,879.258301 882.755737,878.983032 
	C880.402100,878.476440 878.832825,876.952698 878.902405,874.477356 
	C878.975708,871.869202 880.456665,869.914368 883.149231,869.799805 
	C887.949097,869.595459 892.772583,869.596252 897.570312,869.832703 
	C900.133545,869.959045 902.009827,871.616577 901.974609,874.343201 
	C901.940308,877.005737 900.085510,878.722534 897.588989,879.001465 
	C894.307983,879.368042 890.965820,879.186584 887.183228,879.239197 
z"/>
<path fill="#000000" opacity="1.000000" stroke="none" 
	d="
M688.571899,887.117065 
	C693.139343,887.174561 697.273682,887.143005 701.392090,887.382935 
	C703.997925,887.534729 705.902039,888.881165 705.546265,891.816345 
	C705.214478,894.554138 703.355530,895.705688 700.651855,895.632935 
	C696.687805,895.526367 692.722656,895.462219 688.758057,895.373779 
	C686.076904,895.313904 682.939453,895.446716 682.547302,891.957031 
	C682.123596,888.187012 685.207397,887.538330 688.571899,887.117065 
z"/>
<path fill="#000000" opacity="1.000000" stroke="none" 
	d="
M138.788483,869.837402 
	C142.579330,869.916077 146.097336,870.326599 145.882217,874.637573 
	C145.682312,878.644104 142.490173,879.446106 138.957748,879.207031 
	C136.808319,879.061523 134.638336,879.213379 132.490051,879.058655 
	C129.882690,878.870972 127.981735,877.557983 127.846489,874.800171 
	C127.700157,871.816101 129.515305,870.195496 132.368713,869.910095 
	C134.341263,869.712830 136.346481,869.842285 138.788483,869.837402 
z"/>
<path fill="#000000" opacity="1.000000" stroke="none" 
	d="
M835.207153,892.752197 
	C834.514160,889.113892 836.587891,887.674927 839.200867,887.229797 
	C842.429932,886.679565 846.093689,885.872620 848.576355,888.776245 
	C850.278687,890.767090 849.979126,893.955139 847.382751,894.620728 
	C843.426758,895.634827 838.924133,897.099854 835.207153,892.752197 
z"/>
<path fill="#000000" opacity="1.000000" stroke="none" 
	d="
M484.153137,428.768585 
	C481.075287,423.991577 478.158386,419.543793 475.303467,415.056549 
	C474.412720,413.656525 473.318390,412.035706 474.506348,410.449890 
	C475.874359,408.623718 477.608032,409.990845 479.011658,410.618683 
	C484.007599,412.853455 489.267975,414.729126 493.814117,417.685181 
	C501.405365,422.621277 510.398590,424.042419 518.223450,428.399933 
	C523.974060,431.602386 528.359253,435.352264 531.654175,441.265717 
	C538.325439,453.238831 543.972961,465.729980 550.877502,477.605103 
	C555.387268,485.361389 558.425537,494.174377 561.837036,502.575378 
	C565.251099,510.982697 559.926819,515.010437 558.162170,520.740540 
	C557.136658,524.070557 552.882690,522.419434 548.455139,518.592773 
	C537.537476,509.156921 530.289124,496.888336 522.185547,485.348022 
	C509.198700,466.853394 496.917511,447.863251 484.153137,428.768585 
z"/>
<path fill="#000000" opacity="1.000000" stroke="none" 
	d="
M448.680908,381.836121 
	C435.576385,383.302246 422.985870,387.117798 410.033417,383.425415 
	C444.350769,379.220062 477.522156,369.461243 511.521423,364.047760 
	C512.971619,363.816864 514.495605,363.916412 516.674622,366.093475 
	C493.753479,372.071686 471.553131,377.409485 448.680908,381.836121 
z"/>
<path fill="#000000" opacity="1.000000" stroke="none" 
	d="
M776.690247,718.297852 
	C781.910767,716.100159 785.366028,717.527771 787.953796,722.647644 
	C786.963928,724.415894 785.122253,725.217041 783.086731,726.746521 
	C782.648926,722.372681 774.062012,725.482422 776.690247,718.297852 
z"/>
<path fill="#000000" opacity="1.000000" stroke="none" 
	d="
M731.492920,668.522461 
	C735.898926,665.231750 739.330688,668.015930 742.751953,669.809692 
	C744.119812,670.526794 744.873779,672.450500 743.153687,673.505310 
	C740.176697,675.330933 736.998535,673.979309 733.998718,673.170227 
	C731.971252,672.623413 730.257812,671.489990 731.492920,668.522461 
z"/>
<path fill="#000000" opacity="1.000000" stroke="none" 
	d="
M818.047729,727.925049 
	C817.543884,727.715210 817.368408,727.680237 817.244995,727.580811 
	C815.531616,726.201111 811.223633,727.064392 812.291138,723.517578 
	C813.176392,720.576416 816.675110,721.460388 819.258545,721.579102 
	C819.421448,721.586548 819.592468,721.609802 819.742920,721.668518 
	C822.121155,722.597229 825.946777,723.041016 825.396118,726.053345 
	C824.766357,729.498535 821.186951,728.777649 818.047729,727.925049 
z"/>
<path fill="#000000" opacity="1.000000" stroke="none" 
	d="
M798.465698,701.710327 
	C796.544434,701.192383 794.520813,701.205322 794.689148,698.845154 
	C794.844971,696.662231 796.778320,696.390686 798.372742,696.258240 
	C802.074890,695.950867 805.159180,697.391357 807.551758,700.215942 
	C808.100464,700.863831 808.393372,701.949829 807.694702,702.486938 
	C804.600098,704.865784 801.768555,702.383606 798.465698,701.710327 
z"/>
<path fill="#000000" opacity="1.000000" stroke="none" 
	d="
M805.614624,713.540283 
	C802.270264,711.945923 802.192566,710.219543 805.336548,709.258972 
	C808.740356,708.218933 812.216064,708.792664 815.292603,710.777649 
	C816.444153,711.520630 817.360352,712.555054 816.777283,714.076294 
	C816.228333,715.508667 814.893799,716.101501 813.563416,715.819519 
	C810.999573,715.276184 808.503235,714.414246 805.614624,713.540283 
z"/>
<path fill="#000000" opacity="1.000000" stroke="none" 
	d="
M767.968506,709.217346 
	C766.699585,707.845093 766.975098,706.863770 768.078796,706.041626 
	C770.625854,704.144226 777.622925,704.712097 779.807129,706.983948 
	C780.629517,707.839294 781.424316,708.770935 780.899658,710.046631 
	C780.379150,711.312317 779.190308,711.629517 777.996155,711.411987 
	C774.752441,710.820984 771.530945,710.108398 767.968506,709.217346 
z"/>
<path fill="#000000" opacity="1.000000" stroke="none" 
	d="
M834.235474,729.136719 
	C832.391968,728.437622 830.979187,727.615112 831.555237,725.782227 
	C832.081726,724.107239 833.743591,723.863586 835.273315,723.883972 
	C837.979187,723.919983 840.543335,724.663147 842.875793,726.004089 
	C844.214050,726.773499 845.336731,727.981079 844.682495,729.681396 
	C843.995544,731.466614 842.359009,731.335876 840.851746,730.963257 
	C838.758667,730.445862 836.694275,729.812683 834.235474,729.136719 
z"/>
<path fill="#000000" opacity="1.000000" stroke="none" 
	d="
M862.622803,732.708679 
	C857.846252,735.483093 854.230164,732.101562 850.382263,730.801270 
	C848.716064,730.238342 849.312622,728.249695 850.856628,727.258667 
	C854.319946,725.035706 861.547485,728.140808 862.622803,732.708679 
z"/>
<path fill="#000000" opacity="1.000000" stroke="none" 
	d="
M786.602600,710.899048 
	C784.780334,708.306763 785.636353,706.972656 788.199585,706.504395 
	C791.636292,705.876587 794.705688,707.032532 797.582275,708.733826 
	C798.731812,709.413757 799.720459,710.467407 799.018066,711.993103 
	C798.435730,713.257874 797.141113,713.386536 796.028198,713.072449 
	C793.024841,712.224670 789.764404,712.605652 786.602600,710.899048 
z"/>
<path fill="#000000" opacity="1.000000" stroke="none" 
	d="
M717.587585,670.569946 
	C715.288208,669.999146 712.727844,669.751404 713.315063,667.072510 
	C713.832947,664.709656 716.405579,664.782227 718.334290,664.996521 
	C721.319153,665.328125 724.259277,666.092590 725.862000,669.062073 
	C726.270874,669.819519 726.157654,670.797729 725.447632,671.341980 
	C722.792297,673.377808 720.442688,671.208130 717.587585,670.569946 
z"/>
<path fill="#000000" opacity="1.000000" stroke="none" 
	d="
M810.294922,694.837280 
	C807.788147,693.891846 803.872375,694.334778 804.609131,691.023804 
	C805.348022,687.702759 808.881897,688.913330 811.465942,689.326904 
	C811.629150,689.353088 811.789612,689.407349 811.945740,689.463989 
	C814.426147,690.364197 818.196838,691.241760 817.476929,694.120422 
	C816.551270,697.821960 813.065918,695.063538 810.294922,694.837280 
z"/>
<path fill="#000000" opacity="1.000000" stroke="none" 
	d="
M797.487427,687.335083 
	C799.113464,688.387573 800.376465,689.407043 799.482056,691.139282 
	C798.654602,692.741882 797.020630,692.684509 795.517212,692.311829 
	C793.264404,691.753235 791.056946,691.012390 788.805359,690.448181 
	C787.525635,690.127563 786.626831,689.544983 786.694580,688.132812 
	C786.761108,686.745972 787.818604,686.164551 788.970032,685.814514 
	C791.908569,684.921204 794.510803,686.216492 797.487427,687.335083 
z"/>
<path fill="#000000" opacity="1.000000" stroke="none" 
	d="
M794.114014,723.342896 
	C793.231323,721.557495 793.677063,720.413208 795.169983,719.856262 
	C796.082214,719.516052 797.137634,719.255859 798.082581,719.363586 
	C801.025879,719.699158 804.271912,719.758118 806.119385,722.513611 
	C807.706055,724.880188 805.654724,726.417847 801.932495,725.723022 
	C800.793762,725.510498 799.608765,725.484436 798.503784,725.167847 
	C797.087891,724.762024 795.731506,724.148865 794.114014,723.342896 
z"/>
<path fill="#000000" opacity="1.000000" stroke="none" 
	d="
M790.667603,680.905884 
	C785.917236,682.396667 782.562988,679.550964 778.962708,677.805542 
	C777.626404,677.157715 777.327148,675.335327 778.781555,674.554688 
	C782.133484,672.755737 785.181030,674.940186 788.191589,676.003113 
	C790.100159,676.676941 792.467285,677.699463 790.667603,680.905884 
z"/>
<path fill="#000000" opacity="1.000000" stroke="none" 
	d="
M870.505493,733.649292 
	C868.770325,732.239685 868.291382,730.739014 870.230042,729.947571 
	C874.073669,728.378296 877.696533,729.577515 881.030518,731.696228 
	C882.265076,732.480835 882.869873,733.714294 882.003662,735.100586 
	C881.180298,736.418579 879.773132,736.465942 878.444397,736.109253 
	C875.891113,735.423950 873.370056,734.618652 870.505493,733.649292 
z"/>
<path fill="#000000" opacity="1.000000" stroke="none" 
	d="
M711.666931,624.245728 
	C714.517578,625.782227 719.608765,625.802856 718.043030,629.794556 
	C716.718689,633.171143 712.865173,629.833252 710.130554,629.592529 
	C709.499023,629.536926 708.852844,629.228271 708.289246,628.904175 
	C706.792358,628.043396 704.434998,627.570374 705.182922,625.180481 
	C705.918030,622.831482 708.116089,623.673523 709.858704,623.816284 
	C710.346313,623.856201 710.823608,624.020508 711.666931,624.245728 
z"/>
<path fill="#000000" opacity="1.000000" stroke="none" 
	d="
M746.855286,679.734497 
	C748.840088,680.893738 750.997498,681.417175 750.806396,684.552002 
	C745.650513,686.316895 741.248108,684.612671 736.517151,681.661743 
	C739.575195,677.656250 743.004150,678.502930 746.855286,679.734497 
z"/>
<path fill="#000000" opacity="1.000000" stroke="none" 
	d="
M841.014648,719.029419 
	C839.043823,716.375854 840.668640,715.429443 842.625610,715.109436 
	C844.203796,714.851440 845.971680,714.886719 847.492676,715.339111 
	C850.114624,716.118958 853.859802,717.099854 852.861511,720.474060 
	C851.849731,723.893921 848.682739,721.150696 846.513184,720.826721 
	C844.751160,720.563477 843.063904,719.799500 841.014648,719.029419 
z"/>
<path fill="#000000" opacity="1.000000" stroke="none" 
	d="
M754.203491,708.217224 
	C752.253113,707.252563 750.417542,706.833923 749.299438,705.278870 
	C751.788147,701.742615 758.954651,701.610901 761.358582,705.061707 
	C762.706116,706.996033 762.372131,708.547119 759.908325,709.086426 
	C758.089050,709.484619 756.302368,708.998108 754.203491,708.217224 
z"/>
<path fill="#000000" opacity="1.000000" stroke="none" 
	d="
M730.149109,656.788025 
	C731.118164,657.154114 731.761414,657.351501 732.327026,657.681763 
	C734.182983,658.765503 736.677979,659.975403 735.663513,662.437073 
	C734.405457,665.489868 732.064758,663.206177 730.187683,662.654053 
	C729.557983,662.468872 728.936218,662.206543 728.364319,661.884583 
	C726.643188,660.915405 723.072510,661.551941 723.573730,658.725891 
	C724.130737,655.585083 727.325134,656.310791 730.149109,656.788025 
z"/>
<path fill="#000000" opacity="1.000000" stroke="none" 
	d="
M724.823242,640.744873 
	C720.365479,643.095398 717.006958,640.284424 713.583496,638.679565 
	C711.907166,637.893677 712.552612,636.095764 714.194092,635.177795 
	C718.064148,633.013672 723.608032,635.701355 724.823242,640.744873 
z"/>
<path fill="#000000" opacity="1.000000" stroke="none" 
	d="
M738.900024,648.358643 
	C742.237549,649.109436 746.969421,649.030762 746.107666,653.091980 
	C745.223206,657.260437 741.095825,653.971069 738.445435,653.978027 
	C736.714600,653.982605 734.362610,653.523132 734.225464,651.281921 
	C734.054321,648.486511 736.554810,648.569275 738.900024,648.358643 
z"/>
<path fill="#000000" opacity="1.000000" stroke="none" 
	d="
M743.190002,664.228149 
	C740.792419,662.373718 741.398560,660.939941 743.422668,659.888000 
	C746.091125,658.501221 752.031616,660.720398 753.439331,663.483032 
	C753.827087,664.244019 754.192566,664.987061 753.617920,665.770020 
	C752.840820,666.828674 751.692566,667.085815 750.529846,666.737244 
	C748.167969,666.029053 745.847717,665.181885 743.190002,664.228149 
z"/>
<path fill="#000000" opacity="1.000000" stroke="none" 
	d="
M781.321899,699.130981 
	C779.839478,698.349121 778.425415,697.818726 778.857117,696.113586 
	C779.232788,694.629883 780.619080,694.263672 781.887268,693.896118 
	C782.347961,693.762512 782.889343,693.733704 783.358215,693.830322 
	C786.104370,694.396179 788.951050,694.815186 790.634216,697.479187 
	C791.097839,698.212891 791.281128,699.168823 790.579407,699.761841 
	C788.108032,701.850037 785.583496,700.254761 783.086609,699.700500 
	C782.604797,699.593567 782.140015,699.409485 781.321899,699.130981 
z"/>
<path fill="#000000" opacity="1.000000" stroke="none" 
	d="
M763.713623,692.379517 
	C767.095642,692.268860 770.069092,692.445435 772.402039,694.727295 
	C773.221741,695.528992 774.162720,696.419250 773.484253,697.718262 
	C772.986145,698.671875 771.967468,699.151794 770.959839,698.936462 
	C768.053223,698.315430 764.908325,698.046875 762.362732,696.690613 
	C759.112793,694.958984 760.807007,693.379700 763.713623,692.379517 
z"/>
<path fill="#000000" opacity="1.000000" stroke="none" 
	d="
M708.957153,643.568359 
	C711.033264,644.875793 713.800781,645.728516 712.511841,648.393799 
	C711.397095,650.698853 708.975586,649.318237 707.156616,648.895874 
	C704.491211,648.276917 701.577332,647.930115 700.090820,644.658081 
	C702.609863,641.652710 705.631531,642.729126 708.957153,643.568359 
z"/>
<path fill="#000000" opacity="1.000000" stroke="none" 
	d="
M748.222961,672.854370 
	C750.823181,669.455505 758.886353,670.474854 760.238403,674.019165 
	C760.991882,675.994263 759.841187,677.234741 758.167114,676.945496 
	C754.685181,676.343689 750.720703,676.695557 748.222961,672.854370 
z"/>
<path fill="#000000" opacity="1.000000" stroke="none" 
	d="
M833.058411,713.794678 
	C834.300110,714.955811 835.456360,715.904358 834.694031,717.372681 
	C834.017395,718.675964 832.624512,719.008606 831.280090,718.763733 
	C828.390747,718.237427 825.387512,717.808105 823.362976,715.344360 
	C822.648193,714.474426 822.912720,713.410583 823.925415,712.842651 
	C827.004028,711.115967 829.922180,711.897583 833.058411,713.794678 
z"/>
<path fill="#000000" opacity="1.000000" stroke="none" 
	d="
M806.056396,684.738403 
	C801.818298,683.448792 797.535278,683.069763 794.764587,679.787598 
	C795.019287,677.706177 796.432129,677.097717 797.691223,677.452515 
	C801.035461,678.395142 804.506592,679.296997 807.490479,680.986511 
	C810.123169,682.477173 809.354248,684.199951 806.056396,684.738403 
z"/>
<path fill="#000000" opacity="1.000000" stroke="none" 
	d="
M707.202271,664.751831 
	C708.531982,666.986084 708.154968,668.567261 705.803345,668.394287 
	C702.855896,668.177612 699.941162,667.381287 697.042725,666.705017 
	C696.050171,666.473389 695.239014,665.686035 695.273010,664.554382 
	C695.315186,663.152283 696.412903,662.536133 697.588318,662.336792 
	C700.979797,661.761475 704.168457,662.291138 707.202271,664.751831 
z"/>
<path fill="#000000" opacity="1.000000" stroke="none" 
	d="
M682.128113,641.950195 
	C684.904907,638.865784 692.371216,639.257446 694.123352,642.394226 
	C695.564209,644.973755 693.926086,646.268616 691.555359,646.094727 
	C688.110046,645.841919 684.832764,644.764160 682.128113,641.950195 
z"/>
<path fill="#000000" opacity="1.000000" stroke="none" 
	d="
M860.143677,714.133301 
	C857.062012,713.209106 854.360657,712.409729 851.713257,711.460144 
	C850.378723,710.981445 849.349854,709.974487 849.871216,708.418945 
	C850.318054,707.085876 851.647705,706.924072 852.801147,707.257446 
	C855.821533,708.130066 858.818542,709.095581 861.783142,710.142334 
	C862.891663,710.533813 864.030762,711.381958 863.774841,712.677429 
	C863.444458,714.349854 861.896912,714.248230 860.143677,714.133301 
z"/>
<path fill="#000000" opacity="1.000000" stroke="none" 
	d="
M732.249634,679.383179 
	C733.122375,680.501099 733.612610,681.479675 732.875183,682.371094 
	C731.302307,684.272400 721.489929,682.205688 720.705872,679.836670 
	C720.106140,678.024231 721.451538,677.365173 722.762512,677.158508 
	C726.053467,676.639832 729.381592,676.324036 732.249634,679.383179 
z"/>
<path fill="#000000" opacity="1.000000" stroke="none" 
	d="
M708.299133,654.776062 
	C709.573792,654.339233 710.623901,653.662109 711.444031,653.874329 
	C714.525879,654.671570 719.424438,654.935852 718.667297,658.915527 
	C718.029358,662.269348 713.899231,659.838013 711.318054,659.436462 
	C709.391479,659.136841 707.367126,658.935059 705.888062,657.494385 
	C705.714905,655.839172 707.085144,655.598938 708.299133,654.776062 
z"/>
<path fill="#000000" opacity="1.000000" stroke="none" 
	d="
M760.225342,687.135132 
	C758.086609,685.911316 754.153137,686.308228 755.124207,683.311584 
	C756.132141,680.201538 759.615540,680.787354 762.388000,681.662048 
	C763.158813,681.905273 763.909058,682.300964 764.579163,682.757935 
	C765.983093,683.715332 767.341064,684.979187 766.706482,686.779602 
	C765.951355,688.921936 764.063110,688.112122 762.493042,687.772949 
	C761.852905,687.634705 761.227661,687.427307 760.225342,687.135132 
z"/>
<path fill="#000000" opacity="1.000000" stroke="none" 
	d="
M727.780029,689.032837 
	C734.471924,688.804626 735.968994,689.599487 737.847656,694.104370 
	C734.986267,695.550903 727.569946,694.547241 725.626587,692.274902 
	C723.566162,689.865723 726.036743,689.737000 727.780029,689.032837 
z"/>
<path fill="#000000" opacity="1.000000" stroke="none" 
	d="
M747.884033,690.647583 
	C751.208435,691.288513 755.450073,692.024597 754.546997,695.374268 
	C753.573364,698.985413 749.501221,696.683655 746.796631,696.208557 
	C745.051880,695.902161 742.946899,695.136292 743.176575,692.886658 
	C743.422424,690.478638 745.685486,690.765076 747.884033,690.647583 
z"/>
<path fill="#000000" opacity="1.000000" stroke="none" 
	d="
M751.019165,653.993408 
	C750.003967,652.930725 749.630859,651.963806 750.487366,651.131775 
	C752.244141,649.425354 754.245605,650.358643 756.023438,651.052734 
	C758.225525,651.912415 761.265686,651.852661 762.094482,654.603149 
	C762.783752,656.890991 760.837769,657.361633 759.057190,657.176880 
	C756.240723,656.884521 753.669617,655.805481 751.019165,653.993408 
z"/>
<path fill="#000000" opacity="1.000000" stroke="none" 
	d="
M823.468750,702.566223 
	C824.900024,703.935425 825.839478,705.150269 824.224976,706.534424 
	C822.449829,708.056213 813.681885,704.937073 813.422241,702.638367 
	C813.158508,700.304138 814.940002,699.859924 816.662781,700.137085 
	C818.918213,700.500000 821.213684,700.952271 823.468750,702.566223 
z"/>
<path fill="#000000" opacity="1.000000" stroke="none" 
	d="
M844.629028,708.122925 
	C841.777039,710.366821 834.404785,709.324890 832.587891,706.738892 
	C832.246826,706.253418 832.009827,705.479126 832.132019,704.928467 
	C832.390930,703.761475 833.574707,703.353271 834.478943,703.583252 
	C838.045837,704.490540 842.157959,704.166321 844.629028,708.122925 
z"/>
<path fill="#000000" opacity="1.000000" stroke="none" 
	d="
M725.095276,651.722046 
	C722.290833,650.918823 719.594055,650.747375 717.669006,648.772095 
	C720.235901,644.679443 725.949829,644.368835 727.995239,648.119263 
	C729.373596,650.646606 728.043213,651.758972 725.095276,651.722046 
z"/>
<path fill="#000000" opacity="1.000000" stroke="none" 
	d="
M696.651123,634.992676 
	C699.532715,631.646606 704.515503,631.552368 706.904663,634.483948 
	C708.281189,636.172913 708.188782,637.943176 705.800293,637.999084 
	C702.602112,638.073914 699.084961,638.392456 696.651123,634.992676 
z"/>
<path fill="#000000" opacity="1.000000" stroke="none" 
	d="
M870.329102,722.904297 
	C867.540894,724.966553 861.280212,724.466797 859.492554,722.340454 
	C858.236267,720.846191 858.547424,718.924194 860.368164,719.054077 
	C863.890198,719.305237 868.164062,718.217285 870.329102,722.904297 
z"/>
<path fill="#000000" opacity="1.000000" stroke="none" 
	d="
M768.786072,664.087280 
	C770.612488,666.695007 769.350281,668.020081 767.170837,668.007996 
	C764.231567,667.991821 761.119629,667.695312 759.025085,665.126953 
	C758.484131,664.463745 758.687988,663.449890 759.539429,662.972717 
	C762.703796,661.199158 765.625000,662.343872 768.786072,664.087280 
z"/>
<path fill="#000000" opacity="1.000000" stroke="none" 
	d="
M698.356079,623.528809 
	C698.809387,624.067444 699.062500,624.307495 699.180481,624.601685 
	C700.276428,627.333801 698.183228,627.663330 696.699280,627.093384 
	C693.894409,626.016296 689.263611,627.508728 688.734863,623.052429 
	C688.406311,620.283264 691.358643,620.804749 693.221924,621.076355 
	C695.003845,621.336121 696.694336,622.026855 698.356079,623.528809 
z"/>
<path fill="#000000" opacity="1.000000" stroke="none" 
	d="
M782.387695,688.185425 
	C779.152161,689.948975 776.091492,689.562378 773.074219,688.355347 
	C771.875488,687.875732 771.171448,686.907410 771.490173,685.590637 
	C771.745728,684.534790 772.669189,683.780640 773.702087,683.897339 
	C777.031677,684.273621 780.890259,683.616760 782.387695,688.185425 
z"/>
<path fill="#000000" opacity="1.000000" stroke="none" 
	d="
M712.395630,680.091797 
	C709.328247,680.168091 706.784546,679.497253 704.351562,678.409851 
	C703.360474,677.966919 702.838257,677.114807 702.995789,676.005676 
	C703.174927,674.744385 704.154724,674.653748 705.196411,674.523499 
	C710.311096,673.884033 713.327087,676.035706 712.395630,680.091797 
z"/>
<path fill="#000000" opacity="1.000000" stroke="none" 
	d="
M736.289551,644.486572 
	C735.337219,644.140381 734.703796,643.939453 734.126404,643.632996 
	C732.488708,642.763733 729.827271,642.649963 730.186523,640.036560 
	C730.442871,638.172058 732.483582,638.370483 733.878174,638.627502 
	C736.410522,639.094177 739.566528,639.266479 740.135437,642.405457 
	C740.531433,644.590454 738.371216,644.720398 736.289551,644.486572 
z"/>
<path fill="#000000" opacity="1.000000" stroke="none" 
	d="
M718.739624,689.360474 
	C719.266602,691.031982 718.709412,692.366272 717.428894,692.249817 
	C713.911316,691.929749 710.225281,691.596008 707.964233,687.524597 
	C712.159363,685.400269 715.443848,686.567383 718.739624,689.360474 
z"/>
<path fill="#000000" opacity="1.000000" stroke="none" 
	d="
M725.245117,628.178345 
	C729.038452,628.707581 732.139709,629.921265 734.595947,633.142395 
	C731.125854,635.400574 728.402405,633.391724 725.780029,632.179749 
	C724.291138,631.491760 723.005005,630.083618 725.245117,628.178345 
z"/>
<path fill="#000000" opacity="1.000000" stroke="none" 
	d="
M737.180969,706.691895 
	C733.835571,707.031555 735.051819,704.350891 733.788513,703.191223 
	C737.083679,700.439697 739.666138,701.990540 742.189331,703.550659 
	C743.255310,704.209595 743.968445,705.293396 743.031494,706.462036 
	C741.315979,708.601685 739.354065,706.287231 737.180969,706.691895 
z"/>
<path fill="#000000" opacity="1.000000" stroke="none" 
	d="
M828.998352,697.993530 
	C826.274658,697.174438 823.445679,697.033997 822.485352,693.605896 
	C825.450623,691.770142 827.823242,692.930420 829.966797,694.732605 
	C831.404602,695.941406 831.420715,697.233887 828.998352,697.993530 
z"/>
<path fill="#000000" opacity="1.000000" stroke="none" 
	d="
M771.674744,677.000732 
	C771.420410,677.472412 771.315979,677.618408 771.174438,677.682678 
	C768.851624,678.737000 766.701660,678.523315 765.076721,676.466187 
	C764.384155,675.589294 764.754272,674.390808 765.846924,674.103394 
	C768.397339,673.432678 770.703979,673.722473 771.674744,677.000732 
z"/>
</svg>