<svg version="1.1" id="Layer_1" xmlns="http://www.w3.org/2000/svg" xmlns:xlink="http://www.w3.org/1999/xlink" x="0px" y="0px"
	 width="100%" viewBox="0 0 656 864" enable-background="new 0 0 656 864" xml:space="preserve">
<path fill="#000000" opacity="1.000000" stroke="none" 
	d="
M270.748779,467.045258 
	C246.135468,461.141754 222.960449,452.424713 201.203949,440.252289 
	C186.672348,432.122162 173.776962,421.684875 161.485611,410.421051 
	C148.961243,398.943756 138.005341,386.245514 128.999969,371.875702 
	C112.314003,345.250061 100.097275,316.887207 96.050323,285.447113 
	C93.033821,262.012421 94.278343,238.741791 98.714523,215.554932 
	C103.912880,188.384293 114.649551,163.572723 130.393585,140.971558 
	C144.723770,120.400040 162.059204,102.801231 182.264221,87.712212 
	C207.735550,68.690331 236.037720,55.794559 266.321350,47.471333 
	C287.951141,41.526543 310.308899,38.895947 332.920502,39.335712 
	C364.379730,39.947548 394.499786,46.261120 423.431824,58.783134 
	C452.930939,71.550591 479.110748,89.157303 501.977173,111.601357 
	C534.181030,143.210403 552.674500,181.866013 559.238281,226.297653 
	C564.487061,261.827118 560.834961,296.515320 548.430847,330.265686 
	C536.841797,361.798096 519.195374,389.351135 494.184143,411.880707 
	C474.520050,429.593750 452.393585,443.467865 427.819702,453.569672 
	C415.430573,458.662628 402.783905,462.581543 389.741425,465.339233 
	C385.527557,466.230286 384.078247,467.695099 385.273132,472.417633 
	C393.599396,505.326202 400.341064,538.576233 403.928192,572.350952 
	C406.984924,601.132141 408.315826,630.043762 407.910156,659.003723 
	C407.854645,662.964722 407.608246,666.971069 406.542999,670.867310 
	C401.531403,689.198059 388.396149,696.049072 370.264465,689.102356 
	C370.264465,732.760925 370.264465,776.150574 370.264465,819.816223 
	C375.964233,819.208374 381.073151,817.869934 386.474945,818.498047 
	C399.961884,820.066162 409.969666,827.824280 413.861938,840.580383 
	C414.584229,842.947571 415.004852,845.296753 418.173340,844.859985 
	C421.426971,844.411438 425.278931,846.929932 427.591064,841.907349 
	C430.119965,836.414001 434.306946,831.989624 439.842926,829.141602 
	C441.796326,828.136719 443.882385,827.188171 445.870575,829.004272 
	C447.932861,830.888062 447.541229,833.185913 446.613007,835.455200 
	C445.278961,838.716614 443.083679,841.448181 440.696533,844.596802 
	C455.161835,846.591187 469.637604,845.238892 483.665070,848.158752 
	C476.157318,852.463013 149.471542,852.355835 141.165634,848.639465 
	C141.139389,848.186829 141.113159,847.734131 141.086914,847.281494 
	C164.269867,846.611511 187.452820,845.941467 211.212952,845.254761 
	C209.491592,841.872070 206.896149,841.072021 205.254242,839.245850 
	C203.785263,837.612122 203.022003,835.791077 203.907990,833.770569 
	C204.842712,831.638733 206.820282,831.322815 208.978897,831.576172 
	C215.787460,832.375366 220.390106,836.680847 224.656372,841.456604 
	C227.148361,844.246338 238.681442,846.403137 241.589828,844.336304 
	C242.308182,843.825745 242.788300,842.750305 243.036209,841.841248 
	C248.434326,822.046204 267.258240,815.014343 283.771851,819.004517 
	C284.872162,819.270447 286.010925,819.799805 287.449249,818.786926 
	C288.408325,815.712219 288.519714,812.223572 288.503204,808.783264 
	C288.371643,781.333191 288.130524,753.883606 287.971008,726.433655 
	C287.910095,715.954285 287.917114,705.473755 288.012543,694.994873 
	C288.046295,691.288635 287.053162,689.552002 283.032013,691.177612 
	C266.941681,697.682495 252.541229,684.663208 249.738297,669.686584 
	C247.298981,656.652832 248.556793,643.426147 248.991714,630.328918 
	C249.548904,613.551270 250.533142,596.772705 252.528275,580.058411 
	C255.073395,558.736633 258.293518,537.542908 262.160522,516.421936 
	C264.888702,501.520813 268.920685,486.922699 271.746490,472.056732 
	C272.055511,470.431030 273.504425,468.508484 270.748779,467.045258 
M489.888184,116.612480 
	C475.282257,102.105156 459.176025,89.595604 441.173767,79.521179 
	C408.348114,61.151264 373.253265,50.581139 335.608673,49.607475 
	C299.262390,48.667393 264.731781,56.801899 231.528152,71.555611 
	C206.698563,82.588402 184.587692,97.458420 165.545853,116.646660 
	C137.103165,145.308014 119.082970,179.629028 112.013138,219.512848 
	C109.304161,234.795319 109.215584,250.171799 109.581688,265.681030 
	C109.902107,279.255127 111.492256,292.462830 115.046288,305.488403 
	C120.197899,324.369080 128.113846,341.976562 138.624954,358.538666 
	C147.840988,373.060150 158.460342,386.296661 170.673676,398.390869 
	C191.987946,419.497314 217.825958,433.442200 245.017975,444.900574 
	C261.365479,451.789276 278.498413,456.778900 296.187775,459.438904 
	C315.568024,462.353088 335.069153,462.930206 354.408417,460.296936 
	C380.769836,456.707428 405.865814,448.618378 429.742828,436.648865 
	C466.812744,418.065796 497.424255,392.500092 519.192017,356.760925 
	C536.715759,327.989716 545.868713,296.948822 546.865967,263.293182 
	C547.663025,236.393204 544.593689,210.178558 535.035400,184.897919 
	C525.230286,158.964569 510.297760,136.396637 489.888184,116.612480 
M314.384735,780.995361 
	C314.450378,800.795959 314.636414,820.597534 314.474548,840.396301 
	C314.444122,844.114380 315.741089,845.090027 319.021057,845.025085 
	C324.849304,844.909607 330.680573,844.907043 336.510406,844.920776 
	C343.655273,844.937622 343.654175,844.965881 343.666687,837.730347 
	C343.765442,780.585999 343.841187,723.441650 343.979218,666.297424 
	C344.016205,650.986206 344.223236,635.675110 344.397125,620.364563 
	C344.443665,616.267334 343.395966,613.746948 338.434174,614.082458 
	C332.631714,614.474915 326.782959,614.144348 320.955231,614.211304 
	C314.183411,614.289124 314.148010,614.328613 314.156708,621.209595 
	C314.223663,674.191223 314.305695,727.172852 314.384735,780.995361 
M285.056030,506.335449 
	C282.313416,521.753052 281.163544,537.354248 280.351105,552.946167 
	C279.019958,578.492126 279.015656,604.062683 280.061005,629.638428 
	C280.275635,634.890503 283.104858,637.512207 287.869385,641.079102 
	C287.869385,589.047668 287.869385,538.215942 287.869385,488.721619 
	C288.063782,488.128723 287.698303,488.885223 287.574341,489.679474 
	C286.753387,494.937775 285.984253,500.204132 285.056030,506.335449 
M377.650421,573.052612 
	C376.803223,539.636536 372.570587,496.775177 369.274719,488.408142 
	C369.276215,538.811462 369.411316,589.155579 370.345001,640.035767 
	C375.314453,636.868164 377.577972,633.263428 377.581299,628.342896 
	C377.593658,610.213562 377.626373,592.084229 377.650421,573.052612 
M269.387665,661.985229 
	C268.991791,659.805542 268.042603,657.508606 270.770966,655.545410 
	C272.778595,658.465149 274.459442,661.295288 276.528687,663.805237 
	C278.417175,666.095886 280.893005,667.547363 284.000427,665.890808 
	C287.053650,664.263184 288.303894,661.403503 287.474792,658.309753 
	C285.782837,651.996033 283.051361,646.043945 278.263885,641.424194 
	C274.516846,637.808472 270.082001,637.477478 265.324951,639.667969 
	C260.575714,641.854858 256.445435,644.217896 256.959625,650.552734 
	C257.348602,655.344910 256.909821,660.210327 257.389862,664.987854 
	C258.213135,673.180725 262.097229,679.447388 270.011841,682.713440 
	C274.355499,684.505981 278.480438,683.968384 282.386810,681.476685 
	C283.531525,680.746582 284.580170,679.813232 284.462067,678.301514 
	C284.330261,676.614685 282.918854,676.204834 281.591492,676.039307 
	C273.753418,675.062073 270.887939,669.622437 269.387665,661.985229 
M371.245880,677.199707 
	C375.141510,683.284119 380.549286,685.121216 387.036255,682.564087 
	C394.246765,679.721680 399.491913,671.463074 399.240967,663.629089 
	C399.119598,659.840637 398.918152,655.987305 399.449646,652.262756 
	C400.091034,647.768372 399.859711,643.890625 395.511139,641.443481 
	C390.529205,638.639954 385.020081,636.687500 379.962067,640.270386 
	C373.953461,644.526672 370.119293,650.689758 369.420990,658.232971 
	C369.162109,661.029480 368.538300,664.643799 372.601044,665.662659 
	C376.377716,666.609802 379.569977,665.451660 381.506561,661.894592 
	C382.823914,659.474915 383.919342,656.934448 385.260223,654.143738 
	C385.988129,654.966736 386.575897,655.380005 386.817291,655.942078 
	C390.128174,663.650818 383.817963,674.478333 375.519135,675.748352 
	C374.080170,675.968628 372.165985,674.538208 371.245880,677.199707 
M316.158478,495.598724 
	C314.949707,494.295746 313.811432,492.881622 312.589722,495.656616 
	C309.339539,503.038818 313.270721,513.997681 320.743378,518.220947 
	C327.773560,522.194031 337.918671,520.028137 342.750946,513.522583 
	C346.636810,508.291107 347.018982,500.494659 343.608154,496.034760 
	C329.837189,505.561340 325.949554,504.933624 316.158478,495.598724 
M338.287415,486.830750 
	C336.026031,485.917664 333.023682,483.775543 331.438446,485.848511 
	C328.985657,489.056030 330.236359,493.246582 330.867676,497.465515 
	C334.552643,496.448547 337.322968,494.869812 339.579712,492.317322 
	C341.368958,490.293549 341.551331,488.570251 338.287415,486.830750 
M325.780823,496.782623 
	C326.430969,492.975555 327.122131,489.166718 325.473480,485.138153 
	C322.160492,485.744812 319.366760,486.763916 316.890869,488.929932 
	C319.133118,492.521118 321.764679,495.149506 325.780823,496.782623 
z"/>
<path fill="#000000" opacity="1.000000" stroke="none" 
	d="
M504.411896,840.641602 
	C507.288788,842.366638 508.233490,847.522156 506.367493,849.360046 
	C505.296387,850.415039 503.950500,850.361267 502.655670,849.965149 
	C501.365448,849.570496 500.786774,848.498962 501.086060,847.243591 
	C501.645782,844.896301 501.491119,842.180969 504.411896,840.641602 
z"/>
<path fill="#000000" opacity="1.000000" stroke="none" 
	d="
M496.301849,845.825928 
	C497.667236,846.741943 498.949677,847.347778 498.661926,848.994446 
	C494.694733,850.494751 492.925720,850.485474 488.756805,848.843262 
	C490.145264,845.322388 492.999542,845.386902 496.301849,845.825928 
z"/>
<path fill="#000000" opacity="1.000000" stroke="none" 
	d="
M514.873840,848.142944 
	C513.160522,851.013794 510.855682,850.992310 509.030609,849.219299 
	C507.590302,847.819946 508.875824,845.855408 510.184753,845.012390 
	C513.187012,843.078857 514.064026,845.575684 514.873840,848.142944 
z"/>
<path fill="#000000" opacity="1.000000" stroke="none" 
	d="
M171.757080,174.553650 
	C207.773743,165.398651 240.601425,187.450653 241.228760,225.871887 
	C241.576828,247.189957 232.210266,263.940704 213.608856,273.923706 
	C194.131836,284.376648 173.917465,283.996246 155.698532,270.460358 
	C137.157684,256.685272 125.516922,227.076279 141.033524,199.139313 
	C147.883942,186.805420 158.328079,179.190750 171.757080,174.553650 
z"/>
<path fill="#000000" opacity="1.000000" stroke="none" 
	d="
M462.954773,172.699295 
	C478.313843,171.611160 491.647461,175.250793 503.208557,185.190369 
	C513.195190,193.776337 518.790344,204.728165 520.724915,217.379379 
	C524.087219,239.368256 517.886230,258.416351 499.329803,271.362396 
	C472.056152,290.390137 429.742493,281.470612 417.895538,242.678391 
	C411.045288,220.247681 416.377655,200.118011 434.301483,184.368347 
	C442.201782,177.426300 451.986481,173.886414 462.954773,172.699295 
z"/>
<path fill="#000000" opacity="1.000000" stroke="none" 
	d="
M405.589661,305.744263 
	C378.466400,317.177582 350.616669,322.500275 321.528656,321.165924 
	C293.750000,319.891663 267.095001,314.319519 242.468994,300.849762 
	C240.291351,299.658630 238.207031,298.247650 236.246017,296.724304 
	C234.499359,295.367432 233.844971,293.338074 234.981537,291.373627 
	C236.053909,289.520142 237.993103,288.700500 240.157547,289.272247 
	C241.749283,289.692749 243.369263,290.241669 244.782730,291.065918 
	C262.514099,301.405731 282.010529,306.441772 302.051025,309.115387 
	C329.021576,312.713562 355.872894,311.735596 382.108429,303.654266 
	C391.960327,300.619629 401.676331,297.150574 410.744293,292.104767 
	C412.480408,291.138733 414.395935,290.493347 416.234436,289.713593 
	C418.876282,288.593140 421.229980,288.926117 422.726685,291.521973 
	C424.196320,294.070953 422.730713,295.925293 420.834412,297.554077 
	C416.452087,301.318268 411.020935,303.126617 405.589661,305.744263 
z"/>
</svg>