<svg version="1.1" id="Layer_1" xmlns="http://www.w3.org/2000/svg" xmlns:xlink="http://www.w3.org/1999/xlink" x="0px" y="0px"
	 width="100%" viewBox="0 0 1024 576" enable-background="new 0 0 1024 576" xml:space="preserve">
<path fill="#000000" opacity="1.000000" stroke="none" 
	d="
M506.000061,160.670746 
	C571.486450,160.660751 636.477234,161.080002 701.456970,160.418381 
	C725.639282,160.172150 739.571350,179.854965 739.448120,198.384705 
	C739.031433,261.035461 739.284546,323.690704 739.290649,386.344208 
	C739.293152,411.956421 724.228699,427.198364 698.722351,427.201874 
	C573.915222,427.219086 449.108063,427.214905 324.300903,427.191925 
	C300.274902,427.187500 284.726013,411.471039 284.722443,387.304688 
	C284.713196,324.151276 285.024170,260.995483 284.538147,197.845795 
	C284.374695,176.611511 302.069702,160.193680 322.041626,160.415237 
	C383.187866,161.093521 444.346344,160.667374 506.000061,160.670746 
M383.500000,410.026001 
	C489.331543,409.986053 595.163086,409.951721 700.994629,409.899353 
	C714.794006,409.892548 721.767029,402.813660 721.765442,388.918549 
	C721.758240,325.419617 721.756531,261.920654 721.725769,198.421722 
	C721.718872,184.150848 714.844849,177.343277 700.536011,177.343399 
	C574.538086,177.344452 448.540192,177.351471 322.542297,177.363693 
	C308.953247,177.365005 302.300476,183.960419 302.290649,197.621017 
	C302.244843,261.286530 302.227661,324.952087 302.241943,388.617615 
	C302.245087,402.604218 309.501312,409.854523 323.501221,409.916870 
	C343.167267,410.004456 362.833710,409.994751 383.500000,410.026001 
z"/>
<path fill="#000000" opacity="1.000000" stroke="none" 
	d="
M504.649933,201.336273 
	C504.756927,196.670593 506.318085,193.282333 510.572296,192.020523 
	C514.984558,190.711823 517.858582,193.295105 520.157410,196.640930 
	C526.850891,206.382965 533.502625,216.153732 540.179871,225.906952 
	C541.293701,227.533936 542.127563,229.398438 544.193176,230.696014 
	C545.489563,228.705231 545.006897,226.541275 545.058533,224.515137 
	C545.266418,216.363235 545.269165,208.203522 545.627930,200.059021 
	C545.852844,194.952057 549.191223,191.773483 553.724365,191.715485 
	C558.326660,191.656586 562.262268,195.252869 562.294800,200.291016 
	C562.432617,221.604218 562.373901,242.918747 562.366638,264.232788 
	C562.365356,267.946838 560.822754,270.771454 557.088440,271.780548 
	C553.268372,272.812836 550.648071,270.632507 548.697327,267.754944 
	C541.317261,256.868408 534.067322,245.893768 526.718140,234.986130 
	C525.629272,233.370056 524.881226,231.436401 522.052368,229.783432 
	C522.052368,235.447144 522.059875,240.503769 522.050293,245.560364 
	C522.040161,250.888855 522.117676,256.220215 521.968079,261.545074 
	C521.784851,268.074554 518.575623,272.145203 513.812805,272.211243 
	C508.638306,272.282959 504.682159,267.683411 504.663818,261.243042 
	C504.607391,241.427704 504.643463,221.612076 504.649933,201.336273 
z"/>
<path fill="#000000" opacity="1.000000" stroke="none" 
	d="
M574.973389,248.643433 
	C573.163025,238.156723 572.828247,227.968460 574.644836,217.950989 
	C578.601990,196.128769 601.217773,184.569275 621.417725,193.669174 
	C623.570068,194.638779 625.618958,195.799667 627.041992,197.706467 
	C629.393311,200.857132 630.543701,204.306915 627.912659,207.812927 
	C625.153137,211.489990 621.536682,212.377182 617.313477,210.293442 
	C614.931580,209.118240 612.631592,207.730133 609.933044,207.339447 
	C600.130554,205.920273 591.670105,212.952209 591.383545,222.923172 
	C591.225769,228.414612 591.255737,233.917038 591.388306,239.409988 
	C591.626404,249.278549 599.662598,256.092255 609.451965,254.976517 
	C611.632629,254.727982 612.868530,253.873123 612.868713,251.592728 
	C612.868896,249.623352 612.868713,247.653976 612.868713,246.156479 
	C611.092896,244.260056 609.244019,244.936493 607.693604,244.454239 
	C603.189941,243.053360 600.374084,239.584030 600.732483,235.305695 
	C601.116333,230.722382 603.867798,227.885529 608.224609,227.159378 
	C613.151306,226.338257 618.224060,226.351349 623.158203,227.088684 
	C627.673462,227.763443 630.175110,230.919510 630.253723,235.460922 
	C630.409302,244.451675 630.370300,253.447601 630.277039,262.440002 
	C630.233459,266.637451 627.675537,269.655487 623.957336,270.552277 
	C605.344055,275.041504 583.235657,272.524414 574.973389,248.643433 
z"/>
<path fill="#000000" opacity="1.000000" stroke="none" 
	d="
M402.107849,271.524780 
	C394.903839,272.943970 390.567657,269.686676 390.109344,262.458832 
	C389.761932,256.979950 389.972534,251.464645 389.964508,245.965500 
	C389.945068,232.632904 389.934906,219.300262 389.943207,205.967651 
	C389.944336,204.137527 389.925537,202.287827 390.168060,200.481003 
	C390.958923,194.588593 394.231201,191.451202 399.125153,191.727127 
	C403.978973,192.000763 407.132782,195.591125 407.287170,201.303009 
	C407.417694,206.132751 407.502228,210.976318 407.282166,215.798935 
	C407.109833,219.574524 408.724854,220.666809 412.294006,220.730453 
	C422.724640,220.916489 422.693451,221.032166 422.748535,210.700439 
	C422.768921,206.874237 422.655792,203.008408 423.155701,199.233780 
	C423.738647,194.832291 426.269836,191.906891 431.073730,191.734970 
	C435.372467,191.581131 438.811096,194.426453 439.841461,199.104980 
	C440.194794,200.709259 440.185303,202.412918 440.189728,204.071579 
	C440.239624,222.737152 440.259888,241.402771 440.287933,260.068390 
	C440.288422,260.401703 440.291107,260.735107 440.285034,261.068329 
	C440.161591,267.843781 437.035217,272.085754 432.060730,272.229126 
	C426.907715,272.377625 423.015320,267.926270 422.829102,261.275848 
	C422.647247,254.780792 422.666962,248.276367 422.768250,241.778717 
	C422.818542,238.551727 421.477936,237.342545 418.291626,237.373444 
	C405.539856,237.497025 407.476807,236.251938 407.334381,247.740784 
	C407.272430,252.739792 407.293915,257.740234 407.318817,262.739807 
	C407.337799,266.548584 405.988861,269.551849 402.107849,271.524780 
z"/>
<path fill="#000000" opacity="1.000000" stroke="none" 
	d="
M542.394043,344.017029 
	C542.385010,354.679077 542.400879,364.844421 542.359619,375.009583 
	C542.291748,391.737061 532.413940,402.795166 517.110291,403.327301 
	C499.132233,403.952454 486.658875,393.457153 485.956848,376.232910 
	C485.394073,362.423889 485.689789,348.574158 485.833649,334.744873 
	C485.891510,329.183319 489.553955,325.650726 494.460144,325.674194 
	C499.619507,325.698883 503.218384,329.368500 503.267761,335.120392 
	C503.380646,348.284332 503.212952,361.450958 503.363342,374.614166 
	C503.464142,383.435516 511.260590,388.701904 519.221802,385.516632 
	C524.373413,383.455505 525.580444,379.041412 525.603882,374.119415 
	C525.664917,361.288116 525.608398,348.456268 525.651550,335.624817 
	C525.674255,328.886963 528.149841,325.801239 533.452148,325.686920 
	C538.859375,325.570374 542.272461,329.500885 542.383606,336.021240 
	C542.426208,338.520264 542.392334,341.020538 542.394043,344.017029 
z"/>
<path fill="#000000" opacity="1.000000" stroke="none" 
	d="
M669.764404,220.866226 
	C682.726135,221.579346 690.661438,232.582748 689.038391,246.952820 
	C687.291931,262.415344 677.514587,271.200684 661.972900,271.250488 
	C657.976501,271.263275 653.979370,271.256317 649.983765,271.187531 
	C648.662598,271.164795 647.305115,271.075104 646.033325,270.747864 
	C641.369385,269.547852 637.931641,265.474670 638.178223,261.603546 
	C638.455994,257.244049 642.068176,254.112961 647.698730,253.854065 
	C653.183472,253.601868 658.690063,253.854553 664.179688,253.668381 
	C669.079468,253.502213 672.744629,249.615936 672.393616,244.842041 
	C672.111450,241.003555 670.311707,238.172104 665.930908,237.979645 
	C662.274231,237.819016 658.609497,237.752716 654.963440,237.458145 
	C644.008484,236.573135 637.122864,229.221375 636.782043,218.169846 
	C636.340271,203.841446 647.312622,192.054230 661.604004,191.688049 
	C666.909119,191.552124 672.259705,191.167892 677.474121,192.757782 
	C682.549744,194.305328 685.567688,197.804382 685.200195,201.855148 
	C684.804810,206.211655 681.161987,209.004868 675.388245,209.112000 
	C670.896362,209.195389 666.399780,208.983414 661.905273,208.985443 
	C659.056030,208.986725 656.723328,210.047134 655.290283,212.675186 
	C653.202209,216.504364 654.981995,220.301193 659.317566,220.711136 
	C662.620911,221.023483 665.971924,220.831711 669.764404,220.866226 
z"/>
<path fill="#000000" opacity="1.000000" stroke="none" 
	d="
M388.697754,325.801819 
	C390.592651,326.179932 392.119263,326.346008 393.498535,326.887451 
	C397.495148,328.456268 399.850922,331.383118 399.160400,335.772705 
	C398.509064,339.913391 395.598633,342.138947 391.464966,342.264313 
	C386.305481,342.420807 381.136108,342.228027 375.971191,342.243469 
	C374.480927,342.247925 372.920532,342.206177 371.516174,342.613129 
	C368.670074,343.437836 367.016815,345.392914 367.115784,348.504669 
	C367.220673,351.804779 369.283630,353.313446 372.266632,353.489624 
	C375.920837,353.705444 379.594299,353.598541 383.259460,353.625122 
	C392.459625,353.691895 398.138123,357.794220 401.358643,366.451233 
	C406.525513,380.340118 399.269470,400.079254 381.026398,402.614655 
	C373.701660,403.632629 366.420441,403.873169 359.261993,401.679474 
	C353.715302,399.979767 350.652588,395.976715 351.615906,391.578125 
	C352.750183,386.398987 356.793396,385.641052 361.239746,385.645630 
	C366.571686,385.651123 371.911865,385.799103 377.233398,385.555603 
	C383.005981,385.291473 385.763306,382.368408 385.756775,377.228912 
	C385.751373,372.980377 383.619568,370.666168 379.465637,370.391144 
	C376.478729,370.193420 373.460907,370.169739 370.472198,370.339050 
	C353.933807,371.275818 347.014343,355.968994 350.307587,343.566193 
	C354.482758,327.842133 364.245819,324.916565 379.796265,325.137390 
	C382.620605,325.177460 385.440308,325.544952 388.697754,325.801819 
z"/>
<path fill="#000000" opacity="1.000000" stroke="none" 
	d="
M646.302368,376.223145 
	C646.297485,382.024963 646.376526,387.359253 646.258850,392.689209 
	C646.131531,398.453094 642.551331,402.703125 637.943665,402.819366 
	C633.272339,402.937195 629.046692,398.888824 629.002563,393.239532 
	C628.851562,373.912506 628.840637,354.580109 629.154968,335.255951 
	C629.266968,328.367218 632.357910,325.814545 639.390625,325.756500 
	C653.387207,325.641022 667.385437,325.697083 681.382874,325.738464 
	C685.619324,325.750977 689.287537,326.976013 691.255554,331.186005 
	C693.848633,336.733063 690.148865,342.149017 683.398621,342.252350 
	C673.069641,342.410461 662.736267,342.276428 652.404785,342.290924 
	C646.753723,342.298859 644.542847,345.585693 646.465759,350.920837 
	C647.213989,352.996735 648.902100,352.900360 650.554565,352.970276 
	C653.545593,353.096893 656.587219,352.881042 659.519409,353.354858 
	C664.350037,354.135406 667.319946,357.559357 667.328491,361.710876 
	C667.337036,365.862488 664.376038,369.131195 659.432861,369.940857 
	C656.992310,370.340607 654.427002,370.401978 651.964844,370.153564 
	C647.616943,369.714874 645.636169,371.302521 646.302368,376.223145 
z"/>
<path fill="#000000" opacity="1.000000" stroke="none" 
	d="
M590.433960,353.073120 
	C597.023865,354.638641 600.356689,358.183441 599.829163,362.637482 
	C599.281311,367.264008 595.347717,370.039703 589.056152,370.239380 
	C578.365479,370.578674 578.366089,370.578674 578.334717,381.343292 
	C578.323547,385.175354 578.383484,389.009491 578.277710,392.838989 
	C578.116516,398.680023 574.643066,402.829681 569.986755,402.911011 
	C565.347595,402.992035 561.644653,398.787903 561.624756,392.985352 
	C561.557983,373.491943 561.562988,353.997955 561.641113,334.504608 
	C561.662354,329.208710 564.178772,326.053101 569.362244,325.947449 
	C584.015869,325.648773 598.682007,325.638062 613.336731,325.890137 
	C618.403198,325.977234 622.218262,330.407806 621.911987,334.595490 
	C621.600647,338.852814 617.573120,342.250488 612.356018,342.305542 
	C603.026855,342.404053 593.693054,342.452759 584.366821,342.256500 
	C580.268555,342.170288 578.339355,343.263977 578.230652,347.820404 
	C578.111633,352.805359 580.752258,353.251862 584.503357,353.037506 
	C586.329590,352.933167 588.167603,353.032928 590.433960,353.073120 
z"/>
<path fill="#000000" opacity="1.000000" stroke="none" 
	d="
M478.336426,331.855347 
	C479.027588,337.988647 476.086304,341.685913 470.171600,342.222015 
	C467.200531,342.491302 464.169281,342.474640 461.194397,342.231323 
	C457.221985,341.906433 455.954987,343.641144 455.936890,347.437286 
	C455.865631,362.394135 455.593536,377.350006 455.396423,392.306244 
	C455.313049,398.634491 452.011871,403.034454 447.379059,402.990326 
	C442.413574,402.943024 438.744629,398.437378 438.729156,392.112396 
	C438.693298,377.465424 438.582947,362.815338 438.848511,348.172791 
	C438.933441,343.488464 437.275146,342.003693 432.775299,342.244324 
	C427.298645,342.537140 421.791626,342.399414 416.301849,342.271759 
	C410.668060,342.140747 406.931610,338.820648 406.785858,334.084900 
	C406.643860,329.473297 410.357147,325.845520 416.128052,325.801605 
	C433.769287,325.667236 451.412537,325.769165 469.054810,325.836792 
	C473.197083,325.852692 476.494324,327.460876 478.336426,331.855347 
z"/>
<path fill="#000000" opacity="1.000000" stroke="none" 
	d="
M319.483032,207.874832 
	C315.746796,205.140594 314.778717,201.698547 316.173340,197.922729 
	C317.605774,194.044617 320.895142,192.627090 324.944580,192.637207 
	C341.420959,192.678391 357.897888,192.602676 374.373779,192.702591 
	C379.927704,192.736267 383.224304,195.822968 383.399872,200.625595 
	C383.580566,205.569534 380.226349,208.898788 374.473999,209.235703 
	C371.322083,209.420334 368.139282,209.475266 364.993164,209.258469 
	C361.286774,209.003082 360.006744,210.514435 360.029266,214.164978 
	C360.120728,228.976288 360.036499,243.788956 359.955627,258.600800 
	C359.942993,260.918304 359.818237,263.273499 359.383942,265.542114 
	C358.592804,269.674927 355.712921,271.826202 351.708130,272.203125 
	C347.672180,272.583008 345.237823,270.189880 343.683014,266.703613 
	C342.700134,264.499664 342.750122,262.169586 342.750427,259.836761 
	C342.752350,244.858093 342.611298,229.877396 342.831207,214.901993 
	C342.895447,210.527863 341.508057,209.145859 337.125244,209.167099 
	C331.369598,209.195038 325.469330,210.368195 319.483032,207.874832 
z"/>
<path fill="#000000" opacity="1.000000" stroke="none" 
	d="
M449.577881,200.005280 
	C450.809021,194.152435 453.708252,191.505768 458.199219,191.729523 
	C462.652039,191.951370 465.898590,195.045547 466.514282,200.152893 
	C466.930969,203.609116 466.952545,207.125519 466.965637,210.615707 
	C467.025574,226.598404 467.021149,242.581375 467.036072,258.564240 
	C467.037018,259.562958 467.048004,260.564453 466.982452,261.559937 
	C466.552338,268.093414 463.064362,272.220734 458.006561,272.210480 
	C452.965271,272.200287 449.826508,268.056335 449.554840,261.326508 
	C448.735382,241.027679 448.727203,220.731094 449.577881,200.005280 
z"/>
<path fill="#000000" opacity="1.000000" stroke="none" 
	d="
M492.248352,219.000351 
	C492.248169,232.637283 492.251984,245.774292 492.245728,258.911285 
	C492.245026,260.407074 492.295013,261.914307 492.136780,263.396545 
	C491.636353,268.083710 488.459045,271.710510 484.596313,272.130463 
	C480.555267,272.569763 476.613983,269.413879 475.435455,264.564270 
	C475.009766,262.812653 474.896210,260.949188 474.893280,259.136353 
	C474.863800,241.010696 474.865509,222.884857 474.924744,204.759308 
	C474.931763,202.616608 475.166962,200.441116 475.591492,198.340454 
	C476.415771,194.261551 478.988770,191.919601 483.199524,191.747345 
	C487.412903,191.574966 490.097382,193.800964 491.433411,197.668304 
	C493.110931,202.524246 491.951904,207.565353 492.234772,212.514969 
	C492.348450,214.503906 492.250793,216.504898 492.248352,219.000351 
z"/>
<path fill="#000000" opacity="1.000000" stroke="none" 
	d="
M515.912415,288.965698 
	C516.943115,290.215240 517.601196,291.403381 519.817688,291.939392 
	C519.817688,289.201263 519.660522,286.766998 519.855652,284.361359 
	C520.127747,281.006012 521.793884,278.650452 525.430420,278.491486 
	C529.168213,278.328094 531.851868,280.361969 531.970886,283.931946 
	C532.292236,293.566437 532.177185,303.220306 532.014404,312.862762 
	C531.972656,315.336182 530.318176,317.155609 527.858704,317.970642 
	C525.264038,318.830505 523.224792,317.660614 521.652344,315.828674 
	C518.423462,312.067017 515.366943,308.157501 511.247070,303.087677 
	C511.247070,306.681976 511.293732,308.912079 511.236847,311.139557 
	C511.134094,315.163818 509.310120,318.052338 505.097687,318.184265 
	C500.786621,318.319275 498.837616,315.387756 498.778503,311.402954 
	C498.645233,302.420685 498.716034,293.435303 498.722473,284.451172 
	C498.724274,281.905060 499.722961,279.852814 502.164795,278.884491 
	C504.569458,277.930939 506.916718,278.572357 508.614044,280.346222 
	C511.134399,282.980255 513.355896,285.900299 515.912415,288.965698 
z"/>
<path fill="#000000" opacity="1.000000" stroke="none" 
	d="
M568.964355,307.649841 
	C562.948914,318.309937 550.099915,318.869629 541.843628,317.937164 
	C539.104675,317.627838 537.981750,315.422333 537.971313,312.859772 
	C537.931824,303.197205 537.936279,293.533661 538.042664,283.871796 
	C538.078979,280.574554 539.650391,278.543488 543.299744,278.671539 
	C546.794250,278.794189 550.342773,278.436981 553.781128,278.913727 
	C569.202148,281.051910 575.152832,297.056915 568.964355,307.649841 
M552.031860,304.378510 
	C556.644470,305.444153 558.451904,302.881042 558.794250,298.873535 
	C559.169312,294.484192 556.613098,292.164337 551.200623,291.856354 
	C550.400696,295.867859 549.800232,299.863464 552.031860,304.378510 
z"/>
<path fill="#000000" opacity="1.000000" stroke="none" 
	d="
M469.740662,311.269714 
	C466.916321,311.653381 466.696808,314.110535 465.340057,315.476959 
	C463.203766,317.628540 460.833618,319.173767 457.815063,317.484528 
	C454.637299,315.706146 454.204071,312.856598 455.631500,309.728851 
	C459.641937,300.941437 463.497742,292.071869 467.859070,283.459869 
	C471.264496,276.735504 477.121429,276.654755 480.679138,283.387817 
	C485.342468,292.213226 489.369812,301.376190 493.613525,310.420776 
	C494.806519,312.963318 494.485809,315.324219 492.079407,317.073639 
	C489.552094,318.910980 486.307495,319.013184 484.932343,316.541412 
	C481.380127,310.156403 475.758636,311.041656 469.740662,311.269714 
z"/>
<path fill="#000000" opacity="1.000000" stroke="none" 
	d="
M354.052948,305.976501 
	C350.245667,305.819458 346.909027,305.838318 343.617218,305.463531 
	C339.433472,304.987244 336.985992,302.448273 336.721100,298.233398 
	C336.433044,293.650299 339.165100,290.514343 343.276703,290.172729 
	C354.037720,289.278717 364.886383,289.214233 375.644745,290.173920 
	C379.848083,290.548859 382.412659,294.080292 382.085419,298.397827 
	C381.758881,302.706024 378.758514,305.431213 374.489044,305.682007 
	C367.857635,306.071503 361.193665,305.907135 354.052948,305.976501 
z"/>
<path fill="#000000" opacity="1.000000" stroke="none" 
	d="
M648.086304,299.527161 
	C648.204956,293.093018 650.840576,289.958679 656.563538,289.792877 
	C664.539673,289.561798 672.530090,289.600647 680.509094,289.771271 
	C685.768860,289.883698 689.000793,292.976288 689.228882,297.533173 
	C689.453613,302.022522 686.460999,305.455292 681.023193,305.679260 
	C672.728210,306.020905 664.406006,305.810455 656.097900,305.674774 
	C652.237183,305.611755 649.501404,303.650269 648.086304,299.527161 
z"/>
<path fill="#000000" opacity="1.000000" stroke="none" 
	d="
M594.799438,297.857605 
	C595.309814,292.109711 598.859497,289.965240 603.629822,289.816345 
	C611.279968,289.577576 618.945801,289.613220 626.599243,289.787323 
	C631.952515,289.909088 635.157227,292.908752 635.379028,297.429260 
	C635.621277,302.366638 633.210693,305.271362 627.428772,305.565857 
	C619.463379,305.971558 611.462341,305.845856 603.480896,305.704865 
	C598.723938,305.620819 595.773926,302.992706 594.799438,297.857605 
z"/>
<path fill="#000000" opacity="1.000000" stroke="none" 
	d="
M400.696289,290.012695 
	C408.915344,289.864746 416.708435,289.697144 424.498840,289.780121 
	C430.257202,289.841431 434.165741,293.196381 434.156738,297.671844 
	C434.147675,302.181427 430.391205,305.654572 424.647827,305.830383 
	C417.359009,306.053497 410.056763,305.943207 402.762299,305.838379 
	C398.076813,305.771027 394.620148,303.570984 393.892487,298.781830 
	C393.181641,294.103333 395.893585,291.347443 400.696289,290.012695 
z"/>
<path fill="#000000" opacity="1.000000" stroke="none" 
	d="
M702.648438,201.653778 
	C700.271118,203.957535 697.965515,205.085754 695.409180,202.736267 
	C693.171387,200.679504 692.721863,198.089966 694.296753,195.511719 
	C695.615173,193.353271 697.673645,192.126083 700.231934,193.500870 
	C703.468018,195.239914 704.776123,197.798279 702.648438,201.653778 
z"/>
<path fill="#000000" opacity="1.000000" stroke="none" 
	d="
M332.740753,330.829742 
	C332.905182,327.046509 334.759186,325.067810 338.071625,325.147827 
	C340.867981,325.215332 342.658295,327.147522 343.055969,329.893341 
	C343.469269,332.747223 341.937073,334.887329 339.318451,335.645142 
	C335.668304,336.701508 333.837677,334.370483 332.740753,330.829742 
z"/>
</svg>