<svg version="1.1" id="Layer_1" xmlns="http://www.w3.org/2000/svg" xmlns:xlink="http://www.w3.org/1999/xlink" x="0px" y="0px"
	 width="100%" viewBox="0 0 1024 1024" enable-background="new 0 0 1024 1024" xml:space="preserve">
<path fill="#000000" opacity="1.000000" stroke="none" 
	d="
M737.998901,718.995117 
	C692.441467,765.888062 638.461914,797.096375 574.660889,810.768311 
	C569.950562,811.777710 565.162048,812.521301 560.372192,813.039856 
	C551.490112,814.001465 542.249329,806.695190 541.781372,797.917725 
	C541.170105,786.450928 540.460693,774.954834 541.597961,763.464722 
	C542.566040,753.685120 546.719360,748.816772 556.492310,746.692810 
	C574.567322,742.764465 592.545410,738.499390 609.474426,730.829285 
	C659.038696,708.373169 698.362244,674.484558 725.432739,626.876038 
	C741.388245,598.815125 750.771240,568.590149 754.453918,536.708862 
	C758.132568,504.862762 754.492737,473.625641 744.255493,443.150330 
	C735.625671,417.459961 723.344177,393.852936 706.011536,372.915924 
	C703.397949,369.758789 701.427307,369.517212 698.292053,372.065613 
	C690.406860,378.474762 682.343506,384.653442 674.853760,391.550751 
	C671.987122,394.190674 671.627197,396.112396 674.154602,399.413391 
	C698.556335,431.283447 712.429626,467.260864 713.268372,507.453400 
	C714.575623,570.092896 691.896973,622.635010 643.748413,663.246033 
	C612.869202,689.291138 576.690369,703.758240 536.661743,708.329590 
	C499.372559,712.588196 463.706757,705.973145 429.622681,690.640198 
	C425.226105,688.662354 422.132629,688.723145 418.376495,691.796570 
	C409.371613,699.164612 400.057220,706.154419 390.460114,713.613647 
	C392.921356,716.329224 395.474152,717.834351 397.994904,719.315491 
	C420.493500,732.535583 444.701996,741.107300 470.341797,745.709717 
	C483.714142,748.110107 488.319977,753.473755 488.329926,766.990234 
	C488.336761,776.323425 488.353119,785.656799 488.308594,794.989807 
	C488.252014,806.843323 479.174591,814.634338 467.601654,812.773682 
	C394.027283,800.944519 333.563049,765.417114 284.259735,710.355652 
	C247.264526,669.039673 224.780746,620.354553 213.886215,566.190674 
	C209.194443,542.864746 208.508881,519.187256 209.907318,495.561493 
	C212.744644,447.626984 227.288528,403.097137 251.951065,362.072174 
	C294.187225,291.814331 355.913361,246.316956 433.416382,221.417130 
	C444.821930,217.752777 456.640564,215.619995 468.475616,213.859970 
	C478.163788,212.419189 488.058136,220.864273 488.267029,230.647507 
	C488.505402,241.809006 488.456482,252.980865 488.302948,264.145081 
	C488.188385,272.477753 482.394073,278.088531 471.972809,280.176361 
	C461.517273,282.271057 451.217407,284.941467 441.053864,288.144257 
	C415.469849,296.206299 392.681580,309.559601 371.431610,325.602722 
	C322.185516,362.782196 290.697021,411.660767 278.721710,472.107513 
	C268.979858,521.280762 276.127625,568.794189 297.902466,614.107300 
	C304.947815,628.768555 313.332764,642.476013 323.404449,655.195984 
	C324.213989,656.218445 325.161774,657.131470 326.546753,658.642395 
	C333.313232,653.051147 339.985260,647.624390 346.553162,642.074402 
	C349.851196,639.287598 354.502441,636.811157 355.745270,633.225220 
	C357.149384,629.173828 352.006042,625.975647 349.721649,622.458923 
	C334.075928,598.373474 323.916687,572.164062 319.026917,543.929321 
	C315.293060,522.369141 315.721130,500.701630 320.115906,479.357666 
	C334.262909,410.650787 374.853668,362.763580 437.960327,333.980530 
	C467.111481,320.684631 498.278564,315.814789 530.513916,318.512238 
	C556.359619,320.675018 581.000000,326.857361 604.276672,338.332855 
	C606.299866,339.330292 608.118042,340.146393 610.251282,338.438477 
	C619.484131,331.046112 628.788879,323.743683 638.037354,316.370636 
	C638.650513,315.881805 639.012512,315.077942 639.595215,314.277985 
	C637.624146,311.067932 634.472900,309.427795 631.543335,307.677673 
	C610.037537,294.830627 586.884033,286.265656 562.349854,281.354584 
	C561.697571,281.223999 561.032471,281.152863 560.384827,281.004089 
	C544.477295,277.349976 541.338257,273.253967 541.586243,256.883484 
	C541.709900,248.718735 541.573547,240.550415 541.635742,232.384323 
	C541.731201,219.854401 551.474792,211.906265 564.072021,214.135498 
	C590.969971,218.895477 616.564148,227.701996 641.161438,239.438858 
	C676.387024,256.247070 708.003296,278.293091 735.129944,306.371796 
	C765.625549,337.937744 788.532837,374.398102 803.240173,415.871155 
	C812.458435,441.865662 818.907776,468.414154 820.406616,496.100861 
	C824.285645,567.757385 804.310974,632.251038 762.566345,690.261841 
	C755.261047,700.413818 746.944397,709.752563 737.998901,718.995117 
M475.078186,636.305420 
	C488.250275,641.134033 502.059631,642.687256 515.853271,642.395447 
	C548.018433,641.714783 576.922852,631.616882 601.453125,610.245728 
	C643.839294,573.318237 658.357605,517.725342 637.918823,467.760132 
	C617.261414,417.260498 563.677612,380.218048 505.899353,385.131775 
	C465.222351,388.591125 432.431396,406.689301 408.518555,439.709259 
	C387.125763,469.249390 378.138519,502.475952 386.159393,538.446533 
	C397.030762,587.200806 427.231934,619.503906 475.078186,636.305420 
z"/>
</svg>