<svg version="1.1" id="Layer_1" xmlns="http://www.w3.org/2000/svg" xmlns:xlink="http://www.w3.org/1999/xlink" x="0px" y="0px"
	 width="100%" viewBox="0 0 1024 1024" enable-background="new 0 0 1024 1024" xml:space="preserve">
<path fill="#000000" opacity="1.000000" stroke="none" 
	d="
M331.146545,724.121704 
	C307.885254,752.464783 284.188934,779.963684 259.988892,807.041687 
	C241.774765,827.421692 222.810150,847.080627 203.927765,866.823853 
	C199.337540,871.623413 194.054779,872.669617 189.646118,869.960510 
	C183.562592,866.222107 183.197693,859.347351 188.835114,853.383362 
	C200.164215,841.398010 211.591263,829.504639 222.863235,817.465942 
	C256.923431,781.088867 290.547363,744.333679 319.048065,703.277771 
	C341.348663,671.153259 361.131042,637.682434 374.150665,600.549622 
	C384.995331,569.619873 391.709290,537.964111 389.543884,505.081116 
	C386.791107,463.277924 370.773987,427.069092 339.254150,399.131378 
	C323.623138,385.276855 316.372589,368.090210 312.887695,348.723022 
	C309.764832,331.367615 311.111633,314.093597 319.278656,298.059052 
	C332.091827,272.902618 355.031158,255.691162 386.030609,257.703217 
	C393.447906,258.184631 400.435181,260.222565 407.009766,263.652893 
	C408.279663,264.315491 409.793152,264.865784 410.177124,267.005951 
	C407.428040,268.185364 404.729919,266.863525 402.060486,266.738586 
	C383.009369,265.847076 366.667175,274.143341 360.591278,292.109070 
	C353.552460,312.922089 365.891602,333.013428 387.760040,336.684265 
	C392.381287,337.459991 390.952698,339.739441 389.951874,342.329498 
	C378.920532,370.877319 380.601318,398.686401 396.664520,424.737427 
	C413.079468,451.358917 437.613190,464.773712 468.984436,465.787842 
	C496.263062,466.669678 519.334167,456.870514 538.242554,437.799530 
	C564.282593,411.535553 589.717346,384.670746 615.368958,358.022491 
	C627.270264,345.658752 639.039917,333.168274 650.929321,320.792938 
	C659.012939,312.378876 662.745850,311.965729 672.543457,318.096069 
	C677.465271,321.175659 682.231934,320.594147 686.911316,315.763672 
	C693.982056,308.464630 700.802795,300.923615 707.737610,293.492615 
	C710.163696,290.892883 712.725647,288.677643 716.639954,288.608246 
	C720.909363,288.532562 724.141663,290.208527 726.172363,293.846161 
	C728.251526,297.570557 728.599854,301.478546 725.934021,305.141754 
	C724.665588,306.884705 723.209595,308.509705 721.707703,310.061523 
	C691.465454,341.308807 661.175720,372.510162 630.959351,403.782501 
	C617.067261,418.160034 603.288330,432.647308 589.504639,447.129059 
	C583.221069,453.730835 582.489197,461.296783 587.458923,466.660339 
	C592.761780,472.383423 602.230164,472.887665 608.572083,466.745087 
	C621.611328,454.115631 634.268250,441.084259 646.884766,428.027222 
	C670.155945,403.943542 693.275269,379.713165 716.484375,355.569397 
	C719.379700,352.557495 722.313843,349.449310 727.110657,350.032684 
	C730.673767,350.466034 733.719604,352.050629 734.801147,355.537262 
	C736.020386,359.467987 735.719238,363.275146 732.437134,366.593170 
	C720.251770,378.912048 708.239197,391.401794 696.104431,403.771118 
	C693.942505,405.974915 692.097900,408.208405 691.996277,411.475739 
	C691.908630,414.293121 692.423889,416.801758 695.059509,418.385101 
	C697.896484,420.089355 700.863708,420.273468 703.506104,418.274353 
	C705.743958,416.581238 707.702942,414.490417 709.650818,412.447388 
	C737.013000,383.747894 764.364868,355.038544 791.681396,326.295746 
	C795.301086,322.487061 799.397522,320.420685 804.636719,322.216156 
	C808.520325,323.547028 810.397888,326.652924 810.778198,330.585114 
	C811.187256,334.814667 808.677551,337.842804 805.986938,340.611908 
	C791.009338,356.026062 775.977905,371.387909 760.965027,386.767761 
	C759.801086,387.960175 758.607300,389.125214 757.479614,390.351074 
	C753.510803,394.665344 753.174011,399.450165 756.577454,402.743439 
	C760.160583,406.210571 765.576843,406.238312 769.635315,402.323090 
	C774.546204,397.585510 779.126221,392.505157 783.857727,387.581146 
	C784.896301,386.500366 785.915894,385.392242 787.036560,384.401062 
	C791.912292,380.088806 797.302368,379.901703 801.392517,383.853302 
	C805.166443,387.499359 805.577393,393.953430 802.014893,398.452454 
	C799.330994,401.841919 796.362000,405.018707 793.379089,408.156281 
	C775.244141,427.231598 757.066589,446.266388 738.912964,465.323914 
	C737.895569,466.392029 736.964355,467.542236 735.856018,468.811066 
	C738.462158,471.579895 741.896729,471.823669 744.955933,472.791168 
	C784.515747,485.302460 817.201660,507.354980 840.544312,542.124451 
	C853.488647,561.405396 861.852844,582.389038 862.259033,606.000061 
	C862.374451,612.710266 859.939575,618.336975 854.997314,622.892639 
	C846.453064,630.768677 833.993042,628.798828 828.122070,618.709656 
	C824.996582,613.338562 824.305176,607.339966 823.832520,601.412842 
	C821.629028,573.780701 809.698181,550.594177 791.126587,530.710754 
	C764.572876,502.281525 731.316284,485.787659 693.306213,479.508179 
	C640.768311,470.828613 591.003906,480.360992 543.800659,504.667664 
	C511.507599,521.296570 484.227112,544.288208 459.664734,570.622559 
	C423.499847,609.396484 391.350433,651.563293 357.723633,692.480469 
	C349.053436,703.030334 340.149170,713.387878 331.146545,724.121704 
M431.143555,504.434204 
	C419.292603,508.348083 414.866516,520.900269 422.470062,529.031860 
	C427.282257,534.178284 434.814667,535.289429 441.265137,531.804504 
	C447.343750,528.520508 450.215729,522.247009 448.578491,515.829407 
	C446.742676,508.633423 440.382172,504.241730 431.143555,504.434204 
z"/>
<path fill="#000000" opacity="1.000000" stroke="none" 
	d="
M398.426941,708.423096 
	C377.985107,731.278259 357.856049,753.939270 337.571014,776.459778 
	C311.597992,805.294983 285.746948,834.243713 258.743774,862.133911 
	C249.127014,872.066650 239.735046,882.216919 230.127151,892.158386 
	C226.930435,895.465942 223.199020,898.262756 218.192749,896.427856 
	C214.091827,894.924805 211.904892,891.653015 211.379684,887.325928 
	C210.853027,882.986816 213.466721,880.068848 216.227692,877.390503 
	C226.276611,867.642334 235.761459,857.358215 245.393860,847.208313 
	C276.933319,813.974487 307.121094,779.522461 337.564331,745.300354 
	C377.198547,700.746521 415.249298,654.795898 455.674774,610.944092 
	C480.382568,584.142151 507.165253,559.585144 538.963989,541.335510 
	C578.334290,518.740479 620.609009,506.187164 666.376221,508.894257 
	C699.904724,510.877411 730.781250,520.650635 756.214050,543.953064 
	C786.877136,572.047668 792.411377,616.289368 762.918030,647.066406 
	C751.512634,658.968323 740.495850,671.242798 729.302490,683.347961 
	C725.171631,687.815308 720.545166,687.464722 717.096191,682.265259 
	C701.214355,658.322327 682.032532,637.796509 656.363098,624.135803 
	C628.038330,609.062073 597.791687,602.968445 565.769348,604.793335 
	C520.222534,607.389038 482.489349,626.850281 449.393585,657.177734 
	C431.683197,673.406738 414.864136,690.460083 398.426941,708.423096 
M628.208313,557.397217 
	C625.633606,546.962585 618.113403,540.494751 608.230652,540.215088 
	C597.810730,539.920288 589.589539,545.701721 586.669189,555.377808 
	C583.810425,564.850098 587.326904,574.688660 595.608887,579.698242 
	C602.955017,584.141663 610.540588,584.146973 617.861511,579.715332 
	C625.885132,574.858276 629.481079,567.618469 628.208313,557.397217 
M755.535156,591.092041 
	C752.470825,587.270203 748.636353,585.220886 743.747314,586.834778 
	C739.453491,588.252075 736.991150,591.559814 736.226807,595.979004 
	C735.328491,601.172974 737.676636,606.231262 742.049011,608.087830 
	C746.565063,610.005432 750.857788,609.335632 754.480408,605.860535 
	C758.336487,602.161560 758.773987,597.516418 755.535156,591.092041 
M686.562378,574.969604 
	C692.475952,578.791748 697.712097,578.572327 701.937012,574.325134 
	C705.290955,570.953491 705.992920,565.001831 703.514954,560.947083 
	C700.109314,555.374451 693.646423,553.696472 688.484009,557.044556 
	C682.599182,560.861145 681.581726,568.035767 686.562378,574.969604 
z"/>
<path fill="#000000" opacity="1.000000" stroke="none" 
	d="
M692.021973,722.778931 
	C685.105286,729.987122 677.263306,729.938232 670.636108,722.441345 
	C666.791138,718.091736 663.617981,713.140808 660.220276,708.404663 
	C649.299133,693.181274 634.813477,681.630371 620.475403,669.956543 
	C617.541260,667.567627 614.082825,665.575745 609.881592,666.692749 
	C605.202759,667.936768 601.630310,670.639282 600.491089,675.421936 
	C599.307129,680.392456 601.319275,684.564514 605.087646,687.894165 
	C613.699646,695.503540 622.737000,702.626892 630.800049,710.862305 
	C656.189453,736.794434 662.428162,773.064331 647.053955,805.863159 
	C631.067688,839.967712 586.069214,853.171814 554.640076,832.948242 
	C552.746460,831.729858 550.541016,830.755859 549.523804,828.379028 
	C551.098022,826.805298 552.690796,827.889038 554.194092,828.200439 
	C582.274963,834.019043 606.695862,814.261536 606.838379,785.692566 
	C606.951111,763.096680 594.793884,747.746948 576.911804,736.392456 
	C553.107971,721.277832 526.704163,718.468445 499.450165,722.827148 
	C458.600739,729.360229 424.702332,749.817383 394.124969,776.655762 
	C356.471252,809.705261 323.554718,847.405579 289.035889,883.532959 
	C278.676941,894.374573 268.364929,905.261292 258.071472,916.165161 
	C252.915771,921.626648 247.161575,922.595154 242.712250,918.620667 
	C237.488129,913.954041 237.583847,907.859253 243.190002,901.969238 
	C263.522888,880.607056 283.970917,859.354187 304.260590,837.951233 
	C338.993378,801.312683 373.440094,764.400574 408.398468,727.979187 
	C428.705231,706.822632 449.721313,686.404907 474.187714,669.815857 
	C504.409851,649.324219 537.056213,636.112488 573.976624,636.452515 
	C623.258301,636.906250 662.012939,657.194275 688.283020,699.641602 
	C690.386230,703.039917 692.182190,706.609558 693.394287,710.458313 
	C694.714417,714.649597 694.652100,718.652954 692.021973,722.778931 
M552.396484,671.356079 
	C547.965637,665.704163 544.411499,664.319946 539.260315,666.240173 
	C534.285950,668.094360 531.814697,671.942993 532.038879,677.486389 
	C532.263916,683.049133 535.343689,686.917053 540.672607,688.272705 
	C544.661499,689.287476 547.993225,687.809631 550.500488,684.924316 
	C553.744629,681.191101 555.064636,676.860901 552.396484,671.356079 
z"/>
<path fill="#000000" opacity="1.000000" stroke="none" 
	d="
M259.379883,404.027283 
	C292.540863,402.729034 317.324005,417.392883 335.969086,443.056305 
	C350.706329,463.340912 357.907623,486.534912 359.352295,511.577728 
	C361.876495,555.334290 350.794312,596.380371 334.503754,636.337097 
	C316.485901,680.530457 288.956543,718.687927 258.095673,754.583069 
	C233.874802,782.755066 208.170807,809.583130 182.411407,836.345764 
	C180.564911,838.264221 178.694138,840.192993 176.625809,841.857361 
	C172.152298,845.457275 166.207321,845.347717 163.041107,841.794006 
	C158.631287,836.844543 158.641663,831.921814 163.201736,827.140381 
	C170.329391,819.666809 177.541641,812.273865 184.675629,804.806213 
	C210.574646,777.695740 236.266876,750.375793 258.959503,720.469727 
	C284.689453,686.560852 303.829712,649.241333 315.010529,608.045105 
	C321.244080,585.077209 324.090790,561.613464 322.518768,537.875793 
	C320.884186,513.193359 313.610077,490.507263 295.611969,472.358398 
	C273.085083,449.642792 237.297348,447.182678 213.466919,466.921661 
	C205.249130,473.728546 200.368332,482.615692 198.693817,493.455231 
	C196.051987,492.432739 196.084396,490.272247 195.633743,488.468597 
	C187.028168,454.027710 207.613983,418.427643 242.338211,407.567017 
	C247.765991,405.869354 253.278198,404.700195 259.379883,404.027283 
z"/>
<path fill="#000000" opacity="1.000000" stroke="none" 
	d="
M842.233765,156.661041 
	C883.337158,184.667267 885.760498,245.565552 846.630554,274.054993 
	C803.144043,305.716278 741.622620,283.112518 732.485901,229.331924 
	C723.874329,178.642181 763.303101,145.183853 802.043213,145.549500 
	C816.471741,145.685684 829.690796,148.950607 842.233765,156.661041 
z"/>
<path fill="#000000" opacity="1.000000" stroke="none" 
	d="
M443.960938,326.835754 
	C471.929871,311.841064 506.112396,321.519073 520.917419,348.356140 
	C536.376770,376.379242 526.862488,410.985199 499.486267,426.306793 
	C472.735382,441.278381 438.668091,431.658844 423.270905,404.785889 
	C407.554291,377.355438 416.548492,343.003967 443.960938,326.835754 
M459.983734,367.324066 
	C455.243103,365.106537 451.193268,366.494354 447.791718,369.985809 
	C444.400604,373.466492 443.369080,377.683868 444.956726,382.374298 
	C446.473145,386.854462 449.995331,388.830414 454.373993,389.390320 
	C459.130707,389.998596 463.950592,386.673523 465.974670,381.676758 
	C468.129425,376.357361 466.542633,372.187836 459.983734,367.324066 
z"/>
<path fill="#000000" opacity="1.000000" stroke="none" 
	d="
M251.778931,538.951050 
	C288.350616,552.805176 298.103668,597.947327 269.988495,623.469727 
	C254.937851,637.132385 236.878433,640.136292 217.835571,633.352417 
	C198.853683,626.590210 188.527557,612.280701 185.606567,592.541382 
	C180.674332,559.210388 212.082886,527.481445 251.778931,538.951050 
z"/>
<path fill="#000000" opacity="1.000000" stroke="none" 
	d="
M675.426636,253.426270 
	C637.395020,292.781433 599.609436,331.882904 561.472656,371.347839 
	C558.797058,367.625244 559.514099,364.316589 559.051392,361.363312 
	C557.782043,353.261078 556.247925,345.273865 552.101501,338.079590 
	C550.076172,334.565491 551.107300,332.622803 553.950562,329.745453 
	C569.168213,314.345154 583.961975,298.526245 598.923706,282.872559 
	C623.206848,257.466339 647.391602,231.964432 671.855469,206.733231 
	C681.790710,196.486298 696.854797,198.769257 702.071533,210.999481 
	C704.847412,217.507248 703.898743,223.710846 698.836975,228.993423 
	C691.114868,237.052490 683.394043,245.112808 675.426636,253.426270 
z"/>
<path fill="#000000" opacity="1.000000" stroke="none" 
	d="
M510.826477,779.924011 
	C534.717957,796.473022 529.103882,823.018005 513.955811,834.218628 
	C502.567596,842.639221 485.783813,842.099365 475.465881,833.189026 
	C462.974091,822.401367 459.700165,806.175537 467.196228,792.203979 
	C474.085938,779.362671 489.234131,773.222107 503.940765,777.376770 
	C506.170929,778.006836 508.312866,778.949158 510.826477,779.924011 
z"/>
<path fill="#000000" opacity="1.000000" stroke="none" 
	d="
M875.784119,433.223389 
	C887.684814,447.468292 887.423889,463.688995 875.357910,475.596771 
	C866.048950,484.783722 853.060181,486.628387 841.376831,480.422974 
	C829.953918,474.355896 823.639099,461.380554 826.163574,448.943420 
	C831.692566,421.704773 861.819092,418.614990 875.784119,433.223389 
z"/>
<path fill="#000000" opacity="1.000000" stroke="none" 
	d="
M833.212219,698.416626 
	C833.933350,706.517944 831.342468,712.889465 825.732910,718.110474 
	C816.533997,726.672241 802.899231,725.913696 795.140808,716.377869 
	C786.486084,705.740417 788.449219,690.477417 799.444763,682.916504 
	C809.580505,675.946777 823.648621,679.032654 829.909119,689.647339 
	C831.435303,692.234985 832.569885,695.012329 833.212219,698.416626 
z"/>
<path fill="#000000" opacity="1.000000" stroke="none" 
	d="
M556.769897,226.243347 
	C567.916687,240.116837 562.452515,258.635040 546.154419,263.344269 
	C538.001953,265.699890 528.456543,262.151794 523.296570,254.847824 
	C517.743164,246.987000 517.696045,236.465805 523.178894,228.596298 
	C528.111023,221.517151 537.507202,217.979401 545.635010,220.150299 
	C549.717712,221.240753 553.483154,222.930389 556.769897,226.243347 
z"/>
<path fill="#000000" opacity="1.000000" stroke="none" 
	d="
M848.109375,347.041138 
	C856.888611,340.630981 864.928711,340.095917 873.009644,345.159302 
	C879.941223,349.502502 884.471741,359.310516 883.148865,367.109558 
	C881.644531,375.978333 874.393616,383.706116 865.684753,385.722473 
	C857.714722,387.567749 848.878540,383.756927 844.127258,376.425079 
	C839.053955,368.596313 839.312439,357.970673 844.815369,350.599487 
	C845.705627,349.406860 846.824402,348.384796 848.109375,347.041138 
z"/>
<path fill="#000000" opacity="1.000000" stroke="none" 
	d="
M716.706055,768.686401 
	C724.140076,762.362793 732.051147,760.772827 740.507996,765.252502 
	C749.156128,769.833435 752.201172,777.473145 751.304688,786.971802 
	C750.565247,794.806091 744.537964,801.964966 736.369812,804.564636 
	C728.909668,806.938904 719.978210,804.025146 714.980957,797.586792 
	C709.270081,790.229004 708.619873,780.597412 713.394470,772.868469 
	C714.260254,771.466980 715.420227,770.247314 716.706055,768.686401 
z"/>
<path fill="#000000" opacity="1.000000" stroke="none" 
	d="
M223.123611,361.215637 
	C215.229797,356.862823 211.391190,350.364227 211.738235,341.823578 
	C212.036072,334.494110 215.699249,328.830261 222.269516,325.417053 
	C230.483734,321.149811 240.326431,322.967133 245.954422,329.537262 
	C252.649673,337.353271 253.049881,346.727081 247.051483,355.232788 
	C241.906601,362.528107 232.760574,364.908783 223.123611,361.215637 
z"/>
<path fill="#000000" opacity="1.000000" stroke="none" 
	d="
M414.574707,822.561401 
	C415.989929,821.125549 417.068085,819.835388 418.351532,818.799683 
	C422.193787,815.699158 427.773346,815.719177 431.192780,818.734131 
	C434.703400,821.829468 435.895905,827.553284 432.732666,831.396057 
	C425.461792,840.229187 417.850006,848.837708 409.175934,856.338562 
	C405.175903,859.797607 400.062012,858.944092 396.706879,855.141785 
	C392.849457,850.770325 392.621307,846.127686 396.594574,841.697144 
	C402.356964,835.271423 408.405182,829.102051 414.574707,822.561401 
z"/>
<path fill="#000000" opacity="1.000000" stroke="none" 
	d="
M206.448395,708.033081 
	C199.576401,705.209656 196.799545,700.448120 198.400436,694.825256 
	C199.834274,689.789124 203.958862,686.635254 208.568192,687.050415 
	C213.773010,687.519104 217.703171,690.915649 218.320496,695.478455 
	C219.113739,701.341431 216.776779,705.533813 211.711655,707.416870 
	C210.128479,708.005432 208.537430,708.383240 206.448395,708.033081 
z"/>
<path fill="#000000" opacity="1.000000" stroke="none" 
	d="
M449.772064,234.774048 
	C443.788177,231.393921 441.731812,226.260284 443.883087,220.864288 
	C445.976990,215.612137 450.734955,213.164810 455.897614,214.684372 
	C460.863037,216.145874 464.032837,221.357376 463.265900,226.798691 
	C462.430542,232.725418 457.521545,235.768494 449.772064,234.774048 
z"/>
<path fill="#000000" opacity="1.000000" stroke="none" 
	d="
M619.519043,197.803986 
	C615.233337,195.012726 613.031372,191.434601 613.955566,186.666718 
	C614.735718,182.642090 617.256348,179.685440 621.373718,178.782410 
	C625.866089,177.797104 630.139160,178.498367 632.799438,182.737488 
	C635.337585,186.782166 635.050171,190.980133 632.232483,194.853134 
	C629.375366,198.780319 625.048706,199.818054 619.519043,197.803986 
z"/>
<path fill="#000000" opacity="1.000000" stroke="none" 
	d="
M362.025452,874.420715 
	C358.928131,872.628784 357.190125,870.303345 356.704559,867.127808 
	C355.747192,860.867004 359.497528,855.539185 365.077576,855.202576 
	C370.764282,854.859619 375.698212,859.588806 375.748871,865.431152 
	C375.796631,870.939880 370.579315,875.639587 364.780304,875.247986 
	C363.972992,875.193481 363.187531,874.815796 362.025452,874.420715 
z"/>
</svg>