<svg version="1.1" id="Layer_1" xmlns="http://www.w3.org/2000/svg" xmlns:xlink="http://www.w3.org/1999/xlink" x="0px" y="0px"
	 width="100%" viewBox="0 0 1024 1024" enable-background="new 0 0 1024 1024" xml:space="preserve">
<path fill="#000000" opacity="1.000000" stroke="none" 
	d="
M243.000824,494.734406 
	C277.723969,493.828674 311.751770,497.829285 345.956329,498.992828 
	C339.775787,495.466553 333.144897,493.399017 326.604309,491.090454 
	C292.386444,479.012939 257.449127,469.212799 222.880737,458.245667 
	C213.631149,455.311157 205.569229,450.565308 200.358582,441.895569 
	C194.033920,431.372284 194.744888,417.366913 202.217850,408.209045 
	C209.346161,399.473450 222.559875,396.153168 234.132263,400.623047 
	C250.456650,406.928436 265.827515,415.302856 281.540405,422.938049 
	C318.373138,440.835663 354.166016,460.846985 391.688446,477.327728 
	C401.581085,481.672791 411.933197,484.873505 422.693512,486.545410 
	C428.826385,487.498352 428.795990,487.596283 426.958130,493.793732 
	C421.358032,512.677551 419.975555,531.719116 425.146210,550.923523 
	C426.745667,556.864075 428.813690,562.670715 431.517426,568.230774 
	C432.209137,569.653320 433.551178,570.964355 432.642365,573.193176 
	C429.355682,572.580322 426.034424,571.745056 422.661957,571.368286 
	C404.572723,569.347778 387.715668,574.785828 370.922058,580.272095 
	C335.057831,591.988403 302.303101,610.100464 270.283051,629.662598 
	C259.771973,636.084106 249.677246,643.219666 238.963608,649.269836 
	C221.024261,659.400574 201.863434,651.320374 196.797546,631.995483 
	C194.219116,622.159485 199.625320,609.519592 209.423737,602.564819 
	C217.909836,596.541504 227.414642,592.458069 236.899811,588.382812 
	C266.587372,575.627625 296.648834,563.882751 327.854156,555.294189 
	C336.113892,553.020813 344.386505,550.794495 353.069031,548.433533 
	C351.303802,546.742310 349.732147,547.287659 348.345062,547.276001 
	C322.698242,547.060364 297.073120,547.675537 271.547302,550.305908 
	C255.515579,551.957886 239.561798,554.416931 223.512741,555.827332 
	C216.130295,556.476074 208.607132,558.200745 201.166962,556.306030 
	C186.292297,552.517944 176.358093,539.965698 177.010666,526.057068 
	C177.791977,509.404541 187.757172,498.206390 204.581573,495.687286 
	C217.150940,493.805237 229.856186,494.945770 243.000824,494.734406 
z"/>
<path fill="#000000" opacity="1.000000" stroke="none" 
	d="
M836.758606,556.905029 
	C821.572815,556.164612 806.917969,554.261841 792.253357,552.422974 
	C774.290161,550.170410 756.247192,548.710510 738.179504,547.699951 
	C722.406677,546.817749 706.608704,547.057800 690.761902,547.709717 
	C697.018677,550.834961 703.929199,551.408020 710.532410,553.098267 
	C745.811951,562.128906 779.507263,575.529663 812.762573,590.148254 
	C820.090027,593.369263 827.229248,596.933960 834.014404,601.199585 
	C847.702942,609.805237 852.957092,626.498718 845.951477,639.256653 
	C838.224731,653.327881 820.722168,657.992676 806.212891,649.450684 
	C795.451904,643.115295 785.097229,636.093750 774.411804,629.625244 
	C747.178711,613.139709 719.550049,597.365601 689.807312,585.742188 
	C675.387329,580.106934 660.745422,575.044189 645.441528,572.260620 
	C636.012207,570.545593 626.586243,570.351318 617.199646,572.641418 
	C616.235352,572.876709 615.248413,573.065552 614.261658,573.141113 
	C613.815125,573.175415 613.343262,572.879272 612.531921,572.621521 
	C614.894653,566.547607 617.386353,560.628174 619.514648,554.580750 
	C626.154907,535.712341 625.938477,516.727173 620.121338,497.704224 
	C619.440125,495.476471 618.829956,493.221680 618.028809,491.037384 
	C617.232605,488.866547 617.631409,487.376129 620.062927,487.007080 
	C648.637390,482.670044 673.412598,468.615814 698.703674,456.018158 
	C727.614685,441.617462 756.182556,426.527374 785.106567,412.153503 
	C794.897827,407.287720 804.441528,401.656067 815.379944,399.321228 
	C828.570068,396.505737 842.649536,403.191254 846.902283,414.541107 
	C853.036865,430.913116 847.269470,445.904541 831.590820,454.144989 
	C823.866333,458.204834 815.398865,460.240295 807.126038,462.749176 
	C776.085876,472.162506 745.254272,482.217804 714.572021,492.728119 
	C708.937561,494.658173 703.041199,495.946808 697.808716,499.728577 
	C702.907410,499.363037 708.004395,498.970276 713.105225,498.637146 
	C728.548401,497.628418 743.985352,496.494293 759.439087,495.682037 
	C784.226868,494.379242 809.035828,494.515503 833.846741,494.956940 
	C850.385742,495.251190 862.328491,503.180786 866.577820,516.924805 
	C873.021118,537.764465 859.944702,555.563599 836.758606,556.905029 
z"/>
<path fill="#000000" opacity="1.000000" stroke="none" 
	d="
M608.879272,413.888000 
	C641.441284,368.369049 672.390991,322.143280 705.563782,277.493988 
	C709.034546,272.822601 712.493958,268.154358 717.218079,264.546478 
	C728.201111,256.158539 741.352112,255.806793 751.795349,263.821228 
	C761.433716,271.217987 765.675476,286.840332 761.107788,298.138763 
	C758.963806,303.441925 755.747742,308.102417 752.286865,312.594269 
	C730.512451,340.855042 706.784729,367.420624 682.452087,393.483337 
	C666.530396,410.537109 650.024414,426.953888 632.497803,442.351624 
	C623.998474,449.818573 614.209778,455.037292 603.772705,459.166260 
	C601.935181,459.893219 600.262573,459.817169 598.756165,458.243347 
	C593.702759,452.963684 588.533569,447.804291 581.214417,443.690460 
	C592.931030,435.460083 600.620361,424.658661 608.879272,413.888000 
z"/>
<path fill="#000000" opacity="1.000000" stroke="none" 
	d="
M354.080170,296.952515 
	C377.459839,329.787781 399.790863,362.914093 422.555145,395.739777 
	C432.685364,410.347382 442.847565,425.038696 456.005035,437.278290 
	C458.162476,439.285248 461.063019,440.495667 462.681458,443.286835 
	C457.182068,448.220703 451.737183,453.052551 446.360687,457.959351 
	C444.576447,459.587738 442.799072,459.137054 440.794220,458.541107 
	C429.671448,455.234955 420.618744,448.479401 411.824829,441.291382 
	C385.144135,419.483093 362.241180,393.960785 339.864471,367.932770 
	C324.560883,350.132019 309.079956,332.477844 294.587128,313.995636 
	C289.313141,307.269867 284.595917,300.333832 283.321259,291.526428 
	C281.435516,278.496948 286.920227,266.707336 297.760620,261.251526 
	C309.486053,255.350296 322.825897,257.624786 331.936005,267.576019 
	C340.156067,276.554993 346.870544,286.730652 354.080170,296.952515 
z"/>
<path fill="#000000" opacity="1.000000" stroke="none" 
	d="
M473.795715,755.035400 
	C479.469635,725.560547 485.085083,696.512512 490.688934,667.462341 
	C493.426605,653.270325 496.192108,639.083313 498.836395,624.873840 
	C499.567474,620.945251 500.979858,618.837708 505.480133,620.373840 
	C509.357513,621.697449 514.728638,619.915405 517.273987,622.978577 
	C519.947998,626.196716 518.159119,631.318237 518.241272,635.598572 
	C518.653748,657.087708 518.041138,678.574158 517.062317,700.028503 
	C515.895508,725.603699 513.940796,751.142212 512.430664,776.702759 
	C511.519348,792.128784 510.963531,807.576965 509.941864,822.994873 
	C509.316101,832.437866 509.138336,841.934937 507.490021,851.292847 
	C505.409851,863.102783 494.253601,871.917053 482.353790,871.182312 
	C469.093292,870.363586 459.183319,860.426392 458.672089,847.375488 
	C458.144897,833.917236 461.771851,821.001953 464.035645,807.925476 
	C467.069153,790.403076 470.482330,772.946350 473.795715,755.035400 
z"/>
<path fill="#000000" opacity="1.000000" stroke="none" 
	d="
M531.928345,759.783936 
	C530.218689,716.250916 526.717041,673.253906 527.615540,630.108398 
	C527.782532,622.089478 526.926208,622.082825 535.024841,621.175171 
	C545.548950,619.995728 545.365234,619.647583 547.324585,629.802368 
	C552.896179,658.678833 558.684082,687.513733 564.214478,716.398010 
	C568.742798,740.048584 572.780396,763.795105 577.495422,787.407227 
	C580.912231,804.517212 584.304932,821.625366 586.880432,838.878235 
	C588.937622,852.659546 582.581299,864.555969 571.160339,869.134521 
	C557.188477,874.735657 542.652710,867.797302 539.034241,853.190247 
	C535.859009,840.372437 536.419189,827.098389 535.562744,814.004333 
	C534.390747,796.087036 533.150574,778.174072 531.928345,759.783936 
z"/>
<path fill="#000000" opacity="1.000000" stroke="none" 
	d="
M510.378235,233.707855 
	C511.323456,247.436615 512.336731,260.689636 513.177673,273.953613 
	C514.512451,295.006836 515.688843,316.070038 517.010986,337.124084 
	C518.724304,364.407227 518.396362,391.711884 517.989502,419.018066 
	C517.943054,422.137512 516.942444,424.018250 513.147766,424.554108 
	C500.651520,426.318665 501.165436,426.419586 498.389648,412.996643 
	C492.965942,386.769135 489.276947,360.243011 484.166962,333.962494 
	C480.139709,313.250427 477.209869,292.325531 473.215393,271.606415 
	C469.158997,250.566269 464.412384,229.658829 459.932495,208.700882 
	C458.271210,200.929108 457.461487,193.202988 461.080902,185.732834 
	C466.197510,175.172592 476.445282,169.983063 488.346649,171.815491 
	C498.521942,173.382156 506.738281,181.804977 508.092651,192.889694 
	C509.727875,206.273041 509.841461,219.773727 510.378235,233.707855 
z"/>
<path fill="#000000" opacity="1.000000" stroke="none" 
	d="
M569.095947,288.022247 
	C565.164551,310.539703 561.241394,332.631317 557.440491,354.743896 
	C553.582886,377.187042 549.800476,399.643433 546.114502,422.115265 
	C545.656189,424.909180 544.580627,425.874756 541.842041,425.355621 
	C539.556885,424.922455 537.221191,424.473999 534.912476,424.496674 
	C526.232910,424.582062 527.665100,422.156067 527.650146,416.043854 
	C527.605591,397.883392 527.317932,379.713348 527.794800,361.564667 
	C528.274963,343.288300 529.917603,325.042206 530.383423,306.765839 
	C530.807373,290.132050 531.894165,273.543060 532.815552,256.945099 
	C533.744812,240.206833 535.284424,223.502548 536.545044,206.782501 
	C536.906982,201.982193 536.711548,197.183121 537.510132,192.364319 
	C539.469055,180.542648 547.372009,172.484100 558.451355,171.681610 
	C571.906494,170.707047 581.930847,177.131836 585.536560,188.888947 
	C587.392883,194.942078 587.528320,200.965073 586.084229,207.110046 
	C579.809753,233.808365 573.963562,260.597900 569.095947,288.022247 
z"/>
<path fill="#000000" opacity="1.000000" stroke="none" 
	d="
M374.260559,765.299805 
	C389.667908,734.436584 404.083496,703.489563 420.575592,673.592163 
	C429.678619,657.089844 439.574188,641.100281 451.974426,626.824219 
	C457.689117,620.245056 463.924316,614.227905 472.843231,612.132507 
	C473.623352,611.949219 474.462250,612.015869 475.201385,611.970886 
	C477.129547,614.081970 475.642761,615.906555 474.916046,617.612061 
	C464.339722,642.433350 455.033325,667.744873 446.001709,693.150940 
	C435.583588,722.457275 425.737427,751.961121 416.896240,781.789795 
	C412.930786,795.168518 409.310791,808.663879 404.111664,821.639038 
	C399.741272,832.546021 390.604370,838.992371 380.609985,838.521606 
	C369.133118,837.981018 359.784973,830.918030 356.441650,820.114990 
	C355.140106,815.909363 355.120850,811.622986 356.245087,807.333374 
	C360.121155,792.544006 367.457123,779.238281 374.260559,765.299805 
z"/>
<path fill="#000000" opacity="1.000000" stroke="none" 
	d="
M460.470886,602.405640 
	C461.930878,603.418945 463.722534,603.412476 464.394043,605.759888 
	C456.730774,608.320496 449.682739,612.090698 443.302338,617.182739 
	C425.652100,631.268738 412.198547,649.044861 399.240906,667.201477 
	C378.810516,695.828918 362.001984,726.716614 343.962921,756.834778 
	C339.773254,763.829834 335.541809,770.811768 331.017548,777.591553 
	C324.891876,786.770935 315.961548,790.605957 305.172882,789.271790 
	C294.958893,788.008728 288.459320,781.649292 284.786011,772.286926 
	C281.623016,764.225281 283.895386,756.780701 288.294769,750.022278 
	C295.842590,738.427185 304.912445,727.964050 313.912689,717.498047 
	C336.478394,691.257324 358.671844,664.651367 383.402618,640.386536 
	C397.752594,626.307007 412.059509,611.963684 430.522980,603.033875 
	C436.217224,600.279724 442.291718,598.505554 448.706879,598.267395 
	C453.038086,598.106628 456.880402,599.356323 460.470886,602.405640 
z"/>
<path fill="#000000" opacity="1.000000" stroke="none" 
	d="
M655.691833,681.279358 
	C642.058655,661.075378 627.987732,641.654663 610.762939,624.794556 
	C602.645386,616.848816 593.929199,609.601074 582.439087,606.836365 
	C581.900269,606.706726 581.491150,606.038513 580.391663,605.061096 
	C586.369141,601.899353 591.061157,597.681213 598.309570,598.362244 
	C611.244873,599.577576 621.536987,605.942200 631.194763,613.837402 
	C654.731750,633.078552 675.558350,655.105652 696.177307,677.330017 
	C716.916748,699.684265 736.471619,723.051514 754.840149,747.387634 
	C760.303467,754.625854 763.790405,762.559082 760.085205,772.024475 
	C756.279968,781.745422 749.234009,787.673584 739.147095,789.157532 
	C728.191345,790.769165 719.560425,786.109558 713.861755,776.707764 
	C701.345520,756.058289 689.134583,735.223755 676.626282,714.569397 
	C669.898926,703.460815 662.814697,692.568298 655.691833,681.279358 
z"/>
<path fill="#000000" opacity="1.000000" stroke="none" 
	d="
M609.330933,720.551514 
	C597.053589,683.941345 584.337219,647.916870 568.731567,612.340820 
	C573.792908,611.444153 577.114197,613.774780 580.310547,615.899719 
	C588.743713,621.506042 595.353088,628.991272 601.222717,637.144043 
	C615.470947,656.934204 627.109558,678.277222 638.098999,699.970093 
	C653.441650,730.255981 668.637207,760.618042 683.633118,791.076782 
	C687.869507,799.681580 692.083313,808.408630 689.556824,818.744934 
	C687.034180,829.065491 679.397095,836.583008 668.682800,838.164978 
	C659.357300,839.541870 649.417419,834.312866 644.603271,825.394775 
	C639.741821,816.388977 637.513123,806.401733 634.290344,796.805603 
	C625.818115,771.578369 617.721863,746.224854 609.330933,720.551514 
z"/>
<path fill="#000000" opacity="1.000000" stroke="none" 
	d="
M577.089478,409.235413 
	C589.486755,360.924683 605.960510,314.340454 622.051880,267.634094 
	C627.256592,252.527130 632.543518,237.442490 639.210083,222.910004 
	C645.201660,209.848785 655.929993,203.559433 668.083374,205.474808 
	C687.269531,208.498550 696.082336,227.685104 685.965271,244.482651 
	C675.659058,261.594330 665.108582,278.562225 655.015991,295.798553 
	C636.840820,326.838806 619.985779,358.590302 604.251404,390.945526 
	C598.152405,403.487213 592.507263,416.328217 583.699280,427.380829 
	C581.712524,429.873840 579.564026,432.149811 577.208801,434.266144 
	C575.144592,436.121094 572.978821,436.904541 570.154663,434.760742 
	C572.406677,426.500854 574.705322,418.069824 577.089478,409.235413 
z"/>
<path fill="#000000" opacity="1.000000" stroke="none" 
	d="
M368.224060,208.966339 
	C385.058533,201.506531 397.878967,206.020325 405.747620,222.254089 
	C414.397217,240.099091 420.205444,259.073151 426.973206,277.648834 
	C436.879578,304.839020 445.714050,332.402191 454.321655,360.035217 
	C461.684875,383.673492 467.122833,407.869751 475.109894,431.324097 
	C475.670898,432.971558 475.897675,434.530365 473.951874,435.634796 
	C471.920074,436.788025 470.476105,435.853546 469.023743,434.607758 
	C460.378113,427.191650 454.480469,417.774689 449.535126,407.690338 
	C430.036316,367.929199 410.578613,328.143188 387.811646,290.103516 
	C380.373932,277.676331 372.509430,265.505188 364.914459,253.171158 
	C362.910034,249.916000 361.050598,246.555786 359.351135,243.131393 
	C352.624451,229.577515 355.592560,217.924927 368.224060,208.966339 
z"/>
<path fill="#000000" opacity="1.000000" stroke="none" 
	d="
M405.450745,581.173340 
	C414.134216,579.005554 422.431183,578.120972 431.029388,579.255554 
	C438.141632,580.194031 441.867889,584.981018 445.822662,589.469421 
	C445.416473,590.977600 444.614349,591.266113 443.771820,591.254822 
	C423.662415,590.984985 406.795441,599.951233 390.472839,610.203430 
	C364.573853,626.470520 341.347260,646.069519 319.215057,667.127930 
	C303.855011,681.742737 290.261292,697.906555 276.093445,713.579285 
	C274.308197,715.554260 272.397003,717.418091 270.502014,719.290771 
	C261.741577,727.948425 250.456909,728.754578 241.283936,721.397400 
	C232.962296,714.723145 231.194305,701.584961 237.152328,691.932373 
	C240.559601,686.412354 245.513596,682.446411 250.367813,678.434326 
	C284.023193,650.617859 318.934387,624.542786 356.856293,602.732971 
	C372.166534,593.927734 387.812927,585.799927 405.450745,581.173340 
z"/>
<path fill="#000000" opacity="1.000000" stroke="none" 
	d="
M616.751038,579.186890 
	C633.568726,577.389099 648.362305,582.627563 662.721985,589.669250 
	C706.166565,610.973450 745.317566,638.771729 782.734802,669.171265 
	C790.218018,675.250977 798.162292,680.812988 804.647339,688.053833 
	C812.756531,697.108154 813.691223,708.424866 807.128479,717.813660 
	C800.681458,727.037170 788.004395,729.324951 778.894653,722.617065 
	C770.085327,716.130371 764.039978,706.942932 756.733459,698.996765 
	C737.317200,677.880737 716.484375,658.291931 694.715271,639.636414 
	C677.192261,624.619690 658.418945,611.480713 638.077209,600.614380 
	C627.074829,594.737061 615.406006,591.098511 602.758301,591.303162 
	C601.788269,591.318848 600.746338,591.414856 599.666443,590.257019 
	C603.666382,584.270569 609.304077,580.781006 616.751038,579.186890 
z"/>
<path fill="#000000" opacity="1.000000" stroke="none" 
	d="
M783.054138,327.715942 
	C794.370178,323.928223 803.416992,326.947723 808.434143,335.922424 
	C814.263550,346.350128 812.030518,358.851990 802.804565,366.605347 
	C790.289307,377.123108 776.514771,385.886841 762.876038,394.813568 
	C735.166565,412.949768 707.317688,430.872833 679.597656,448.992920 
	C661.008423,461.144318 641.826599,472.023773 620.625793,479.106201 
	C615.820007,480.711639 613.045349,479.841461 611.032471,475.405640 
	C609.816101,472.725311 607.322876,470.696625 606.847351,467.456024 
	C607.378540,467.022614 607.816223,466.430542 608.390442,466.230774 
	C629.879761,458.754181 647.482178,444.919067 664.952332,431.077545 
	C691.565186,409.992340 717.960815,388.608582 742.604980,365.197327 
	C752.620300,355.683136 762.297607,345.812805 772.109436,336.085083 
	C775.308533,332.913422 778.501648,329.750854 783.054138,327.715942 
z"/>
<path fill="#000000" opacity="1.000000" stroke="none" 
	d="
M390.217285,463.832214 
	C362.313538,447.420746 335.933075,429.309937 309.055573,411.973541 
	C288.336945,398.609741 267.692719,385.140350 247.348892,371.214020 
	C235.503098,363.105072 231.805664,353.787201 234.427597,341.376953 
	C237.971359,324.603516 258.078827,322.722931 266.881531,330.741913 
	C271.059479,334.547882 274.868530,338.759796 278.831116,342.801117 
	C306.755005,371.279755 336.812927,397.340210 368.296570,421.787109 
	C383.561829,433.640533 398.835968,445.488953 415.134491,455.913422 
	C421.591644,460.043396 428.327393,463.684174 436.012573,465.145416 
	C439.222351,465.755737 439.514343,467.263336 437.790863,470.089417 
	C430.981750,481.254822 431.080658,481.271454 418.602631,477.013489 
	C408.785675,473.663513 399.498901,469.193909 390.217285,463.832214 
z"/>
</svg>