<svg version="1.1" id="Layer_1" xmlns="http://www.w3.org/2000/svg" xmlns:xlink="http://www.w3.org/1999/xlink" x="0px" y="0px"
	 width="100%" viewBox="0 0 1024 1024" enable-background="new 0 0 1024 1024" xml:space="preserve">
<path fill="#000000" opacity="1.000000" stroke="none" 
	d="
M466.454651,880.576355 
	C449.927460,866.229309 441.490479,847.629944 435.629913,827.474670 
	C429.732300,807.191956 428.805450,786.148193 425.626770,765.443909 
	C418.563354,719.436401 406.374847,675.175781 378.300323,636.877136 
	C366.427856,620.680969 352.120361,607.024719 334.029266,597.939514 
	C311.419281,586.584839 288.314331,584.018127 264.972656,595.877930 
	C259.344086,598.737793 254.241287,602.641907 248.239059,604.791260 
	C241.169342,607.322937 234.171341,607.650269 227.758087,602.972961 
	C221.056931,598.085693 218.405792,589.409668 221.557190,579.960144 
	C228.397781,559.448730 242.660461,545.647217 262.830414,538.819458 
	C295.548889,527.743896 325.971802,534.636963 354.132233,553.224243 
	C381.638733,571.379883 401.217712,596.735168 417.198792,625.040222 
	C437.749725,661.439148 449.252686,700.909180 456.545380,741.854553 
	C460.393646,763.460876 462.415070,785.340820 467.203766,808.185852 
	C467.420807,805.812378 467.615143,804.669434 467.616516,803.526306 
	C467.640839,783.193787 468.395966,762.827881 467.496674,742.535522 
	C465.371552,694.581726 457.773102,647.737244 434.653625,604.771912 
	C413.891357,566.187195 385.135406,535.564697 344.950775,516.660522 
	C329.913177,509.586334 313.931458,505.599060 297.765503,502.253571 
	C279.603607,498.494995 261.541229,494.233612 245.555298,484.419403 
	C221.247162,469.495911 205.859558,448.254517 202.255203,419.476715 
	C201.185654,410.937225 202.352814,402.511444 206.873230,394.865173 
	C213.145325,384.255981 225.648697,383.115112 233.600723,392.481384 
	C234.995605,394.124329 236.449219,395.832672 237.357666,397.755585 
	C246.532410,417.175354 262.996582,427.320129 282.569946,433.585876 
	C296.679321,438.102539 310.954010,442.084351 324.757538,447.568207 
	C353.121246,458.836609 376.248749,477.292847 396.653259,499.497009 
	C401.491699,504.762238 405.789124,510.524231 410.347168,516.047974 
	C411.164307,517.038269 411.703461,518.382385 413.643890,518.572937 
	C412.901123,511.994385 410.926422,505.864594 408.542114,499.915497 
	C396.913940,470.902740 378.601501,446.595154 355.666809,425.622375 
	C334.851715,406.587830 311.839233,390.858978 285.850098,379.669861 
	C272.826874,374.062958 259.268127,369.954498 245.864410,365.415619 
	C239.991211,363.426758 234.360107,360.931274 229.283722,357.371704 
	C221.169067,351.681671 216.441406,343.921265 218.120468,333.904877 
	C219.875488,323.435150 226.521027,316.870148 237.017410,314.301025 
	C249.498520,311.246124 261.856262,312.522308 274.101776,315.357086 
	C298.488373,321.002502 319.638763,333.062286 338.625916,349.036072 
	C360.237427,367.217743 377.901123,388.813324 392.747528,412.780151 
	C393.633301,414.210114 394.009949,416.295349 396.504272,416.699249 
	C397.439819,413.861481 396.895721,411.073395 396.278381,408.424103 
	C383.518677,353.667175 352.343506,314.066650 300.101959,291.890656 
	C286.290894,286.028046 271.643433,283.836151 256.857758,282.361206 
	C250.346344,281.711609 244.025665,280.347748 238.052307,277.642395 
	C229.149643,273.610352 223.375061,266.850922 222.950500,256.997559 
	C222.531128,247.264328 227.798508,240.231842 236.292984,235.803177 
	C250.595444,228.346497 265.993988,227.316635 281.592590,229.247513 
	C330.023163,235.242523 363.273254,263.030823 387.396759,303.684814 
	C392.673950,312.578186 397.346344,321.778870 401.372559,331.306335 
	C401.813934,332.350739 402.058624,333.585480 403.535126,333.818909 
	C405.338593,332.663391 404.674011,330.813080 404.609985,329.294769 
	C403.442444,301.620697 396.755951,275.700165 380.452942,252.767426 
	C366.991760,233.832077 349.199036,220.665375 327.594177,212.489456 
	C321.667511,210.246643 315.735840,208.012512 310.177551,204.966705 
	C299.179413,198.940002 293.800873,187.865967 296.711304,177.611359 
	C299.276733,168.572174 307.512634,162.075897 317.623810,160.692627 
	C337.414429,157.985153 355.271423,163.477493 371.920044,173.582153 
	C411.441681,197.569260 434.349548,233.021622 443.187622,277.984161 
	C444.373962,284.019531 445.109192,290.147644 445.933563,296.248962 
	C446.703125,301.944855 446.003082,307.151093 443.135651,312.533081 
	C422.706909,350.876221 416.242615,392.185883 416.804443,435.203033 
	C417.363007,477.970551 427.470612,518.571350 442.334625,558.247803 
	C454.655640,591.136169 467.718658,623.758789 476.686554,657.802917 
	C482.812134,681.057007 486.038971,704.763123 488.259308,728.665405 
	C491.310272,761.509705 491.835602,794.503296 494.436310,827.366455 
	C495.063416,835.290588 496.109528,843.282471 499.873413,850.562439 
	C502.475769,855.595886 506.143250,859.418518 512.083740,859.557861 
	C518.020081,859.697266 522.037109,856.199890 524.676086,851.140137 
	C529.437134,842.011475 529.842590,831.898987 530.605652,821.993530 
	C532.791687,793.616455 534.873718,765.225708 536.477112,736.811035 
	C537.906799,711.475708 541.236572,686.423889 547.282410,661.830322 
	C554.967163,630.569763 566.727417,600.609070 577.848328,570.461914 
	C588.398499,541.862061 598.391846,513.135559 603.249695,482.839691 
	C608.584961,449.566162 610.210205,416.437225 604.796509,382.921417 
	C600.762268,357.945892 593.677856,334.266388 581.018188,312.381592 
	C578.186157,307.485779 578.197693,302.559875 578.794800,297.437378 
	C581.629822,273.113098 586.862732,249.383133 599.563660,228.118805 
	C618.552551,196.327240 643.980225,172.018799 680.767273,162.070312 
	C690.970764,159.310913 701.497375,158.804337 711.859497,161.880005 
	C721.110107,164.625732 727.262695,170.669968 729.029114,180.191376 
	C730.794861,189.709641 726.340210,197.021057 719.069641,202.742630 
	C713.072327,207.462250 705.782471,209.626984 698.797668,212.272430 
	C653.436646,229.452499 630.002563,263.725769 622.297668,310.236633 
	C621.266846,316.459320 620.917297,322.798859 620.366455,329.094299 
	C620.228577,330.670746 620.022400,332.421326 621.817627,334.104156 
	C624.073792,331.197083 625.280273,327.968536 626.662415,324.850555 
	C639.819580,295.168243 658.321533,269.647888 685.343689,251.095886 
	C708.421631,235.251785 734.166138,227.751862 762.191162,228.758392 
	C772.113464,229.114746 781.650024,231.517487 790.233093,236.814651 
	C805.970154,246.526993 805.633301,266.676025 789.587463,275.880737 
	C781.142395,280.725281 771.711914,282.072052 762.286499,283.250397 
	C731.682678,287.076538 704.452637,298.683838 681.264954,319.045410 
	C652.749207,344.085663 634.221619,374.887421 628.838013,412.935944 
	C628.611450,414.536957 628.052002,416.188538 629.822327,417.708405 
	C636.327515,407.964264 641.972595,397.766632 649.075806,388.539703 
	C669.980774,361.384735 694.177551,338.111481 725.970642,323.996796 
	C742.875427,316.491852 760.453247,311.634308 779.220459,312.731384 
	C790.248901,313.376099 799.914917,316.642303 805.327576,327.298553 
	C810.472046,337.426819 807.742065,348.447510 798.457886,355.812897 
	C789.335938,363.049561 778.321350,366.035492 767.515747,369.346100 
	C711.064392,386.641846 666.287292,419.768982 633.199524,468.562927 
	C623.429749,482.970215 616.279175,498.759155 611.793579,515.663208 
	C611.542480,516.609619 611.063232,517.561584 611.787659,518.631592 
	C613.825745,518.273438 614.513367,516.412415 615.605103,515.066345 
	C636.601746,489.178650 660.317200,466.552002 690.976624,452.278076 
	C707.036438,444.801270 724.081970,440.082001 740.882019,434.699188 
	C761.307617,428.154663 778.449158,417.617981 787.829773,397.247955 
	C788.583923,395.610413 789.829407,394.180206 790.949036,392.732971 
	C797.812561,383.860962 810.309570,383.811798 817.178406,392.721741 
	C824.253052,401.898621 824.753418,412.555939 822.777588,423.247742 
	C817.341980,452.661865 800.246582,473.484344 774.126770,487.265625 
	C758.805176,495.349579 742.319824,500.101166 725.382385,503.173798 
	C665.687683,514.002930 622.862976,547.797302 593.295410,599.747131 
	C575.210999,631.521118 565.954773,666.031372 561.277405,702.055115 
	C556.712585,737.211609 557.283997,772.508362 558.076599,807.930237 
	C559.603027,799.169556 561.197266,790.420105 562.643433,781.646240 
	C567.591614,751.626648 570.900574,721.284607 579.860779,692.047119 
	C591.624939,653.659668 607.748413,617.471680 634.150452,586.625916 
	C645.785095,573.032959 658.270508,560.200745 673.693909,550.916016 
	C699.070557,535.639526 726.397217,529.341309 755.595093,536.873413 
	C777.177368,542.440918 793.412109,555.291382 802.733948,576.019287 
	C804.170654,579.213928 805.222107,582.507751 805.294739,586.112976 
	C805.570740,599.806702 794.673340,608.946960 781.189758,606.159424 
	C776.926086,605.278076 772.764221,603.992798 769.233276,601.322632 
	C741.448059,580.311035 703.364685,587.247681 679.041687,604.641907 
	C655.138489,621.735779 639.308167,645.129822 626.765930,671.075195 
	C611.915588,701.795410 603.227478,734.274231 599.202515,768.127747 
	C596.495911,790.892273 594.818970,813.884766 587.114624,835.769592 
	C580.691895,854.014160 571.512817,870.462036 555.529968,882.130798 
	C527.336548,902.714233 494.406158,902.140686 466.454651,880.576355 
z"/>
<path fill="#000000" opacity="1.000000" stroke="none" 
	d="
M560.664673,495.064850 
	C559.495728,448.088867 546.472168,405.410889 519.652893,367.190704 
	C513.250793,358.067139 511.510925,358.126007 505.197144,367.363831 
	C481.356262,402.245911 468.039612,440.730804 464.991058,482.912598 
	C463.697784,500.806702 464.846100,518.494812 467.078247,536.196533 
	C467.280029,537.796692 467.777222,539.473206 466.682892,541.035645 
	C464.627136,540.881958 464.589813,539.082703 464.153809,537.794739 
	C451.205719,499.546600 442.096100,460.552979 444.100433,419.853668 
	C446.325989,374.662140 458.961121,332.752747 486.006714,295.860199 
	C492.233337,287.366547 499.866272,280.125793 507.460571,272.868378 
	C510.659332,269.811554 513.189148,269.660889 516.813049,272.746765 
	C542.625671,294.727142 558.648743,322.901581 569.215027,354.583282 
	C579.474670,385.345917 582.679688,416.834229 579.567566,449.138153 
	C576.696899,478.936890 570.545776,507.971893 561.293579,536.392761 
	C560.750244,538.061829 560.639648,540.014954 557.712891,541.986084 
	C559.364868,525.917542 561.094177,510.777557 560.664673,495.064850 
z"/>
<path fill="#000000" opacity="1.000000" stroke="none" 
	d="
M492.922119,133.700928 
	C532.163391,119.825813 569.388550,150.234131 568.025146,187.787323 
	C567.266174,208.691727 553.144409,231.024780 527.693787,237.819336 
	C501.296906,244.866516 474.060638,233.530716 462.231049,209.034470 
	C448.674469,180.962036 461.179352,147.339890 489.780884,134.967056 
	C490.696991,134.570755 491.625732,134.203674 492.922119,133.700928 
z"/>
<path fill="#000000" opacity="1.000000" stroke="none" 
	d="
M520.335022,430.811035 
	C533.706787,461.703064 536.158508,493.831726 534.699707,526.590027 
	C534.010925,542.056213 533.311340,557.513733 531.236694,572.862549 
	C526.755188,606.018677 520.671875,638.900940 514.087952,671.694641 
	C513.889709,672.682068 513.698975,673.632935 512.835266,674.191711 
	C511.201874,673.825378 511.175751,672.520203 510.990356,671.453674 
	C506.118622,643.430054 499.378662,615.765808 495.225159,587.595947 
	C490.275177,554.024170 488.176453,520.311829 491.064362,486.515320 
	C492.897217,465.065979 497.553192,444.053375 507.988068,424.807190 
	C509.150482,422.663208 509.994080,420.194916 512.886169,418.823792 
	C516.183228,422.126740 517.898132,426.486237 520.335022,430.811035 
z"/>
</svg>